<?xml version="1.0" encoding="UTF-8" standalone="no"?>
<!-- Created with Inkscape (http://www.inkscape.org/) -->

<svg
   xmlns:dc="http://purl.org/dc/elements/1.1/"
   xmlns:cc="http://creativecommons.org/ns#"
   xmlns:rdf="http://www.w3.org/1999/02/22-rdf-syntax-ns#"
   xmlns:svg="http://www.w3.org/2000/svg"
   xmlns="http://www.w3.org/2000/svg"
   xmlns:sodipodi="http://sodipodi.sourceforge.net/DTD/sodipodi-0.dtd"
   xmlns:inkscape="http://www.inkscape.org/namespaces/inkscape"
   width="430.31534"
   height="585.98187"
   id="svg2"
   version="1.1"
   inkscape:version="0.48.4 r9939"
   sodipodi:docname="trojak-climbing.svg">
  <defs
     id="defs4" />
  <sodipodi:namedview
     id="base"
     pagecolor="#ffffff"
     bordercolor="#666666"
     borderopacity="1.0"
     inkscape:pageopacity="0.0"
     inkscape:pageshadow="2"
     inkscape:zoom="0.8004871"
     inkscape:cx="126.39573"
     inkscape:cy="284.61754"
     inkscape:document-units="px"
     inkscape:current-layer="layer1"
     showgrid="false"
     inkscape:window-width="1366"
     inkscape:window-height="706"
     inkscape:window-x="-8"
     inkscape:window-y="-8"
     inkscape:window-maximized="1"
     fit-margin-left="10"
     fit-margin-top="10"
     fit-margin-right="10"
     fit-margin-bottom="10"
     showguides="true"
     inkscape:guide-bbox="true" />
  <metadata
     id="metadata7">
    <rdf:RDF>
      <cc:Work
         rdf:about="">
        <dc:format>image/svg+xml</dc:format>
        <dc:type
           rdf:resource="http://purl.org/dc/dcmitype/StillImage" />
        <dc:title />
      </cc:Work>
    </rdf:RDF>
  </metadata>
  <g
     inkscape:label="Layer 1"
     inkscape:groupmode="layer"
     id="layer1"
     transform="translate(-11.160292,-45.990039)">
    <path
       style="fill:#003380;fill-opacity:1;fill-rule:nonzero;stroke:#003380;stroke-width:2.00948119;stroke-linecap:butt;stroke-linejoin:miter;stroke-miterlimit:4;stroke-opacity:1;stroke-dasharray:none;stroke-dashoffset:0"
       d="m 151.55183,544.35784 0,-11.36432 -11.86726,0 -11.86727,0 0,-46.71997 0,-46.71996 65.89456,0.001 c 36.24201,8.1e-4 92.45537,0.37765 124.91859,0.83742 l 59.02403,0.83596 0,33.88689 0,33.88688 -73.07738,0 -73.07737,0 0,23.35998 0,23.35999 -39.97395,0 -39.97395,0 0,-11.36431 z"
       id="path5303"
       inkscape:connector-curvature="0" />
    <path
       style="fill:none;stroke:#000000;stroke-width:1px;stroke-linecap:butt;stroke-linejoin:miter;stroke-opacity:1"
       d="m 394.41382,212.76835 0,26.05869 26.50037,0 0,89.65958 -25.61702,0 0,181.9692 -25.17535,0 0,21.64197 -124.11006,0 0,21.64197 -26.50037,0 0,22.08364 -131.6185,0 0,-21.64197 -24.733678,0 0,-46.81732 26.058696,0 0,-156.35217 -26.500369,0 0,-21.64197 -25.17535,0 0,-45.93397 -27.8253871,0 0,-92.30962 29.5920781,0 0,90.10125 25.175351,0 0,45.93397 25.617023,0 0,21.64197 25.617026,0 0,-22.08364 25.17535,0 0,-22.52531"
       id="path4757"
       inkscape:connector-curvature="0"
       transform="translate(11.160292,45.990039)" />
    <path
       style="fill:none;stroke:#000000;stroke-width:1px;stroke-linecap:butt;stroke-linejoin:miter;stroke-opacity:1"
       d="m 166.51065,304.63629 0,45.4923 -25.17535,0 0,22.96699 151.93545,0 0,-22.96699 -23.40866,0 0,-45.4923"
       id="path4759"
       inkscape:connector-curvature="0"
       transform="translate(11.160292,45.990039)" />
    <path
       style="fill:none;stroke:#000000;stroke-width:1px;stroke-linecap:butt;stroke-linejoin:miter;stroke-opacity:1"
       d="m 295.03744,281.22763 0,68.90096 24.292,0 0,22.52531 24.73368,0 0,-22.52531 23.85033,0 0,-24.73368 27.38372,0 0,-86.56787 -26.94204,0"
       id="path4761"
       inkscape:connector-curvature="0"
       transform="translate(11.160292,45.990039)" />
    <path
       style="fill:none;stroke:#000000;stroke-width:1px;stroke-linecap:butt;stroke-linejoin:miter;stroke-opacity:1"
       d="m 115.2766,394.29587 0,93.63464 24.73368,0 0,22.52531 81.2678,0 0,-45.93397 146.63537,0 0,-69.78431 z"
       id="path4763"
       inkscape:connector-curvature="0"
       transform="translate(11.160292,45.990039)" />
    <path
       style="fill:none;stroke:#000000;stroke-width:1px;stroke-linecap:butt;stroke-linejoin:miter;stroke-opacity:1"
       d="m 246.45343,487.48884 0,20.31694 120.57668,0 0,-19.87527 z"
       id="path4765"
       inkscape:connector-curvature="0"
       transform="translate(11.160292,45.990039)" />
    <path
       style="fill:none;stroke:#000000;stroke-width:1px;stroke-linecap:butt;stroke-linejoin:miter;stroke-opacity:1"
       d="m 115.2766,509.57248 0,23.40866 103.35144,0 0,18.55025 -129.851805,0 0,-41.95891 z"
       id="path4767"
       inkscape:connector-curvature="0"
       transform="translate(11.160292,45.990039)" />
    <path
       style="fill:#000000;fill-opacity:1;fill-rule:nonzero;stroke:#000000;stroke-width:1.99878299;stroke-linecap:butt;stroke-linejoin:miter;stroke-miterlimit:4;stroke-opacity:1;stroke-dasharray:none;stroke-dashoffset:0"
       d="m 218.86876,542.84521 0.40411,-10.62144 -51.26373,0 -51.26372,0 -0.35919,-11.55547 -0.35919,-11.55546 -13.11701,-0.62462 -13.117012,-0.62462 0,-79.01449 0,-79.01449 13.429322,1e-4 13.42932,10e-5 0,-11.24315 0,-11.24316 12.4924,0 12.49239,0 0,-10.61853 0,-10.61854 11.86778,0 11.86777,0 0,21.86169 0,21.86169 -12.49239,0 -12.4924,0 0,11.86777 0,11.86778 76.82822,0 76.82822,0 0,-11.24316 0,-11.24315 12.4924,0 12.49239,0 0,11.24315 0,11.24316 13.11701,0 13.11702,0 0,-11.24316 0,-11.24315 11.86777,0 11.86778,0 0,-12.41676 0,-12.41677 14.3687,-0.38794 c 13.39442,-0.36163 17.01721,0.20041 12.48994,1.93768 -1.64182,0.63003 -1.87386,11.93915 -1.87386,91.32813 l 0,90.60906 -12.49239,0 -12.49239,0 0,10.61853 0,10.61854 -61.83735,0 -61.83735,0 0,11.24315 0,11.24316 -13.42932,0.003 -13.42933,0.002 0.40409,-10.62145 0,8.3e-4 z m 3.00314,-54.65713 0.34049,-22.79862 73.39281,-0.32229 73.39282,-0.3223 0,-35.59333 0,-35.59334 -127.42242,0 -127.42241,0 0,47.47109 0,47.4711 12.49239,0 12.49239,0 0,11.24315 0,11.24316 41.19672,0 41.19672,0 0.34049,-22.79862 z m 145.87688,9.68161 0,-10.61854 -61.21273,0 -61.21273,0 0,10.61854 0,10.61853 61.21273,0 61.21273,0 0,-10.61853 z"
       id="path4769"
       inkscape:connector-curvature="0"
       transform="translate(11.160292,45.990039)" />
    <path
       style="fill:#000000;fill-opacity:1;fill-rule:nonzero;stroke:#000000;stroke-width:1.99878299;stroke-linecap:butt;stroke-linejoin:miter;stroke-miterlimit:4;stroke-opacity:1;stroke-dasharray:none;stroke-dashoffset:0"
       d="m 62.711819,338.61729 c -0.32083,-9.01921 -0.06591,-11.1733 1.261655,-10.66125 0.915046,0.35294 6.980977,0.64171 13.479845,0.64171 l 11.816124,0 -0.362832,10.30623 -0.362832,10.30622 -12.714947,0.35502 -12.714947,0.35502 -0.402066,-11.30295 z"
       id="path4771"
       inkscape:connector-curvature="0"
       transform="translate(11.160292,45.990039)" />
    <path
       style="fill:#000000;fill-opacity:1;fill-rule:nonzero;stroke:#000000;stroke-width:1.99878299;stroke-linecap:butt;stroke-linejoin:miter;stroke-miterlimit:4;stroke-opacity:1;stroke-dasharray:none;stroke-dashoffset:0"
       d="m 37.689514,304.84681 c -0.297401,-19.37614 -0.0581,-23.63306 1.299172,-23.11093 0.915047,0.35201 6.958243,0.64002 13.429323,0.64002 l 11.765602,0 0,21.61184 c 0,15.14355 -0.448666,22.0605 -1.499087,23.11092 -0.950063,0.95007 -5.734892,1.49909 -13.064774,1.49909 l -11.565687,0 -0.364549,-23.75094 z"
       id="path4773"
       inkscape:connector-curvature="0"
       transform="translate(11.160292,45.990039)" />
    <path
       style="fill:#000000;fill-opacity:1;fill-rule:nonzero;stroke:#000000;stroke-width:1.99878299;stroke-linecap:butt;stroke-linejoin:miter;stroke-miterlimit:4;stroke-opacity:1;stroke-dasharray:none;stroke-dashoffset:0"
       d="m 10.466319,237.44554 0,-45.01488 13.757412,0 13.757413,0 -0.32809,44.66031 -0.328089,44.66031 -13.429323,0.35457 -13.429323,0.35457 0,-45.01488 z"
       id="path4775"
       inkscape:connector-curvature="0"
       transform="translate(11.160292,45.990039)" />
    <path
       style="fill:#000000;fill-opacity:1;fill-rule:nonzero;stroke:#000000;stroke-width:1.99878299;stroke-linecap:butt;stroke-linejoin:miter;stroke-miterlimit:4;stroke-opacity:1;stroke-dasharray:none;stroke-dashoffset:0"
       d="m 270.30811,333.16761 c 0,-9.16697 -0.36823,-24.34523 -0.81829,-33.72946 l -0.8183,-17.06225 12.68607,0 12.68606,0 0,33.72946 0,33.72946 -11.86777,0 -11.86777,0 0,-16.66721 z"
       id="path4777"
       inkscape:connector-curvature="0"
       transform="translate(11.160292,45.990039)" />
    <path
       style="fill:#000000;fill-opacity:1;fill-rule:nonzero;stroke:#000000;stroke-width:1.99878299;stroke-linecap:butt;stroke-linejoin:miter;stroke-miterlimit:4;stroke-opacity:1;stroke-dasharray:none;stroke-dashoffset:0"
       d="m 397.98037,325.84943 c -1.10682,-1.10683 -1.49909,-12.54792 -1.49909,-43.72338 l 0,-42.22429 11.86778,0 11.86777,0 0,43.72337 0,43.72338 -10.36869,0 c -6.39888,0 -10.94263,-0.57395 -11.86777,-1.49908 z"
       id="path4779"
       inkscape:connector-curvature="0"
       transform="translate(11.160292,45.990039)" />
    <path
       style="fill:#000000;fill-opacity:1;fill-rule:nonzero;stroke:#000000;stroke-width:1.99878299;stroke-linecap:butt;stroke-linejoin:miter;stroke-miterlimit:4;stroke-opacity:1;stroke-dasharray:none;stroke-dashoffset:0"
       d="m 370.24726,225.5355 0,-11.86777 11.86777,0 11.86777,0 0,11.86777 0,11.86778 -11.86777,0 -11.86777,0 0,-11.86778 z"
       id="path4781"
       inkscape:connector-curvature="0"
       transform="translate(11.160292,45.990039)" />
    <path
       style="fill:#000000;fill-opacity:1;fill-rule:nonzero;stroke:#000000;stroke-width:1.99878299;stroke-linecap:butt;stroke-linejoin:miter;stroke-miterlimit:4;stroke-opacity:1;stroke-dasharray:none;stroke-dashoffset:0"
       d="m 88.944746,563.45188 -0.400967,-11.24602 63.488131,0.003 c 53.35464,0.002 63.77297,0.28772 65.27276,1.7875 1.2324,1.2324 1.78462,4.71141 1.78462,11.24315 l 0,9.45853 -64.87179,0 -64.871787,0 -0.400967,-11.24603 z"
       id="path4783"
       inkscape:connector-curvature="0"
       transform="translate(11.160292,45.990039)" />
    <path
       style="fill:#000000;fill-opacity:1;fill-rule:nonzero;stroke:#000000;stroke-width:1.99878299;stroke-linecap:butt;stroke-linejoin:miter;stroke-miterlimit:4;stroke-opacity:1;stroke-dasharray:none;stroke-dashoffset:0"
       d="m 64.183611,530.97453 0,-22.48631 11.867774,0 11.867774,0 0,20.51028 c 0,11.28065 -0.341223,21.39949 -0.758274,22.48631 -0.61279,1.5969 -2.889774,1.97603 -11.867774,1.97603 l -11.1095,0 0,-22.48631 z"
       id="path4785"
       inkscape:connector-curvature="0"
       transform="translate(11.160292,45.990039)" />
    <path
       style="fill:#c8ab37;fill-opacity:1;fill-rule:nonzero;stroke:#c8ab37;stroke-width:1.99878299000000000;stroke-linecap:butt;stroke-linejoin:miter;stroke-miterlimit:4;stroke-opacity:1;stroke-dasharray:none;stroke-dashoffset:0"
       d="m 193.84083,293.93136 -0.36094,-10.93085 -13.74164,0 -13.74163,0 -0.36283,10.30623 -0.36283,10.30622 -11.81726,0 -11.81725,0 0,-11.24315 0,-11.24315 -12.43984,0 -12.43985,0 -0.36486,-9.68161 -0.36486,-9.6816 -13.42932,-0.35458 -13.429321,-0.35457 0,-12.45013 0,-12.45013 -12.492394,0 -12.492394,0 0,-10.61854 0,-10.61853 -11.867774,0 -11.867774,0 0,-11.24315 0,-11.24316 8.120056,0 8.120056,0 0,-10.61853 0,-10.61854 -5.621577,0 -5.621577,0 0,-10.61853 0,-10.61854 6.246197,0 6.246197,0 0,-11.86777 0,-11.86778 -6.246197,0 -6.246197,0 0,-11.86777 0,-11.86777 11.867774,0 11.867774,0 0,-9.993918 0,-9.993915 11.243154,0 11.243154,0 0,-11.243154 0,-11.243154 11.867773,0 11.86778,0 0,-11.867774 0,-11.867774 13.74163,0 13.74163,0 0,-11.243155 0,-11.243154 11.86778,0 11.86777,0 0,8.120056 0,8.120056 12.49239,0 12.4924,0 0,-8.120056 0,-8.120056 13.05993,0 13.05994,0 0.36939,8.432366 0.36938,8.432366 16.86473,0 16.86474,0 0.39528,-3.435409 0.39528,-3.435408 12.40942,0 12.40942,0 0,-4.996957 0,-4.996958 11.86778,0 11.86777,0 0,11.867774 0,11.867774 11.86777,0 11.86778,0 0,11.243154 0,11.243155 10.5699,0 10.56989,0 0.36095,10.930844 0.36095,10.930844 9.6816,0.364858 9.68161,0.364859 0,10.565986 0,10.56599 9.36929,0 9.3693,0 0,11.24315 0,11.24315 -6.87082,0 -6.87082,0 0,11.86778 0,11.86777 8.12006,0 8.12006,0 0,9.99392 0,9.99391 -8.16869,0 -8.1687,0 0.36095,10.93085 0.36094,10.93084 11.55547,0.3592 11.55546,0.35918 0,9.94704 0,9.94703 -13.74163,0 -13.74163,0 0,11.86777 0,11.86778 -12.4924,0 -12.49239,0 0,12.49239 0,12.4924 -11.86777,0 -11.86778,0 0,9.36929 0,9.3693 -25.60941,0 -25.6094,0 0,11.86777 0,11.86777 -10.61854,0 -10.61853,0 0,-10.61853 0,-10.61853 -14.36625,0 -14.36626,0 0,11.24315 0,11.24315 -11.81914,0 -11.81913,0 -0.36095,-10.93084 z"
       id="path4787"
       inkscape:connector-curvature="0"
       transform="translate(11.160292,45.990039)" />
    <path
       style="fill:#217821;fill-opacity:1;fill-rule:nonzero;stroke:#217821;stroke-width:1.99878299000000000;stroke-linecap:butt;stroke-linejoin:miter;stroke-miterlimit:4;stroke-opacity:1;stroke-dasharray:none;stroke-dashoffset:0"
       d="m 91.294012,347.7963 c -0.482005,-0.48201 -0.876374,-5.56101 -0.876374,-11.2867 l 0,-10.41033 -12.464212,0 -12.464213,0 -0.340491,-22.79862 -0.340491,-22.79861 -12.180084,-0.35755 -12.180084,-0.35755 0,-31.81036 0,-31.81037 11.243155,0 11.243154,0 0,10.61853 0,10.61854 12.492394,0 12.492393,0 0,12.49239 0,12.4924 13.741631,0 13.74164,0 0,9.99391 0,9.99392 12.49239,0 12.49239,0 0,21.86168 0,21.86169 -12.44375,0 -12.44376,0 -0.36095,10.93085 -0.36094,10.93084 -11.30371,0.35586 c -6.217045,0.19572 -11.698083,-0.0385 -12.180088,-0.52052 z"
       id="path5297"
       inkscape:connector-curvature="0"
       transform="translate(11.160292,45.990039)" />
    <path
       style="fill:#217821;fill-opacity:1;fill-rule:nonzero;stroke:#217821;stroke-width:1.99878299;stroke-linecap:butt;stroke-linejoin:miter;stroke-miterlimit:4;stroke-opacity:1;stroke-dasharray:none;stroke-dashoffset:0"
       d="m 320.27768,361.12321 0,-11.19791 -12.18008,-0.35755 -12.18009,-0.35755 -0.33238,-34.04177 -0.33239,-34.04177 12.51247,0 12.51247,0 0,-9.3693 0,-9.36929 11.86777,0 11.86778,0 0,-12.4924 0,-12.49239 12.56612,0 c 8.0593,0 12.28922,0.44804 11.79405,1.24924 -0.4961,0.8027 3.94295,1.24924 12.41866,1.24924 l 13.19074,0 0,42.47414 0,42.47413 -13.74163,0 -13.74163,0 0,12.4924 0,12.49239 -11.86778,0 -11.86777,0 0,11.24316 0,11.24315 -11.24315,0 -11.24316,0 0,-11.19792 z"
       id="path5299"
       inkscape:connector-curvature="0"
       transform="translate(11.160292,45.990039)" />
    <path
       style="fill:#217821;fill-opacity:1;fill-rule:nonzero;stroke:#217821;stroke-width:1.99878299;stroke-linecap:butt;stroke-linejoin:miter;stroke-miterlimit:4;stroke-opacity:1;stroke-dasharray:none;stroke-dashoffset:0"
       d="m 141.63645,361.7463 0,-10.57484 12.80471,-0.35601 12.8047,-0.35601 -0.26492,-33.41715 -0.26492,-33.41716 13.06962,0 13.06963,0 0,11.24316 0,11.24315 13.11701,0 13.11701,0 0,-11.24315 0,-11.24316 13.11702,0 13.11701,0 0,10.61854 0,10.61853 11.0797,0 11.07971,0 0.77431,4.68465 c 0.42588,2.57656 0.78051,12.97648 0.78807,23.11093 l 0.0138,18.42628 11.86777,0 11.86777,0 0,10.61853 0,10.61854 -75.57898,0 -75.57898,0 0,-10.57483 z"
       id="path5301"
       inkscape:connector-curvature="0"
       transform="translate(11.160292,45.990039)" />
    <path
       style="fill:#483e37;fill-opacity:1;fill-rule:nonzero;stroke:#483e37;stroke-width:1.99878299000000000;stroke-linecap:butt;stroke-linejoin:miter;stroke-miterlimit:4;stroke-opacity:1;stroke-dasharray:none;stroke-dashoffset:0"
       d="m 89.168399,530.97453 0,-19.98783 12.492391,0 12.4924,0 0,11.24315 0,11.24316 51.84343,0 51.84343,0 0,8.74467 0,8.74468 -64.33582,0 -64.335831,0 0,-19.98783 z"
       id="path5307"
       inkscape:connector-curvature="0"
       transform="translate(11.160292,45.990039)" />
    <path
       style="fill:#483e37;fill-opacity:1;fill-rule:nonzero;stroke:#483e37;stroke-width:1.99878299;stroke-linecap:butt;stroke-linejoin:miter;stroke-miterlimit:4;stroke-opacity:1;stroke-dasharray:none;stroke-dashoffset:0"
       d="m 247.8218,497.86969 0,-9.3693 59.33887,0 59.33887,0 0,9.3693 0,9.36929 -59.33887,0 -59.33887,0 0,-9.36929 z"
       id="path5309"
       inkscape:connector-curvature="0"
       transform="translate(11.160292,45.990039)" />
  </g>
  <g
     inkscape:groupmode="layer"
     id="layer2"
     inkscape:label="Layer"
     transform="translate(-11.160292,-45.990039)" />
</svg>
