<?xml version="1.0" encoding="UTF-8" standalone="no"?>
<!-- Created with Inkscape (http://www.inkscape.org/) -->

<svg
   xmlns:dc="http://purl.org/dc/elements/1.1/"
   xmlns:cc="http://creativecommons.org/ns#"
   xmlns:rdf="http://www.w3.org/1999/02/22-rdf-syntax-ns#"
   xmlns:svg="http://www.w3.org/2000/svg"
   xmlns="http://www.w3.org/2000/svg"
   xmlns:sodipodi="http://sodipodi.sourceforge.net/DTD/sodipodi-0.dtd"
   xmlns:inkscape="http://www.inkscape.org/namespaces/inkscape"
   width="397.42554"
   height="680.83362"
   id="svg2"
   version="1.1"
   inkscape:version="0.48.4 r9939"
   sodipodi:docname="trojak side.svg">
  <defs
     id="defs4" />
  <sodipodi:namedview
     id="base"
     pagecolor="#ffffff"
     bordercolor="#666666"
     borderopacity="1.0"
     inkscape:pageopacity="0.0"
     inkscape:pageshadow="2"
     inkscape:zoom="0.9339223"
     inkscape:cx="227.30278"
     inkscape:cy="368.06979"
     inkscape:document-units="px"
     inkscape:current-layer="layer1"
     showgrid="false"
     inkscape:window-width="1366"
     inkscape:window-height="706"
     inkscape:window-x="-8"
     inkscape:window-y="-8"
     inkscape:window-maximized="1"
     fit-margin-left="10"
     fit-margin-top="10"
     fit-margin-right="10"
     fit-margin-bottom="10" />
  <metadata
     id="metadata7">
    <rdf:RDF>
      <cc:Work
         rdf:about="">
        <dc:format>image/svg+xml</dc:format>
        <dc:type
           rdf:resource="http://purl.org/dc/dcmitype/StillImage" />
        <dc:title></dc:title>
      </cc:Work>
    </rdf:RDF>
  </metadata>
  <g
     inkscape:label="Layer 1"
     inkscape:groupmode="layer"
     id="layer1"
     transform="translate(-19.793596,21.767479)">
    <path
       style="fill:#ffccaa;fill-opacity:1;fill-rule:nonzero;stroke:#ffccaa;stroke-width:1.71320462;stroke-linecap:butt;stroke-linejoin:miter;stroke-miterlimit:4;stroke-opacity:1;stroke-dasharray:none;stroke-dashoffset:0"
       d="m 314.39971,299.88359 0,-12.31366 10.70753,0 10.70753,0 0,-11.77828 0,-11.77828 13.38441,0 13.38441,0 0,-26.76882 0,-26.76882 6.95989,0 6.9599,0 0,-10.1347 0,-10.13469 -10.97522,-0.30515 -10.97522,-0.30514 -0.30128,-12.53692 -0.30128,-12.53691 -8.26474,-0.31212 -8.26474,-0.31212 -0.28608,-27.03651 -0.28607,-27.03651 -10.68914,0 -10.68914,0 0,4.81838 0,4.81839 -17.66743,0 -17.66742,0 0,-5.88914 0,-5.88914 -12.31366,0 -12.31366,0 0,13.91979 0,13.91978 -4.81838,0 -4.81839,0 0,14.45517 0,14.45516 -5.35377,0 -5.35376,0 0,12.31366 0,12.31366 -5.35376,0 -5.35377,0 0,36.4056 0,36.4056 -9.1014,0 -9.1014,0 0,11.2429 0,11.24291 14.45517,0 14.45516,0 0,13.21511 0,13.21511 20.07662,0.70165 c 11.04214,0.38591 28.87017,0.70301 39.61785,0.70467 l 19.54124,0.003 0,-12.31366 z m -33.19334,-138.6625 0,-28.91032 14.99054,0 14.99055,0 0,28.91032 0,28.91033 -14.99055,0 -14.99054,0 0,-28.91033 z"
       id="path4497"
       inkscape:connector-curvature="0" />
    <path
       style="fill:#000000;fill-opacity:1;fill-rule:nonzero;stroke:#000000;stroke-width:3.42640924;stroke-linecap:butt;stroke-linejoin:miter;stroke-miterlimit:4;stroke-opacity:1;stroke-dasharray:none;stroke-dashoffset:0"
       d="m 125.43788,446.9489 0.021,-13.38441 -15.44375,-0.62754 -15.443756,-0.62753 0.98859,-45.41691 c 0.53724,-24.68133 0.10522,-44.8806 0.98859,-44.87946 0.88338,10e-4 -0.53537,-3.04958 -0.53537,-4.81633 0,-2.49842 3.39072,-1.07075 13.384406,-1.07075 l 12.84903,0 0,38.54711 0,38.5471 13.91979,0 13.91979,0 0,23.55657 0,23.55656 -12.33462,0 -12.33462,0 0.021,-13.38441 -3e-5,0 z"
       id="path4460"
       inkscape:connector-curvature="0"
       sodipodi:nodetypes="ccccscsscccccccccccc" />
    <path
       style="fill:#483e37;fill-opacity:1;fill-rule:nonzero;stroke:#483e37;stroke-width:1.71320462;stroke-linecap:butt;stroke-linejoin:miter;stroke-miterlimit:4;stroke-opacity:1;stroke-dasharray:none;stroke-dashoffset:0"
       d="m 178.78234,600.81609 0,-22.48581 67.99281,0 67.9928,0 0,11.77828 0,11.77828 14.99054,0 14.99054,0 0,10.70753 0,10.70753 -82.98334,0 -82.98335,0 0,-22.48581 z"
       id="path4477"
       inkscape:connector-curvature="0" />
    <path
       style="fill:#000000;fill-opacity:1;fill-rule:nonzero;stroke:#000000;stroke-width:3.42640924;stroke-linecap:butt;stroke-linejoin:miter;stroke-miterlimit:4;stroke-opacity:1;stroke-dasharray:none;stroke-dashoffset:0"
       d="m 124.38809,518.15397 0,-34.2641 13.91979,0 13.91979,0 0,34.2641 0,34.26409 -13.91979,0 -13.91979,0 0,-34.26409 z"
       id="path4458"
       inkscape:connector-curvature="0" />
    <path
       style="fill:#003380;fill-opacity:1;fill-rule:nonzero;stroke:#003380;stroke-width:2.42283726;stroke-linecap:butt;stroke-linejoin:miter;stroke-miterlimit:4;stroke-opacity:1;stroke-dasharray:none;stroke-dashoffset:0"
       d="m 153.89476,517.3408 0,-34.07114 66.62803,0 66.62802,0 0,-11.35705 0,-11.35705 28.01406,0 28.01405,0 0,45.42819 0,45.4282 -94.64208,0 -94.64208,0 0,-34.07115 z"
       id="path4456"
       inkscape:connector-curvature="0" />
    <path
       style="fill:#217821;fill-opacity:1;fill-rule:nonzero;stroke:#217821;stroke-width:2.42283726;stroke-linecap:butt;stroke-linejoin:miter;stroke-miterlimit:4;stroke-opacity:1;stroke-dasharray:none;stroke-dashoffset:0"
       d="m 151.3203,435.20686 0.30305,-23.86518 -13.24989,-0.43753 -13.24989,-0.43752 0,-37.73892 0,-37.73892 13.24989,-0.43753 13.24989,-0.43752 0.44776,-10.22135 0.44776,-10.22134 40.79461,0 40.79462,0 0.40014,47.32104 0.40014,47.32104 14.00703,0.43539 14.00703,0.43539 0,12.8145 0,12.8145 12.93501,0 12.93503,0 -0.44227,11.73562 -0.44226,11.73562 -68.44536,0.39394 -68.44535,0.39395 0.30306,-23.86518 z"
       id="path3938"
       inkscape:connector-curvature="0" />
    <path
       style="fill:#ffccaa;fill-opacity:1;fill-rule:nonzero;stroke:#ffccaa;stroke-width:2.42283726;stroke-linecap:butt;stroke-linejoin:miter;stroke-miterlimit:4;stroke-opacity:1;stroke-dasharray:none;stroke-dashoffset:0"
       d="m 288.57044,336.38515 c -2.21817,7.34068 4.92311,24.0408 -4.54282,24.13373 -6.72017,2.38303 -23.39491,-5.22407 -22.7141,4.63746 0.0628,13.64706 -0.12579,27.39825 0.0947,40.98002 9.43266,0 18.86532,0 28.29798,0 2.30674,8.89669 1.75975,18.22696 1.98748,27.25692 23.74101,-0.71128 47.70209,1.44066 71.31281,-1.08838 8.5975,-3.05877 2.78824,-15.25931 4.4955,-21.86232 2.96721,-6.26039 17.36897,-1.08624 24.89086,-2.79195 2.04574,-7.21226 0.2527,-18.02816 0.85178,-26.59442 -2.26152,-6.60652 5.61727,-23.36953 -6.15173,-20.53733 -7.38647,-1.66763 -23.27192,5.16373 -19.59091,-7.57137 0.24717,-9.30486 2.77699,-21.04066 -10.69456,-16.657 -22.73247,0.0629 -45.56985,-0.12591 -68.23694,0.0946 z"
       id="path3162"
       inkscape:connector-curvature="0" />
    <path
       style="fill:#000000;fill-opacity:1;fill-rule:nonzero;stroke:#000000;stroke-width:0.13039286;stroke-linecap:butt;stroke-linejoin:miter;stroke-miterlimit:4;stroke-opacity:1;stroke-dasharray:none;stroke-dashoffset:0"
       d="m 281.16897,146.58532 0,-13.69124 14.99518,0 14.9952,0 0,13.69124 0,13.69127 -14.9952,0 -14.99518,0 0,-13.69127 z"
       id="path4294"
       inkscape:connector-curvature="0" />
    <path
       style="fill:#000000;fill-opacity:1;fill-rule:nonzero;stroke:#000000;stroke-width:0.1436429;stroke-linecap:butt;stroke-linejoin:miter;stroke-miterlimit:4;stroke-opacity:1;stroke-dasharray:none;stroke-dashoffset:0"
       d="m 281.1756,174.15829 0,-15.83093 14.98855,0 14.98857,0 0,15.83093 0,15.83094 -14.98857,0 -14.98855,0 0,-15.83094 z"
       id="path4296"
       inkscape:connector-curvature="0" />
    <path
       style="fill:none;stroke:#000000;stroke-width:1px;stroke-linecap:butt;stroke-linejoin:miter;stroke-opacity:1"
       d="m 123.51905,334.24944 0,-48.34068 111.01777,0.37857 0,25.69806 26.35779,0 0.18928,23.77275 26.26035,0 -0.15681,-23.23736 81.66393,0.37857 -0.22175,22.92375 26.20097,0.18928 -0.37858,23.62152 28.50486,0.56785 -0.18928,73.4709 -29.98108,0 0,25.69807 -23.02119,0 0,118.3182 -25.69807,0 0,22.48581 26.76882,0 0,49.25463 -220.03972,0 0,-95.83238 -26.76882,0 0,-70.66969 27.03094,-0.18928 c -0.0892,-7.76876 0.20009,-17.71507 0.11089,-22.00981 l -26.79572,0.18928 0.18928,-27.24483 -30.489556,0.37857 0.37857,-99.64497 z"
       id="path4641"
       inkscape:connector-curvature="0"
       sodipodi:nodetypes="ccccccccccccccccccccccccccccccccc" />
    <path
       style="fill:none;stroke:#000000;stroke-width:1px;stroke-linecap:butt;stroke-linejoin:miter;stroke-opacity:1"
       d="m 123.49214,338.37565 0,73.88195 27.71525,-0.18928 -0.75714,47.26993 3.74763,0 c 45.1185,0.0653 90.05776,0.0325 135.85571,0.0325 l 0,-25.22206 -26.29282,0 0,-26.70945 -28.91033,0 0,-95.25896 -84.0541,0 0,21.91238 -27.3042,0 z"
       id="path4643"
       inkscape:connector-curvature="0"
       sodipodi:nodetypes="ccccccccccccccc" />
    <path
       style="fill:none;stroke:#000000;stroke-width:1px;stroke-linecap:butt;stroke-linejoin:miter;stroke-opacity:1"
       d="m 290.1835,434.05679 -0.18928,-26.61758 -28.91033,0 0,-47.6485 26.23345,0 0,-24.09195 80.84184,0 0,24.09195 26.23344,0 0,48.18388 -26.76882,0 0,26.23344 -77.09421,0"
       id="path4648"
       inkscape:connector-curvature="0"
       sodipodi:nodetypes="ccccccccccccc" />
    <path
       style="fill:none;stroke:#000000;stroke-width:1px;stroke-linecap:butt;stroke-linejoin:miter;stroke-opacity:1"
       d="m 177.56516,577.15354 0,47.64851 168.64358,0 0,-24.09194 -30.51645,0 0,-23.55657 z"
       id="path3138"
       inkscape:connector-curvature="0" />
    <path
       style="fill:none;stroke:#000000;stroke-width:1px;stroke-linecap:butt;stroke-linejoin:miter;stroke-opacity:1"
       d="m 152.93785,485.60417 0,66.92206 190.59401,0 0,-93.15551 -50.86076,0 -6.42452,0 0,23.55657 -134.91486,0 1.70355,0.0269 z"
       id="path3140"
       inkscape:connector-curvature="0"
       sodipodi:nodetypes="cccccccccc" />
    <path
       style="fill:#000000;fill-opacity:1;fill-rule:nonzero;stroke:#000000;stroke-width:3.42640924;stroke-linecap:butt;stroke-linejoin:miter;stroke-miterlimit:4;stroke-opacity:1;stroke-dasharray:none;stroke-dashoffset:0"
       d="m 124.38809,309.35715 0,-22.48581 54.6084,0 54.60839,0 0,11.77828 0,11.77829 -41.75936,0 -41.75936,0 0,10.70752 0,10.70753 -12.84903,0 -12.84904,0 0,-22.48581 z"
       id="path4462"
       inkscape:connector-curvature="0" />
    <path
       style="fill:#000000;fill-opacity:1;fill-rule:nonzero;stroke:#000000;stroke-width:3.42640924;stroke-linecap:butt;stroke-linejoin:miter;stroke-miterlimit:4;stroke-opacity:1;stroke-dasharray:none;stroke-dashoffset:0"
       d="m 261.97984,649.32162 -109.75217,-0.57469 0,-47.07165 0,-47.07162 95.83238,-0.55743 95.83238,-0.55742 0.57635,-47.6485 0.57635,-47.64851 -26.8098,0 -26.80979,0 0,-11.77828 0,-11.77828 38.5471,0 38.54711,0 0,-12.84903 0,-12.84904 13.91979,0 13.91978,0 0,-23.55656 0,-23.55657 12.84904,0 12.84903,0 0,35.33485 0,35.33484 -14.99054,0 -14.99054,0 0,12.84904 0,12.84903 -11.77828,0 -11.77828,0 0,58.89141 0,58.89141 -12.84904,0 -12.84903,0 0,11.77828 0,11.77829 -12.84904,0 -12.84903,0 0,-11.77829 0,-11.77828 -70.66969,0 -70.66969,0 0,24.62732 0,24.62731 85.66023,0 85.66023,0 0,-11.77828 0,-11.77828 11.64864,0 11.64863,0 -0.94111,25.16689 c -0.50643,13.54283 -0.9411,21.72078 -0.9411,21.43495 0,-0.28585 -46.17622,1.36318 -106.53991,1.04709 z"
       id="path4471"
       inkscape:connector-curvature="0"
       sodipodi:nodetypes="ccccccccccccccccccccccccccccccccccccccccccccccccccsscc" />
    <path
       style="fill:#000000;fill-opacity:1;fill-rule:nonzero;stroke:#000000;stroke-width:3.42640924;stroke-linecap:butt;stroke-linejoin:miter;stroke-miterlimit:4;stroke-opacity:1;stroke-dasharray:none;stroke-dashoffset:0"
       d="m 265.72747,420.71545 0,-11.77828 11.77828,0 11.77829,0 0,11.77828 0,11.77828 -11.77829,0 -11.77828,0 0,-11.77828 z"
       id="path4473"
       inkscape:connector-curvature="0" />
    <path
       style="fill:#000000;fill-opacity:1;fill-rule:nonzero;stroke:#000000;stroke-width:3.42640924;stroke-linecap:butt;stroke-linejoin:miter;stroke-miterlimit:4;stroke-opacity:1;stroke-dasharray:none;stroke-dashoffset:0"
       d="m 152.22767,471.04084 0,-10.70753 66.38667,0 66.38668,0 0,10.70753 0,10.70753 -66.38668,0 -66.38667,0 0,-10.70753 z"
       id="path4475"
       inkscape:connector-curvature="0" />
    <path
       style="fill:#000000;fill-opacity:1;fill-rule:nonzero;stroke:#000000;stroke-width:0.60570931;stroke-linecap:butt;stroke-linejoin:miter;stroke-miterlimit:4;stroke-opacity:1;stroke-dasharray:none;stroke-dashoffset:0"
       d="m 236.1478,397.79382 c -0.12959,-5.04916 -0.34528,-26.25845 -0.4793,-47.13176 l -0.24369,-37.95147 12.29972,0 12.29971,0 0.24133,2.55534 c 0.13274,1.40543 0.24255,6.68646 0.24403,11.73561 l 0.003,9.18029 13.06061,0 13.06061,0 0,11.54633 0,11.54633 -13.06061,0 -13.06061,0 0,23.84981 0,23.8498 -12.06443,0 -12.82158,-0.37857 -0.23562,-9.18028 0.75714,0.37857 z"
       id="path4483"
       inkscape:connector-curvature="0"
       sodipodi:nodetypes="cscccsccccccccccccccc" />
    <path
       style="fill:#000000;fill-opacity:1;fill-rule:nonzero;stroke:#000000;stroke-width:0.60570931;stroke-linecap:butt;stroke-linejoin:miter;stroke-miterlimit:4;stroke-opacity:1;stroke-dasharray:none;stroke-dashoffset:0"
       d="m 287.76921,324.03844 0,-11.00769 40.22288,0.26791 c 22.12259,0.14735 40.24011,0.28826 40.26116,0.31313 0.0211,0.0249 -0.0436,4.85777 -0.14371,10.73978 l -0.18198,10.69455 -40.07917,0 -40.07918,0 0,-11.00768 z"
       id="path4485"
       inkscape:connector-curvature="0" />
    <path
       style="fill:#000000;fill-opacity:1;fill-rule:nonzero;stroke:#000000;stroke-width:0.60570931;stroke-linecap:butt;stroke-linejoin:miter;stroke-miterlimit:4;stroke-opacity:1;stroke-dasharray:none;stroke-dashoffset:0"
       d="m 368.78283,347.91744 0,-11.35705 12.68204,0 12.68204,0 0,6.7548 c 0,3.71514 -0.11136,8.82581 -0.24746,11.35705 l -0.24747,4.60225 -12.43457,0 -12.43458,0 0,-11.35705 z"
       id="path4487"
       inkscape:connector-curvature="0" />
    <path
       style="fill:#c8ab37;fill-opacity:1;fill-rule:nonzero;stroke:#c8ab37;stroke-width:1.71320462;stroke-linecap:butt;stroke-linejoin:miter;stroke-miterlimit:4;stroke-opacity:1;stroke-dasharray:none;stroke-dashoffset:0"
       d="m 204.11217,272.04402 0,-11.24291 9.63677,0 9.63678,0 0,-36.94097 0,-36.94098 5.35376,0 5.35377,0 0,-11.77828 0,-11.77828 5.35376,0 5.35377,0 0,-14.45516 0,-14.45517 4.28301,0 4.28301,0 0,-13.91979 0,-13.91978 13.91979,0 13.91978,0 0,5.35376 0,5.35377 16.59667,0 16.59667,0 0,-4.81839 0,-4.81839 10.67458,0 10.67457,0 0.30064,-13.116719 0.30065,-13.11673 15.25822,-0.29709 15.25823,-0.29708 0,-12.819637 0,-12.819635 14.45517,0 14.45516,0 0,-13.384411 0,-13.384411 -14.45516,0 -14.45517,0 0,-12.313659 0,-12.313658 -12.84903,0 -12.84904,0 0,-14.455164 0,-14.455164 -14.45516,0 -14.45516,0 0,14.455164 0,14.455164 -14.45517,0 -14.45516,0 0,-14.455164 0,-14.455164 -12.81795,0 -12.81796,0 -0.29876,14.187476 -0.29878,14.187476 -12.58134,0.301668 -12.58135,0.30167 0,-12.883016 0,-12.883015 -15.52592,0 -15.52591,0 0,12.849035 0,12.849034 -14.45517,0 -14.45516,0 0,-12.313658 0,-12.313658 -13.91979,0 -13.91979,0 0,12.313658 0,12.313658 -14.45516,0 -14.45516,0 0,11.778282 0,11.778282 -14.99054,0 -14.990542,0 0,13.919787 0,13.919788 -14.45517,0 -14.45516,0 0,13.919787 0,13.919785 14.49262,0 14.49263,0 -0.30516,10.97522 -0.30514,10.975219 -14.18748,0.29877 -14.18747,0.29876 0,13.35334 0,13.35333 -12.84904,0 -12.84903,0 0,13.38441 0,13.38441 13.91979,0 13.91978,0 0,12.31366 0,12.31365 -13.91978,0 -13.91979,0 0,12.84904 0,12.84903 13.38441,0 13.38441,0 0,11.77829 0,11.77828 13.91979,0 13.91979,0 0,13.38441 0,13.38441 20.879682,0 20.87968,0 0,11.77828 0,11.77828 38.5471,0 38.54711,0 0,-11.2429 z"
       id="path4495"
       inkscape:connector-curvature="0" />
  </g>
  <g
     inkscape:groupmode="layer"
     id="layer2"
     inkscape:label="Layer"
     transform="translate(-19.793596,21.767479)" />
</svg>
