<?xml version="1.0" encoding="UTF-8" standalone="no"?>
<!-- Created with Inkscape (http://www.inkscape.org/) -->

<svg
   xmlns:dc="http://purl.org/dc/elements/1.1/"
   xmlns:cc="http://creativecommons.org/ns#"
   xmlns:rdf="http://www.w3.org/1999/02/22-rdf-syntax-ns#"
   xmlns:svg="http://www.w3.org/2000/svg"
   xmlns="http://www.w3.org/2000/svg"
   xmlns:sodipodi="http://sodipodi.sourceforge.net/DTD/sodipodi-0.dtd"
   xmlns:inkscape="http://www.inkscape.org/namespaces/inkscape"
   width="427.80096"
   height="654.01251"
   id="svg2"
   version="1.1"
   inkscape:version="0.48.4 r9939"
   sodipodi:docname="trojak side.zip">
  <defs
     id="defs4" />
  <sodipodi:namedview
     id="base"
     pagecolor="#ffffff"
     bordercolor="#666666"
     borderopacity="1.0"
     inkscape:pageopacity="0.0"
     inkscape:pageshadow="2"
     inkscape:zoom="0.9339223"
     inkscape:cx="144.53364"
     inkscape:cy="316.18209"
     inkscape:document-units="px"
     inkscape:current-layer="layer1"
     showgrid="false"
     inkscape:window-width="1366"
     inkscape:window-height="706"
     inkscape:window-x="-8"
     inkscape:window-y="-8"
     inkscape:window-maximized="1"
     fit-margin-left="10"
     fit-margin-top="10"
     fit-margin-right="10"
     fit-margin-bottom="10" />
  <metadata
     id="metadata7">
    <rdf:RDF>
      <cc:Work
         rdf:about="">
        <dc:format>image/svg+xml</dc:format>
        <dc:type
           rdf:resource="http://purl.org/dc/dcmitype/StillImage" />
        <dc:title></dc:title>
      </cc:Work>
    </rdf:RDF>
  </metadata>
  <g
     inkscape:label="Layer 1"
     inkscape:groupmode="layer"
     id="layer1"
     transform="translate(-11.454369,-2.6803192)">
    <path
       style="fill:#3771c8;fill-opacity:1;fill-rule:nonzero;stroke:#3771c8;stroke-width:7.58802366;stroke-linecap:butt;stroke-linejoin:miter;stroke-miterlimit:4;stroke-opacity:1;stroke-dasharray:none;stroke-dashoffset:0"
       d="m 324.16759,552.1443 26.87836,-0.45076 0,-46.15039 0,-46.1504 -37.69483,0 c -42.95125,0 -39.53311,-1.25452 -39.53311,14.50944 l 0,9.71893 -68.1423,0 -68.1423,0 0,34.82829 0,34.82828 79.87792,-0.34132 c 43.93285,-0.18772 91.97317,-0.54416 106.75626,-0.79207 z"
       id="path4789"
       inkscape:connector-curvature="0" />
    <path
       style="fill:#502d16;fill-opacity:1;fill-rule:nonzero;stroke:#502d16;stroke-width:4.52642155;stroke-linecap:butt;stroke-linejoin:miter;stroke-miterlimit:4;stroke-opacity:1;stroke-dasharray:none;stroke-dashoffset:0"
       d="m 164.26221,601.40102 0,-22.49125 67.47375,0 67.47379,0 0,11.46611 0,11.46611 13.67115,0 13.67119,0 0,11.02515 0,11.02516 -81.14494,0 -81.14494,0 0,-22.49128 z"
       id="path5226"
       inkscape:connector-curvature="0" />
    <path
       style="fill:#000000;fill-opacity:1;fill-rule:nonzero;stroke:#000000;stroke-width:0.12473501;stroke-linecap:butt;stroke-linejoin:miter;stroke-miterlimit:4;stroke-opacity:1;stroke-dasharray:none;stroke-dashoffset:0"
       d="m 327.32619,612.83045 0,-12.47353 13.7209,0 13.72083,0 0,12.47353 0,12.47351 -13.72083,0 -13.7209,0 0,-12.47351 z"
       id="path4334"
       inkscape:connector-curvature="0" />
    <g
       id="g5104"
       transform="matrix(14.415353,0,0,14.415353,-647.58014,-168.67391)">
      <path
         inkscape:connector-curvature="0"
         id="path4306"
         d="m 69.403574,35.812067 0,-0.865293 0.951822,0 0.951823,0 0,0.865293 0,0.865293 -0.951823,0 -0.951822,0 0,-0.865293 z"
         style="fill:#000000;fill-opacity:1;fill-rule:nonzero;stroke:#000000;stroke-width:0.00865293;stroke-linecap:butt;stroke-linejoin:miter;stroke-miterlimit:4;stroke-opacity:1;stroke-dasharray:none;stroke-dashoffset:0" />
      <path
         inkscape:connector-curvature="0"
         id="path4354"
         d="m 60.008785,35.812067 0,-0.865293 0.995087,0 0.995088,0 0,0.865293 0,0.865293 -0.995088,0 -0.995087,0 0,-0.865293 z"
         style="fill:#000000;fill-opacity:1;fill-rule:nonzero;stroke:#000000;stroke-width:0.00865293;stroke-linecap:butt;stroke-linejoin:miter;stroke-miterlimit:4;stroke-opacity:1;stroke-dasharray:none;stroke-dashoffset:0" />
      <path
         inkscape:connector-curvature="0"
         id="path4356"
         d="m 61.941521,35.812067 0,-0.865293 0.951823,0 0.951822,0 0,0.865293 0,0.865293 -0.951822,0 -0.951823,0 0,-0.865293 z"
         style="fill:#000000;fill-opacity:1;fill-rule:nonzero;stroke:#000000;stroke-width:0.00865293;stroke-linecap:butt;stroke-linejoin:miter;stroke-miterlimit:4;stroke-opacity:1;stroke-dasharray:none;stroke-dashoffset:0" />
      <path
         inkscape:connector-curvature="0"
         id="path4378"
         d="m 50.609856,35.812067 0,-0.865293 0.995087,0 0.995088,0 0,0.865293 0,0.865293 -0.995088,0 -0.995087,0 0,-0.865293 z"
         style="fill:#000000;fill-opacity:1;fill-rule:nonzero;stroke:#000000;stroke-width:0.00865293;stroke-linecap:butt;stroke-linejoin:miter;stroke-miterlimit:4;stroke-opacity:1;stroke-dasharray:none;stroke-dashoffset:0" />
    </g>
    <path
       style="fill:#000000;fill-opacity:1;fill-rule:nonzero;stroke:#000000;stroke-width:0.12473504;stroke-linecap:butt;stroke-linejoin:miter;stroke-miterlimit:4;stroke-opacity:1;stroke-dasharray:none;stroke-dashoffset:0"
       d="m 352.89688,421.16337 0,-12.4735 13.72085,0 13.72086,0 0,12.4735 0,12.4735 -13.72086,0 -13.72085,0 0,-12.4735 z"
       id="path4312"
       inkscape:connector-curvature="0" />
    <path
       style="fill:#000000;fill-opacity:1;fill-rule:nonzero;stroke:#000000;stroke-width:0.12473504;stroke-linecap:butt;stroke-linejoin:miter;stroke-miterlimit:4;stroke-opacity:1;stroke-dasharray:none;stroke-dashoffset:0"
       d="m 379.71491,421.16337 0,-12.4735 13.72085,0 13.72087,0 0,12.4735 0,12.4735 -13.72087,0 -13.72085,0 0,-12.4735 z"
       id="path4314"
       inkscape:connector-curvature="0" />
    <path
       style="fill:#000000;fill-opacity:1;fill-rule:nonzero;stroke:#000000;stroke-width:0.12473504;stroke-linecap:butt;stroke-linejoin:miter;stroke-miterlimit:4;stroke-opacity:1;stroke-dasharray:none;stroke-dashoffset:0"
       d="m 378.53295,421.16337 0,-12.4735 13.72085,0 13.72086,0 0,12.4735 0,12.4735 -13.72086,0 -13.72085,0 0,-12.4735 z"
       id="path4316"
       inkscape:connector-curvature="0" />
    <path
       style="fill:#000000;fill-opacity:1;fill-rule:nonzero;stroke:#000000;stroke-width:0.12473504;stroke-linecap:butt;stroke-linejoin:miter;stroke-miterlimit:4;stroke-opacity:1;stroke-dasharray:none;stroke-dashoffset:0"
       d="m 110.07553,421.16337 0,-12.4735 13.72087,0 13.72085,0 0,12.4735 0,12.4735 -13.72085,0 -13.72087,0 0,-12.4735 z"
       id="path4384"
       inkscape:connector-curvature="0" />
    <path
       style="fill:#000000;fill-opacity:1;fill-rule:nonzero;stroke:#000000;stroke-width:0.12473504;stroke-linecap:butt;stroke-linejoin:miter;stroke-miterlimit:4;stroke-opacity:1;stroke-dasharray:none;stroke-dashoffset:0"
       d="m 81.9788,421.16337 0,-12.4735 14.34453,0 14.34455,0 0,12.4735 0,12.4735 -14.34455,0 -14.34453,0 0,-12.4735 z"
       id="path4386"
       inkscape:connector-curvature="0" />
    <path
       style="fill:#000000;fill-opacity:1;fill-rule:nonzero;stroke:#000000;stroke-width:0.12473504;stroke-linecap:butt;stroke-linejoin:miter;stroke-miterlimit:4;stroke-opacity:1;stroke-dasharray:none;stroke-dashoffset:0"
       d="m 379.71491,397.46371 0,-12.47351 13.72085,0 13.72087,0 0,12.47351 0,12.4735 -13.72087,0 -13.72085,0 0,-12.4735 z"
       id="path4310"
       inkscape:connector-curvature="0" />
    <path
       style="fill:#000000;fill-opacity:1;fill-rule:nonzero;stroke:#000000;stroke-width:0.12473504;stroke-linecap:butt;stroke-linejoin:miter;stroke-miterlimit:4;stroke-opacity:1;stroke-dasharray:none;stroke-dashoffset:0"
       d="m 217.46768,397.46371 0,-12.47351 14.34453,0 14.34454,0 0,12.47351 0,12.4735 -14.34454,0 -14.34453,0 0,-12.4735 z"
       id="path4348"
       inkscape:connector-curvature="0" />
    <path
       style="fill:#000000;fill-opacity:1;fill-rule:nonzero;stroke:#000000;stroke-width:0.12473504;stroke-linecap:butt;stroke-linejoin:miter;stroke-miterlimit:4;stroke-opacity:1;stroke-dasharray:none;stroke-dashoffset:0"
       d="m 81.9788,397.46371 0,-12.47351 14.34453,0 14.34454,0 0,12.47351 0,12.4735 -14.34454,0 -14.34453,0 0,-12.4735 z"
       id="path4388"
       inkscape:connector-curvature="0" />
    <g
       id="g5110"
       transform="matrix(14.415353,0,0,14.415353,-647.58014,-167.42655)">
      <path
         inkscape:connector-curvature="0"
         id="path4308"
         d="m 71.263954,37.456124 0,-0.908557 0.951822,0 0.951823,0 0,0.908557 0,0.908558 -0.951823,0 -0.951822,0 0,-0.908558 z"
         style="fill:#000000;fill-opacity:1;fill-rule:nonzero;stroke:#000000;stroke-width:0.00865293;stroke-linecap:butt;stroke-linejoin:miter;stroke-miterlimit:4;stroke-opacity:1;stroke-dasharray:none;stroke-dashoffset:0" />
      <path
         inkscape:connector-curvature="0"
         id="path4352"
         d="m 60.008785,37.456124 0,-0.908557 0.995087,0 0.995088,0 0,0.908557 0,0.908558 -0.995088,0 -0.995087,0 0,-0.908558 z"
         style="fill:#000000;fill-opacity:1;fill-rule:nonzero;stroke:#000000;stroke-width:0.00865293;stroke-linecap:butt;stroke-linejoin:miter;stroke-miterlimit:4;stroke-opacity:1;stroke-dasharray:none;stroke-dashoffset:0" />
      <path
         inkscape:connector-curvature="0"
         id="path4390"
         d="m 50.609856,37.456124 0,-0.908557 0.995087,0 0.995088,0 0,0.908557 0,0.908558 -0.995088,0 -0.995087,0 0,-0.908558 z"
         style="fill:#000000;fill-opacity:1;fill-rule:nonzero;stroke:#000000;stroke-width:0.00865293;stroke-linecap:butt;stroke-linejoin:miter;stroke-miterlimit:4;stroke-opacity:1;stroke-dasharray:none;stroke-dashoffset:0" />
    </g>
    <path
       style="fill:#000000;fill-opacity:1;fill-rule:nonzero;stroke:#000000;stroke-width:0.12473504;stroke-linecap:butt;stroke-linejoin:miter;stroke-miterlimit:4;stroke-opacity:1;stroke-dasharray:none;stroke-dashoffset:0"
       d="m 350.53295,445.82712 0,-13.09719 13.72085,0 13.72086,0 0,13.09719 0,13.09718 -13.72086,0 -13.72085,0 0,-13.09718 z"
       id="path4318"
       inkscape:connector-curvature="0" />
    <path
       style="fill:#000000;fill-opacity:1;fill-rule:nonzero;stroke:#000000;stroke-width:0.12473504;stroke-linecap:butt;stroke-linejoin:miter;stroke-miterlimit:4;stroke-opacity:1;stroke-dasharray:none;stroke-dashoffset:0"
       d="m 326.91022,445.82712 0,-13.09719 13.72087,0 13.72085,0 0,13.09719 0,13.09718 -13.72085,0 -13.72087,0 0,-13.09718 z"
       id="path4340"
       inkscape:connector-curvature="0" />
    <path
       style="fill:#000000;fill-opacity:1;fill-rule:nonzero;stroke:#000000;stroke-width:0.12473504;stroke-linecap:butt;stroke-linejoin:miter;stroke-miterlimit:4;stroke-opacity:1;stroke-dasharray:none;stroke-dashoffset:0"
       d="m 300.27486,445.82712 0,-13.09719 13.72085,0 13.72086,0 0,13.09719 0,13.09718 -13.72086,0 -13.72085,0 0,-13.09718 z"
       id="path4342"
       inkscape:connector-curvature="0" />
    <path
       style="fill:#000000;fill-opacity:1;fill-rule:nonzero;stroke:#000000;stroke-width:0.12473504;stroke-linecap:butt;stroke-linejoin:miter;stroke-miterlimit:4;stroke-opacity:1;stroke-dasharray:none;stroke-dashoffset:0"
       d="m 272.02681,445.82712 0,-13.09719 14.34453,0 14.34453,0 0,13.09719 0,13.09718 -14.34453,0 -14.34453,0 0,-13.09718 z"
       id="path4344"
       inkscape:connector-curvature="0" />
    <path
       style="fill:#000000;fill-opacity:1;fill-rule:nonzero;stroke:#000000;stroke-width:0.12473504;stroke-linecap:butt;stroke-linejoin:miter;stroke-miterlimit:4;stroke-opacity:1;stroke-dasharray:none;stroke-dashoffset:0"
       d="m 110.07553,445.82712 0,-13.09719 13.72087,0 13.72085,0 0,13.09719 0,13.09718 -13.72085,0 -13.72087,0 0,-13.09718 z"
       id="path4392"
       inkscape:connector-curvature="0" />
    <path
       style="fill:#000000;fill-opacity:1;fill-rule:nonzero;stroke:#000000;stroke-width:0.12473504;stroke-linecap:butt;stroke-linejoin:miter;stroke-miterlimit:4;stroke-opacity:1;stroke-dasharray:none;stroke-dashoffset:0"
       d="m 327.71492,470.59144 0,-12.47352 13.72085,0 13.72086,0 0,12.47352 0,12.4735 -13.72086,0 -13.72085,0 0,-12.4735 z"
       id="path4320"
       inkscape:connector-curvature="0" />
    <path
       style="fill:#000000;fill-opacity:1;fill-rule:nonzero;stroke:#000000;stroke-width:0.12473504;stroke-linecap:butt;stroke-linejoin:miter;stroke-miterlimit:4;stroke-opacity:1;stroke-dasharray:none;stroke-dashoffset:0"
       d="m 136.75953,470.59144 0,-12.47352 13.72085,0 13.72087,0 0,12.47352 0,12.4735 -13.72087,0 -13.72085,0 0,-12.4735 z"
       id="path4394"
       inkscape:connector-curvature="0" />
    <path
       style="fill:#000000;fill-opacity:1;fill-rule:nonzero;stroke:#000000;stroke-width:0.12473504;stroke-linecap:butt;stroke-linejoin:miter;stroke-miterlimit:4;stroke-opacity:1;stroke-dasharray:none;stroke-dashoffset:0"
       d="m 163.64892,470.59144 0,-12.47352 13.72085,0 13.72087,0 0,12.47352 0,12.4735 -13.72087,0 -13.72085,0 0,-12.4735 z"
       id="path4396"
       inkscape:connector-curvature="0" />
    <path
       style="fill:#000000;fill-opacity:1;fill-rule:nonzero;stroke:#000000;stroke-width:0.12473504;stroke-linecap:butt;stroke-linejoin:miter;stroke-miterlimit:4;stroke-opacity:1;stroke-dasharray:none;stroke-dashoffset:0"
       d="m 190.46697,470.59144 0,-12.47352 13.72085,0 13.72087,0 0,12.47352 0,12.4735 -13.72087,0 -13.72085,0 0,-12.4735 z"
       id="path4398"
       inkscape:connector-curvature="0" />
    <path
       style="fill:#000000;fill-opacity:1;fill-rule:nonzero;stroke:#000000;stroke-width:0.12473504;stroke-linecap:butt;stroke-linejoin:miter;stroke-miterlimit:4;stroke-opacity:1;stroke-dasharray:none;stroke-dashoffset:0"
       d="m 217.46768,470.59144 0,-12.47352 14.34453,0 14.34454,0 0,12.47352 0,12.4735 -14.34454,0 -14.34453,0 0,-12.4735 z"
       id="path4400"
       inkscape:connector-curvature="0" />
    <path
       style="fill:#000000;fill-opacity:1;fill-rule:nonzero;stroke:#000000;stroke-width:0.12473504;stroke-linecap:butt;stroke-linejoin:miter;stroke-miterlimit:4;stroke-opacity:1;stroke-dasharray:none;stroke-dashoffset:0"
       d="m 245.32875,470.59144 0,-12.47352 13.72087,0 13.72085,0 0,12.47352 0,12.4735 -13.72085,0 -13.72087,0 0,-12.4735 z"
       id="path4402"
       inkscape:connector-curvature="0" />
    <path
       style="fill:#000000;fill-opacity:1;fill-rule:nonzero;stroke:#000000;stroke-width:0.12473504;stroke-linecap:butt;stroke-linejoin:miter;stroke-miterlimit:4;stroke-opacity:1;stroke-dasharray:none;stroke-dashoffset:0"
       d="m 327.71492,495.09747 0,-12.47352 13.72085,0 13.72086,0 0,12.47352 0,12.4735 -13.72086,0 -13.72085,0 0,-12.4735 z"
       id="path4322"
       inkscape:connector-curvature="0" />
    <path
       style="fill:#000000;fill-opacity:1;fill-rule:nonzero;stroke:#000000;stroke-width:0.12473504;stroke-linecap:butt;stroke-linejoin:miter;stroke-miterlimit:4;stroke-opacity:1;stroke-dasharray:none;stroke-dashoffset:0"
       d="m 109.38918,495.09747 0,-12.47352 13.72086,0 13.72085,0 0,12.47352 0,12.4735 -13.72085,0 -13.72086,0 0,-12.4735 z"
       id="path4404"
       inkscape:connector-curvature="0" />
    <path
       style="fill:#000000;fill-opacity:1;fill-rule:nonzero;stroke:#000000;stroke-width:0.12473504;stroke-linecap:butt;stroke-linejoin:miter;stroke-miterlimit:4;stroke-opacity:1;stroke-dasharray:none;stroke-dashoffset:0"
       d="m 327.71491,518.79713 0,-12.47351 13.72085,0 13.72087,0 0,12.47351 0,12.4735 -13.72087,0 -13.72085,0 0,-12.4735 z"
       id="path4324"
       inkscape:connector-curvature="0" />
    <path
       style="fill:#000000;fill-opacity:1;fill-rule:nonzero;stroke:#000000;stroke-width:0.12473504;stroke-linecap:butt;stroke-linejoin:miter;stroke-miterlimit:4;stroke-opacity:1;stroke-dasharray:none;stroke-dashoffset:0"
       d="m 109.38918,518.79713 0,-12.47351 13.72086,0 13.72085,0 0,12.47351 0,12.4735 -13.72085,0 -13.72086,0 0,-12.4735 z"
       id="path4406"
       inkscape:connector-curvature="0" />
    <path
       style="fill:#000000;fill-opacity:1;fill-rule:nonzero;stroke:#000000;stroke-width:0.12473504;stroke-linecap:butt;stroke-linejoin:miter;stroke-miterlimit:4;stroke-opacity:1;stroke-dasharray:none;stroke-dashoffset:0"
       d="m 327.71491,541.73146 0,-12.4735 13.72085,0 13.72087,0 0,12.4735 0,12.47351 -13.72087,0 -13.72085,0 0,-12.47351 z"
       id="path4326"
       inkscape:connector-curvature="0" />
    <path
       style="fill:#000000;fill-opacity:1;fill-rule:nonzero;stroke:#000000;stroke-width:0.12473504;stroke-linecap:butt;stroke-linejoin:miter;stroke-miterlimit:4;stroke-opacity:1;stroke-dasharray:none;stroke-dashoffset:0"
       d="m 109.38918,541.73146 0,-12.4735 13.72086,0 13.72085,0 0,12.4735 0,12.47351 -13.72085,0 -13.72086,0 0,-12.47351 z"
       id="path4408"
       inkscape:connector-curvature="0" />
    <path
       style="fill:#000000;fill-opacity:1;fill-rule:nonzero;stroke:#000000;stroke-width:0.1294879;stroke-linecap:butt;stroke-linejoin:miter;stroke-miterlimit:4;stroke-opacity:1;stroke-dasharray:none;stroke-dashoffset:0"
       d="m 326.51523,564.86815 0,-12.47113 14.78922,0 14.78922,0 0,12.47113 0,12.47112 -14.78922,0 -14.78922,0 0,-12.47112 z"
       id="path4330"
       inkscape:connector-curvature="0" />
    <path
       style="fill:#000000;fill-opacity:1;fill-rule:nonzero;stroke:#000000;stroke-width:0.12473504;stroke-linecap:butt;stroke-linejoin:miter;stroke-miterlimit:4;stroke-opacity:1;stroke-dasharray:none;stroke-dashoffset:0"
       d="m 136.75953,566.05481 0,-12.47351 13.72085,0 13.72087,0 0,12.47351 0,12.4735 -13.72087,0 -13.72085,0 0,-12.4735 z"
       id="path4410"
       inkscape:connector-curvature="0" />
    <path
       style="fill:#000000;fill-opacity:1;fill-rule:nonzero;stroke:#000000;stroke-width:0.12473504;stroke-linecap:butt;stroke-linejoin:miter;stroke-miterlimit:4;stroke-opacity:1;stroke-dasharray:none;stroke-dashoffset:0"
       d="m 163.64892,566.05481 0,-12.47351 13.72085,0 13.72087,0 0,12.47351 0,12.4735 -13.72087,0 -13.72085,0 0,-12.4735 z"
       id="path4412"
       inkscape:connector-curvature="0" />
    <path
       style="fill:#000000;fill-opacity:1;fill-rule:nonzero;stroke:#000000;stroke-width:0.12473504;stroke-linecap:butt;stroke-linejoin:miter;stroke-miterlimit:4;stroke-opacity:1;stroke-dasharray:none;stroke-dashoffset:0"
       d="m 190.46697,566.05481 0,-12.47351 13.72085,0 13.72087,0 0,12.47351 0,12.4735 -13.72087,0 -13.72085,0 0,-12.4735 z"
       id="path4414"
       inkscape:connector-curvature="0" />
    <path
       style="fill:#000000;fill-opacity:1;fill-rule:nonzero;stroke:#000000;stroke-width:0.12473504;stroke-linecap:butt;stroke-linejoin:miter;stroke-miterlimit:4;stroke-opacity:1;stroke-dasharray:none;stroke-dashoffset:0"
       d="m 217.46768,566.05481 0,-12.47351 14.34453,0 14.34454,0 0,12.47351 0,12.4735 -14.34454,0 -14.34453,0 0,-12.4735 z"
       id="path4416"
       inkscape:connector-curvature="0" />
    <path
       style="fill:#000000;fill-opacity:1;fill-rule:nonzero;stroke:#000000;stroke-width:0.12473504;stroke-linecap:butt;stroke-linejoin:miter;stroke-miterlimit:4;stroke-opacity:1;stroke-dasharray:none;stroke-dashoffset:0"
       d="m 245.32875,566.05481 0,-12.47351 13.72087,0 13.72085,0 0,12.47351 0,12.4735 -13.72085,0 -13.72087,0 0,-12.4735 z"
       id="path4418"
       inkscape:connector-curvature="0" />
    <path
       style="fill:#000000;fill-opacity:1;fill-rule:nonzero;stroke:#000000;stroke-width:0.12473504;stroke-linecap:butt;stroke-linejoin:miter;stroke-miterlimit:4;stroke-opacity:1;stroke-dasharray:none;stroke-dashoffset:0"
       d="m 272.02681,566.05481 0,-12.47351 14.34453,0 14.34453,0 0,12.47351 0,12.4735 -14.34453,0 -14.34453,0 0,-12.4735 z"
       id="path4420"
       inkscape:connector-curvature="0" />
    <g
       id="g5186"
       transform="matrix(14.415353,0,0,14.415353,-647.58014,-169.29758)">
      <path
         inkscape:connector-curvature="0"
         id="path4332"
         d="m 65.695484,52.612542 0,-0.865293 0.995087,0 0.995088,0 0,0.865293 0,0.865294 -0.995088,0 -0.995087,0 0,-0.865294 z"
         style="fill:#000000;fill-opacity:1;fill-rule:nonzero;stroke:#000000;stroke-width:0.00865293;stroke-linecap:butt;stroke-linejoin:miter;stroke-miterlimit:4;stroke-opacity:1;stroke-dasharray:none;stroke-dashoffset:0" />
      <path
         inkscape:connector-curvature="0"
         id="path4422"
         d="m 54.410022,52.612542 0,-0.865293 0.951822,0 0.951823,0 0,0.865293 0,0.865294 -0.951823,0 -0.951822,0 0,-0.865294 z"
         style="fill:#000000;fill-opacity:1;fill-rule:nonzero;stroke:#000000;stroke-width:0.00865293;stroke-linecap:butt;stroke-linejoin:miter;stroke-miterlimit:4;stroke-opacity:1;stroke-dasharray:none;stroke-dashoffset:0" />
    </g>
    <path
       style="fill:#000000;fill-opacity:1;fill-rule:nonzero;stroke:#000000;stroke-width:0.12473501;stroke-linecap:butt;stroke-linejoin:miter;stroke-miterlimit:4;stroke-opacity:1;stroke-dasharray:none;stroke-dashoffset:0"
       d="m 136.75956,612.83045 0,-12.47353 13.72085,0 13.72086,0 0,12.47353 0,12.47351 -13.72086,0 -13.72085,0 0,-12.47351 z"
       id="path4424"
       inkscape:connector-curvature="0" />
    <g
       id="g5190"
       transform="matrix(14.415353,0,0,14.415353,-647.58014,-169.29758)">
      <path
         inkscape:connector-curvature="0"
         id="path4336"
         d="m 67.629722,55.900656 0,-0.865293 0.951823,0 0.951822,0 0,0.865293 0,0.865294 -0.951822,0 -0.951823,0 0,-0.865294 z"
         style="fill:#000000;fill-opacity:1;fill-rule:nonzero;stroke:#000000;stroke-width:0.00865293;stroke-linecap:butt;stroke-linejoin:miter;stroke-miterlimit:4;stroke-opacity:1;stroke-dasharray:none;stroke-dashoffset:0" />
      <path
         inkscape:connector-curvature="0"
         id="path4338"
         d="m 65.695484,55.900656 0,-0.865293 0.995087,0 0.995088,0 0,0.865293 0,0.865294 -0.995088,0 -0.995087,0 0,-0.865294 z"
         style="fill:#000000;fill-opacity:1;fill-rule:nonzero;stroke:#000000;stroke-width:0.00865293;stroke-linecap:butt;stroke-linejoin:miter;stroke-miterlimit:4;stroke-opacity:1;stroke-dasharray:none;stroke-dashoffset:0" />
      <path
         inkscape:connector-curvature="0"
         id="path4426"
         d="m 54.410022,55.900656 0,-0.865293 0.951822,0 0.951823,0 0,0.865293 0,0.865294 -0.951823,0 -0.951822,0 0,-0.865294 z"
         style="fill:#000000;fill-opacity:1;fill-rule:nonzero;stroke:#000000;stroke-width:0.00865293;stroke-linecap:butt;stroke-linejoin:miter;stroke-miterlimit:4;stroke-opacity:1;stroke-dasharray:none;stroke-dashoffset:0" />
      <path
         inkscape:connector-curvature="0"
         id="path4428"
         d="m 56.275352,55.900656 0,-0.865293 0.951822,0 0.951823,0 0,0.865293 0,0.865294 -0.951823,0 -0.951822,0 0,-0.865294 z"
         style="fill:#000000;fill-opacity:1;fill-rule:nonzero;stroke:#000000;stroke-width:0.00865293;stroke-linecap:butt;stroke-linejoin:miter;stroke-miterlimit:4;stroke-opacity:1;stroke-dasharray:none;stroke-dashoffset:0" />
      <path
         inkscape:connector-curvature="0"
         id="path4430"
         d="m 58.135733,55.900656 0,-0.865293 0.951822,0 0.951823,0 0,0.865293 0,0.865294 -0.951823,0 -0.951822,0 0,-0.865294 z"
         style="fill:#000000;fill-opacity:1;fill-rule:nonzero;stroke:#000000;stroke-width:0.00865293;stroke-linecap:butt;stroke-linejoin:miter;stroke-miterlimit:4;stroke-opacity:1;stroke-dasharray:none;stroke-dashoffset:0" />
      <path
         inkscape:connector-curvature="0"
         id="path4432"
         d="m 60.008785,55.900656 0,-0.865293 0.995087,0 0.995088,0 0,0.865293 0,0.865294 -0.995088,0 -0.995087,0 0,-0.865294 z"
         style="fill:#000000;fill-opacity:1;fill-rule:nonzero;stroke:#000000;stroke-width:0.00865293;stroke-linecap:butt;stroke-linejoin:miter;stroke-miterlimit:4;stroke-opacity:1;stroke-dasharray:none;stroke-dashoffset:0" />
      <path
         inkscape:connector-curvature="0"
         id="path4434"
         d="m 61.941521,55.900656 0,-0.865293 0.951823,0 0.951822,0 0,0.865293 0,0.865294 -0.951822,0 -0.951823,0 0,-0.865294 z"
         style="fill:#000000;fill-opacity:1;fill-rule:nonzero;stroke:#000000;stroke-width:0.00865293;stroke-linecap:butt;stroke-linejoin:miter;stroke-miterlimit:4;stroke-opacity:1;stroke-dasharray:none;stroke-dashoffset:0" />
      <path
         inkscape:connector-curvature="0"
         id="path4436"
         d="m 63.793578,55.900656 0,-0.865293 0.995087,0 0.995087,0 0,0.865293 0,0.865294 -0.995087,0 -0.995087,0 0,-0.865294 z"
         style="fill:#000000;fill-opacity:1;fill-rule:nonzero;stroke:#000000;stroke-width:0.00865293;stroke-linecap:butt;stroke-linejoin:miter;stroke-miterlimit:4;stroke-opacity:1;stroke-dasharray:none;stroke-dashoffset:0" />
    </g>
    <path
       style="fill:#000000;fill-opacity:1;fill-rule:nonzero;stroke:#000000;stroke-width:0.12473504;stroke-linecap:butt;stroke-linejoin:miter;stroke-miterlimit:4;stroke-opacity:1;stroke-dasharray:none;stroke-dashoffset:0"
       d="m 217.46768,323.87002 0,-12.47351 14.34453,0 14.34454,0 0,12.47351 0,12.4735 -14.34454,0 -14.34453,0 0,-12.4735 z"
       id="path4358"
       inkscape:connector-curvature="0" />
    <path
       style="fill:#000000;fill-opacity:1;fill-rule:nonzero;stroke:#000000;stroke-width:0.12473504;stroke-linecap:butt;stroke-linejoin:miter;stroke-miterlimit:4;stroke-opacity:1;stroke-dasharray:none;stroke-dashoffset:0"
       d="m 272.02681,323.87002 0,-12.47351 14.34453,0 14.34453,0 0,12.47351 0,12.4735 -14.34453,0 -14.34453,0 0,-12.4735 z"
       id="path4362"
       inkscape:connector-curvature="0" />
    <path
       style="fill:#000000;fill-opacity:1;fill-rule:nonzero;stroke:#000000;stroke-width:0.12473504;stroke-linecap:butt;stroke-linejoin:miter;stroke-miterlimit:4;stroke-opacity:1;stroke-dasharray:none;stroke-dashoffset:0"
       d="m 300.27486,323.87002 0,-12.47351 13.72085,0 13.72086,0 0,12.47351 0,12.4735 -13.72086,0 -13.72085,0 0,-12.4735 z"
       id="path4364"
       inkscape:connector-curvature="0" />
    <path
       style="fill:#000000;fill-opacity:1;fill-rule:nonzero;stroke:#000000;stroke-width:0.12473504;stroke-linecap:butt;stroke-linejoin:miter;stroke-miterlimit:4;stroke-opacity:1;stroke-dasharray:none;stroke-dashoffset:0"
       d="m 326.91022,323.87002 0,-12.47351 13.72087,0 13.72085,0 0,12.47351 0,12.4735 -13.72085,0 -13.72087,0 0,-12.4735 z"
       id="path4366"
       inkscape:connector-curvature="0" />
    <path
       style="fill:#000000;fill-opacity:1;fill-rule:nonzero;stroke:#000000;stroke-width:0.12473504;stroke-linecap:butt;stroke-linejoin:miter;stroke-miterlimit:4;stroke-opacity:1;stroke-dasharray:none;stroke-dashoffset:0"
       d="m 110.07553,323.87002 0,-12.47351 13.72087,0 13.72085,0 0,12.47351 0,12.4735 -13.72085,0 -13.72087,0 0,-12.4735 z"
       id="path4376"
       inkscape:connector-curvature="0" />
    <path
       style="fill:#214478;fill-opacity:1;fill-rule:nonzero;stroke:#214478;stroke-width:0.12473504;stroke-linecap:butt;stroke-linejoin:miter;stroke-miterlimit:4;stroke-opacity:1;stroke-dasharray:none;stroke-dashoffset:0"
       d="m 245.32875,323.87002 0,-12.47351 13.72087,0 13.72085,0 0,12.47351 0,12.4735 -13.72085,0 -13.72087,0 0,-12.4735 z"
       id="path4438"
       inkscape:connector-curvature="0" />
    <path
       style="fill:#c8ab37;fill-opacity:1;fill-rule:nonzero;stroke:#c8ab37;stroke-width:1.44153535;stroke-linecap:butt;stroke-linejoin:miter;stroke-miterlimit:4;stroke-opacity:1;stroke-dasharray:none;stroke-dashoffset:0"
       d="m 274.80347,51.17716 0,-12.473504 14.34453,0 14.34453,0 0,12.473504 0,12.473504 -14.34453,0 -14.34453,0 0,-12.473504 z"
       id="path4470"
       inkscape:connector-curvature="0" />
    <path
       style="fill:#c8ab37;fill-opacity:1;fill-rule:nonzero;stroke:#c8ab37;stroke-width:1.44153535;stroke-linecap:butt;stroke-linejoin:miter;stroke-miterlimit:4;stroke-opacity:1;stroke-dasharray:none;stroke-dashoffset:0"
       d="m 245.256,28.247913 0,-12.473504 13.72086,0 13.72085,0 0,12.473504 0,12.473504 -13.72085,0 -13.72086,0 0,-12.473504 z"
       id="path4472"
       inkscape:connector-curvature="0" />
    <path
       style="fill:#c8ab37;fill-opacity:1;fill-rule:nonzero;stroke:#c8ab37;stroke-width:1.44153535;stroke-linecap:butt;stroke-linejoin:miter;stroke-miterlimit:4;stroke-opacity:1;stroke-dasharray:none;stroke-dashoffset:0"
       d="m 218.05358,53.318666 0,-12.473504 14.34453,0 14.34454,0 0,12.473504 0,12.473504 -14.34454,0 -14.34453,0 0,-12.473504 z"
       id="path4474"
       inkscape:connector-curvature="0" />
    <path
       style="fill:#c8ab37;fill-opacity:1;fill-rule:nonzero;stroke:#c8ab37;stroke-width:1.44153535;stroke-linecap:butt;stroke-linejoin:miter;stroke-miterlimit:4;stroke-opacity:1;stroke-dasharray:none;stroke-dashoffset:0"
       d="m 190.46697,28.247913 0,-12.473504 13.72085,0 13.72087,0 0,12.473504 0,12.473504 -13.72087,0 -13.72085,0 0,-12.473504 z"
       id="path4546"
       inkscape:connector-curvature="0" />
    <path
       style="fill:#c8ab37;fill-opacity:1;fill-rule:nonzero;stroke:#c8ab37;stroke-width:0.12473504;stroke-linecap:butt;stroke-linejoin:miter;stroke-miterlimit:4;stroke-opacity:1;stroke-dasharray:none;stroke-dashoffset:0"
       d="m 300.27486,37.496852 0,-12.473504 13.72085,0 13.72086,0 0,12.473504 0,12.473504 -13.72086,0 -13.72085,0 0,-12.473504 z"
       id="path4454"
       inkscape:connector-curvature="0" />
    <path
       style="fill:#c8ab37;fill-opacity:1;fill-rule:nonzero;stroke:#c8ab37;stroke-width:0.12473504;stroke-linecap:butt;stroke-linejoin:miter;stroke-miterlimit:4;stroke-opacity:1;stroke-dasharray:none;stroke-dashoffset:0"
       d="m 164.06886,52.660398 0,-12.473504 13.72085,0 13.72087,0 0,12.473504 0,12.473504 -13.72087,0 -13.72085,0 0,-12.473504 z"
       id="path4548"
       inkscape:connector-curvature="0" />
    <path
       style="fill:#c8ab37;fill-opacity:1;fill-rule:nonzero;stroke:#c8ab37;stroke-width:0.12473504;stroke-linecap:butt;stroke-linejoin:miter;stroke-miterlimit:4;stroke-opacity:1;stroke-dasharray:none;stroke-dashoffset:0"
       d="m 326.91022,78.141944 0,-13.097185 13.72087,0 13.72085,0 0,13.097185 0,13.097184 -13.72085,0 -13.72087,0 0,-13.097184 z"
       id="path4448"
       inkscape:connector-curvature="0" />
    <path
       style="fill:#c8ab37;fill-opacity:1;fill-rule:nonzero;stroke:#c8ab37;stroke-width:0.12473504;stroke-linecap:butt;stroke-linejoin:miter;stroke-miterlimit:4;stroke-opacity:1;stroke-dasharray:none;stroke-dashoffset:0"
       d="m 138.90104,26.745805 0,-13.097185 13.72085,0 13.72087,0 0,13.097185 0,13.097184 -13.72087,0 -13.72085,0 0,-13.097184 z"
       id="path4550"
       inkscape:connector-curvature="0" />
    <path
       style="fill:#c8ab37;fill-opacity:1;fill-rule:nonzero;stroke:#c8ab37;stroke-width:0.12473504;stroke-linecap:butt;stroke-linejoin:miter;stroke-miterlimit:4;stroke-opacity:1;stroke-dasharray:none;stroke-dashoffset:0"
       d="m 299.71644,103.08895 0,-12.473517 13.72085,0 13.72086,0 0,12.473517 0,12.47351 -13.72086,0 -13.72085,0 0,-12.47351 z"
       id="path4442"
       inkscape:connector-curvature="0" />
    <path
       style="fill:#c8ab37;fill-opacity:1;fill-rule:nonzero;stroke:#c8ab37;stroke-width:0.12473504;stroke-linecap:butt;stroke-linejoin:miter;stroke-miterlimit:4;stroke-opacity:1;stroke-dasharray:none;stroke-dashoffset:0"
       d="m 271.8989,103.08895 0,-12.473517 14.34453,0 14.34453,0 0,12.473517 0,12.47351 -14.34453,0 -14.34453,0 0,-12.47351 z"
       id="path4444"
       inkscape:connector-curvature="0" />
    <path
       style="fill:#c8ab37;fill-opacity:1;fill-rule:nonzero;stroke:#c8ab37;stroke-width:0.12473504;stroke-linecap:butt;stroke-linejoin:miter;stroke-miterlimit:4;stroke-opacity:1;stroke-dasharray:none;stroke-dashoffset:0"
       d="m 245.32875,103.08895 0,-12.473517 13.72087,0 13.72085,0 0,12.473517 0,12.47351 -13.72085,0 -13.72087,0 0,-12.47351 z"
       id="path4446"
       inkscape:connector-curvature="0" />
    <path
       style="fill:#c8ab37;fill-opacity:1;fill-rule:nonzero;stroke:#c8ab37;stroke-width:0.12473504;stroke-linecap:butt;stroke-linejoin:miter;stroke-miterlimit:4;stroke-opacity:1;stroke-dasharray:none;stroke-dashoffset:0"
       d="m 110.07553,103.08895 0,-12.473517 13.72087,0 13.72085,0 0,12.473517 0,12.47351 -13.72085,0 -13.72087,0 0,-12.47351 z"
       id="path4554"
       inkscape:connector-curvature="0" />
    <path
       style="fill:#c8ab37;fill-opacity:1;fill-rule:nonzero;stroke:#c8ab37;stroke-width:0.12473504;stroke-linecap:butt;stroke-linejoin:miter;stroke-miterlimit:4;stroke-opacity:1;stroke-dasharray:none;stroke-dashoffset:0"
       d="m 217.46768,151.73562 0,-13.09718 14.34453,0 14.34454,0 0,13.09718 0,13.09719 -14.34454,0 -14.34453,0 0,-13.09719 z"
       id="path4488"
       inkscape:connector-curvature="0" />
    <path
       style="fill:#c8ab37;fill-opacity:1;fill-rule:nonzero;stroke:#c8ab37;stroke-width:0.12473504;stroke-linecap:butt;stroke-linejoin:miter;stroke-miterlimit:4;stroke-opacity:1;stroke-dasharray:none;stroke-dashoffset:0"
       d="m 56.53789,151.73562 0,-13.09718 13.72087,0 13.72085,0 0,13.09718 0,13.09719 -13.72085,0 -13.72087,0 0,-13.09719 z"
       id="path4562"
       inkscape:connector-curvature="0" />
    <path
       style="fill:#c8ab37;fill-opacity:1;fill-rule:nonzero;stroke:#c8ab37;stroke-width:0.12473504;stroke-linecap:butt;stroke-linejoin:miter;stroke-miterlimit:4;stroke-opacity:1;stroke-dasharray:none;stroke-dashoffset:0"
       d="m 81.9788,127.27065 0,-12.47352 14.34453,0 14.34455,0 0,12.47352 0,12.4735 -14.34455,0 -14.34453,0 0,-12.4735 z"
       id="path4582"
       inkscape:connector-curvature="0" />
    <path
       style="fill:#c8ab37;fill-opacity:1;fill-rule:nonzero;stroke:#c8ab37;stroke-width:0.14675814;stroke-linecap:butt;stroke-linejoin:miter;stroke-miterlimit:4;stroke-opacity:1;stroke-dasharray:none;stroke-dashoffset:0"
       d="m 217.47869,180.25369 0,-17.28084 13.70986,0 13.70984,0 0,17.28084 0,17.28082 -13.70984,0 -13.70986,0 0,-17.28082 z"
       id="path4482"
       inkscape:connector-curvature="0" />
    <path
       style="fill:#c8ab37;fill-opacity:1;fill-rule:nonzero;stroke:#c8ab37;stroke-width:0.12473504;stroke-linecap:butt;stroke-linejoin:miter;stroke-miterlimit:4;stroke-opacity:1;stroke-dasharray:none;stroke-dashoffset:0"
       d="m 81.9788,175.4353 0,-12.47351 14.34453,0 14.34455,0 0,12.47351 0,12.4735 -14.34455,0 -14.34453,0 0,-12.4735 z"
       id="path4600"
       inkscape:connector-curvature="0" />
    <path
       style="fill:#ff6600;fill-opacity:1;fill-rule:nonzero;stroke:#ff6600;stroke-width:0.12473504;stroke-linecap:butt;stroke-linejoin:miter;stroke-miterlimit:4;stroke-opacity:1;stroke-dasharray:none;stroke-dashoffset:0"
       d="m 224.68883,187.46694 c 4.31465,-0.24419 11.05034,-0.24218 14.9682,0.004 3.91786,0.24679 0.38763,0.44658 -7.84482,0.44413 -8.23251,-0.002 -11.43804,-0.20441 -7.12338,-0.4486 z"
       id="path4486"
       inkscape:connector-curvature="0" />
    <path
       style="fill:#c8ab37;fill-opacity:1;fill-rule:nonzero;stroke:#c8ab37;stroke-width:0.12473504;stroke-linecap:butt;stroke-linejoin:miter;stroke-miterlimit:4;stroke-opacity:1;stroke-dasharray:none;stroke-dashoffset:0"
       d="m 55.12943,199.75861 0,-12.4735 13.72085,0 13.72086,0 0,12.4735 0,12.47351 -13.72086,0 -13.72085,0 0,-12.47351 z"
       id="path4606"
       inkscape:connector-curvature="0" />
    <path
       style="fill:#c8ab37;fill-opacity:1;fill-rule:nonzero;stroke:#c8ab37;stroke-width:0.12473504;stroke-linecap:butt;stroke-linejoin:miter;stroke-miterlimit:4;stroke-opacity:1;stroke-dasharray:none;stroke-dashoffset:0"
       d="m 81.9788,223.4583 0,-13.09718 14.34453,0 14.34455,0 0,13.09718 0,13.09719 -14.34455,0 -14.34453,0 0,-13.09719 z"
       id="path4610"
       inkscape:connector-curvature="0" />
    <path
       style="fill:#000000;fill-opacity:1;fill-rule:nonzero;stroke:#000000;stroke-width:0.12473504;stroke-linecap:butt;stroke-linejoin:miter;stroke-miterlimit:4;stroke-opacity:1;stroke-dasharray:none;stroke-dashoffset:0"
       d="m 190.46697,298.92301 0,-13.09719 13.72085,0 13.72087,0 0,13.09719 0,13.09718 -13.72087,0 -13.72085,0 0,-13.09718 z"
       id="path4368"
       inkscape:connector-curvature="0" />
    <path
       style="fill:#000000;fill-opacity:1;fill-rule:nonzero;stroke:#000000;stroke-width:0.12473504;stroke-linecap:butt;stroke-linejoin:miter;stroke-miterlimit:4;stroke-opacity:1;stroke-dasharray:none;stroke-dashoffset:0"
       d="m 163.64892,298.92301 0,-13.09719 13.72085,0 13.72087,0 0,13.09719 0,13.09718 -13.72087,0 -13.72085,0 0,-13.09718 z"
       id="path4370"
       inkscape:connector-curvature="0" />
    <path
       style="fill:#000000;fill-opacity:1;fill-rule:nonzero;stroke:#000000;stroke-width:0.12473504;stroke-linecap:butt;stroke-linejoin:miter;stroke-miterlimit:4;stroke-opacity:1;stroke-dasharray:none;stroke-dashoffset:0"
       d="m 136.75953,298.92301 0,-13.09719 13.72085,0 13.72087,0 0,13.09719 0,13.09718 -13.72087,0 -13.72085,0 0,-13.09718 z"
       id="path4372"
       inkscape:connector-curvature="0" />
    <path
       style="fill:#000000;fill-opacity:1;fill-rule:nonzero;stroke:#000000;stroke-width:0.12473504;stroke-linecap:butt;stroke-linejoin:miter;stroke-miterlimit:4;stroke-opacity:1;stroke-dasharray:none;stroke-dashoffset:0"
       d="m 110.07553,298.92301 0,-13.09719 13.72087,0 13.72085,0 0,13.09719 0,13.09718 -13.72085,0 -13.72087,0 0,-13.09718 z"
       id="path4374"
       inkscape:connector-curvature="0" />
    <path
       style="fill:#ff6600;fill-opacity:1;fill-rule:nonzero;stroke:#ff6600;stroke-width:0.12473504;stroke-linecap:butt;stroke-linejoin:miter;stroke-miterlimit:4;stroke-opacity:1;stroke-dasharray:none;stroke-dashoffset:0"
       d="m 272.02681,298.92301 0,-13.09719 14.34453,0 14.34453,0 0,13.09719 0,13.09718 -14.34453,0 -14.34453,0 0,-13.09718 z"
       id="path4628"
       inkscape:connector-curvature="0" />
    <path
       style="fill:#c8ab37;fill-opacity:1;fill-rule:nonzero;stroke:#c8ab37;stroke-width:0.12473504;stroke-linecap:butt;stroke-linejoin:miter;stroke-miterlimit:4;stroke-opacity:1;stroke-dasharray:none;stroke-dashoffset:0"
       d="m 163.64893,273.07543 0,-12.47351 13.72085,0 13.72087,0 0,12.47351 0,12.47351 -13.72087,0 -13.72085,0 0,-12.47351 z"
       id="path4508"
       inkscape:connector-curvature="0" />
    <path
       style="fill:#c8ab37;fill-opacity:1;fill-rule:nonzero;stroke:#c8ab37;stroke-width:0.12473504;stroke-linecap:butt;stroke-linejoin:miter;stroke-miterlimit:4;stroke-opacity:1;stroke-dasharray:none;stroke-dashoffset:0"
       d="m 136.75954,273.07543 0,-12.47351 13.72085,0 13.72087,0 0,12.47351 0,12.47351 -13.72087,0 -13.72085,0 0,-12.47351 z"
       id="path4510"
       inkscape:connector-curvature="0" />
    <path
       style="fill:#c8ab37;fill-opacity:1;fill-rule:nonzero;stroke:#c8ab37;stroke-width:0.12473504;stroke-linecap:butt;stroke-linejoin:miter;stroke-miterlimit:4;stroke-opacity:1;stroke-dasharray:none;stroke-dashoffset:0"
       d="m 110.07554,273.07543 0,-12.47351 13.72087,0 13.72085,0 0,12.47351 0,12.47351 -13.72085,0 -13.72087,0 0,-12.47351 z"
       id="path4574"
       inkscape:connector-curvature="0" />
    <path
       style="fill:#c8ab37;fill-opacity:1;fill-rule:nonzero;stroke:#c8ab37;stroke-width:0.12473504;stroke-linecap:butt;stroke-linejoin:miter;stroke-miterlimit:4;stroke-opacity:1;stroke-dasharray:none;stroke-dashoffset:0"
       d="m 110.07553,249.02898 0,-12.47351 13.72087,0 13.72085,0 0,12.47351 0,12.47351 -13.72085,0 -13.72087,0 0,-12.47351 z"
       id="path4576"
       inkscape:connector-curvature="0" />
    <path
       style="fill:#ffccaa;fill-opacity:1;fill-rule:nonzero;stroke:#ffccaa;stroke-width:0.45776331;stroke-linecap:butt;stroke-linejoin:miter;stroke-miterlimit:4;stroke-opacity:1;stroke-dasharray:none;stroke-dashoffset:0"
       d="m 273.63147,420.14793 0,-12.34813 -13.67118,0 -13.67116,0 0,-23.81427 0,-23.81428 13.67116,0 13.67118,0 0,-11.46611 0,-11.46615 39.24943,0 39.24946,0 0,11.46615 0,11.46611 13.67115,0 13.67113,0 0,23.81428 0,23.81427 -13.67113,0 -13.67115,0 0,12.34813 0,12.34816 -39.24946,0 -39.24943,0 0,-12.34816 z"
       id="path5218"
       inkscape:connector-curvature="0" />
    <path
       style="fill:#ffccaa;fill-opacity:1;fill-rule:nonzero;stroke:#ffccaa;stroke-width:2.52877569;stroke-linecap:butt;stroke-linejoin:miter;stroke-miterlimit:4;stroke-opacity:1;stroke-dasharray:none;stroke-dashoffset:0"
       d="m 272.20732,432.7421 c 0.43511,-0.43511 0.7911,-6.04209 0.7911,-12.45995 l 0,-11.66884 -12.92631,0 c -10.69243,0 -13.0508,0.32439 -13.64661,1.87705 -0.39616,1.03238 -0.72029,6.63935 -0.72029,12.45995 l 0,10.5829 12.8555,0 c 7.07052,0 13.2115,-0.356 13.64661,-0.79111 z"
       id="path14661"
       inkscape:connector-curvature="0" />
    <path
       style="fill:#000000;fill-opacity:1;fill-rule:nonzero;stroke:#000000;stroke-width:0.12473504;stroke-linecap:butt;stroke-linejoin:miter;stroke-miterlimit:4;stroke-opacity:1;stroke-dasharray:none;stroke-dashoffset:0"
       d="m 299.49711,564.86815 0,-12.47351 13.72085,0 13.72086,0 0,12.47351 0,12.4735 -13.72086,0 -13.72085,0 0,-12.4735 z"
       id="path4328"
       inkscape:connector-curvature="0" />
    <path
       style="fill:#000000;fill-opacity:1;fill-rule:nonzero;stroke:#000000;stroke-width:0.12473504;stroke-linecap:butt;stroke-linejoin:miter;stroke-miterlimit:4;stroke-opacity:1;stroke-dasharray:none;stroke-dashoffset:0"
       d="m 246.93243,420.54719 0,-12.47351 13.72086,0 13.72085,0 0,12.47351 0,12.4735 -13.72085,0 -13.72086,0 0,-12.4735 z"
       id="path4330-9"
       inkscape:connector-curvature="0" />
    <path
       style="fill:#214478;fill-opacity:1;fill-rule:nonzero;stroke:#214478;stroke-width:7.58802366;stroke-linecap:butt;stroke-linejoin:miter;stroke-miterlimit:4;stroke-opacity:1;stroke-dasharray:none;stroke-dashoffset:0"
       d="m 270.78946,446.52143 0,-11.35705 -13.74377,0 -13.74376,0 0.49387,-12.11774 0.49388,-12.11775 -13.98605,0.004 -13.98605,0.004 -0.39955,-48.83532 -0.39954,-48.83531 -38.2354,-0.40457 -38.2354,-0.40457 0,12.14019 0,12.14019 -13.62846,0 -13.62846,0 0,35.58542 0,35.58542 13.62846,0 13.62846,0 0,24.98551 0,24.98551 65.87088,0 65.87089,0 0,-11.35705 z"
       id="path4785"
       inkscape:connector-curvature="0" />
    <path
       style="fill:#c8ab37;fill-opacity:1;fill-rule:nonzero;stroke:#c8ab37;stroke-width:0.12473504;stroke-linecap:butt;stroke-linejoin:miter;stroke-miterlimit:4;stroke-opacity:1;stroke-dasharray:none;stroke-dashoffset:0"
       d="m 110.97827,51.589661 0,-12.47352 14.34453,0 14.34455,0 0,12.47352 0,12.4735 -14.34455,0 -14.34453,0 0,-12.4735 z"
       id="path4582-1"
       inkscape:connector-curvature="0" />
    <path
       style="fill:#c8ab37;fill-opacity:1;fill-rule:nonzero;stroke:#c8ab37;stroke-width:0.12473504;stroke-linecap:butt;stroke-linejoin:miter;stroke-miterlimit:4;stroke-opacity:1;stroke-dasharray:none;stroke-dashoffset:0"
       d="m 299.43079,51.589662 0,-12.473521 14.34453,0 14.34455,0 0,12.473521 0,12.4735 -14.34455,0 -14.34453,0 0,-12.4735 z"
       id="path4582-4"
       inkscape:connector-curvature="0" />
    <path
       style="fill:#c8ab37;fill-opacity:1;fill-rule:nonzero;stroke:#c8ab37;stroke-width:0.12473504;stroke-linecap:butt;stroke-linejoin:miter;stroke-miterlimit:4;stroke-opacity:1;stroke-dasharray:none;stroke-dashoffset:0"
       d="m 84.20945,77.415528 0,-12.47352 14.34453,0 14.34455,0 0,12.47352 0,12.473495 -14.34455,0 -14.34453,0 0,-12.473495 z"
       id="path4582-1-0"
       inkscape:connector-curvature="0" />
    <path
       style="fill:#c8ab37;fill-opacity:1;fill-rule:nonzero;stroke:#c8ab37;stroke-width:0.12473504;stroke-linecap:butt;stroke-linejoin:miter;stroke-miterlimit:4;stroke-opacity:1;stroke-dasharray:none;stroke-dashoffset:0"
       d="m 190.21398,249.80674 0,-12.47352 14.34453,0 14.34455,0 0,12.47352 0,12.4735 -14.34455,0 -14.34453,0 0,-12.4735 z"
       id="path4582-1-9"
       inkscape:connector-curvature="0" />
    <path
       style="fill:#000000;fill-opacity:1;fill-rule:nonzero;stroke:#000000;stroke-width:0.12473504;stroke-linecap:butt;stroke-linejoin:miter;stroke-miterlimit:4;stroke-opacity:1;stroke-dasharray:none;stroke-dashoffset:0"
       d="m 271.44345,151.73562 0,-13.09718 14.34453,0 14.34455,0 0,13.09718 0,13.09719 -14.34455,0 -14.34453,0 0,-13.09719 z"
       id="path4294"
       inkscape:connector-curvature="0" />
    <path
       style="fill:#000000;fill-opacity:1;fill-rule:nonzero;stroke:#000000;stroke-width:0.13741016;stroke-linecap:butt;stroke-linejoin:miter;stroke-miterlimit:4;stroke-opacity:1;stroke-dasharray:none;stroke-dashoffset:0"
       d="m 271.44979,178.11218 0,-15.14402 14.33819,0 14.33821,0 0,15.14402 0,15.14402 -14.33821,0 -14.33819,0 0,-15.14402 z"
       id="path4296"
       inkscape:connector-curvature="0" />
    <path
       style="fill:#ffccaa;fill-opacity:1;fill-rule:nonzero;stroke:#ffccaa;stroke-width:0.8491205;stroke-linecap:butt;stroke-linejoin:miter;stroke-miterlimit:4;stroke-opacity:1;stroke-dasharray:none;stroke-dashoffset:0"
       d="m 245.10188,252.60367 0,-13.02147 -13.05162,0 -13.05161,0 0,-24.18275 0,-24.18275 13.05161,0 13.05162,0 0,-37.8243 0,-37.8243 39.74809,0 39.7481,0 0,25.4229 0,25.42288 8.89882,0 8.89882,0 0,12.4014 0,12.40142 10.67861,0 10.67858,0 0,11.16126 0,11.16128 -6.52581,0 -6.5258,0 0,26.04296 0,26.04296 -52.7997,0 -52.79971,0 0,-13.02149 z m 55.76598,-88.05 0,-26.66303 -14.83138,0 -14.83137,0 0,26.66303 0,26.66303 14.83137,0 14.83138,0 0,-26.66303 z"
       id="path14347"
       inkscape:connector-curvature="0" />
    <path
       style="fill:#ffccaa;fill-opacity:1;fill-rule:nonzero;stroke:#ffccaa;stroke-width:1.49905407;stroke-linecap:butt;stroke-linejoin:miter;stroke-miterlimit:4;stroke-opacity:1;stroke-dasharray:none;stroke-dashoffset:0"
       d="m 271.21245,297.96078 0,-12.84904 27.3042,0 27.30419,0 0,-11.77828 0,-11.77828 -40.68861,0 -40.68861,0 0,-12.31366 0,-12.31366 -12.31365,0 -12.31366,0 0,12.84904 0,12.84903 -13.91979,0 -13.91979,0 0,11.24291 0,11.2429 13.38441,0 13.38442,0 0,11.15533 c 0,6.13543 0.29246,11.9175 0.64993,12.84904 0.56756,1.47904 3.89239,1.6937 26.23345,1.6937 l 25.58351,0 0,-12.84903 z"
       id="path4885"
       inkscape:connector-curvature="0" />
    <path
       style="fill:#ffccaa;fill-opacity:1;fill-rule:nonzero;stroke:#ffccaa;stroke-width:1.49905407;stroke-linecap:butt;stroke-linejoin:miter;stroke-miterlimit:4;stroke-opacity:1;stroke-dasharray:none;stroke-dashoffset:0"
       d="m 300.12277,299.03153 0,-12.84904 -13.91978,0 -13.91979,0 0,12.84904 0,12.84903 13.91979,0 13.91978,0 0,-12.84903 z"
       id="path4887"
       inkscape:connector-curvature="0" />
    <path
       style="fill:#c8ab37;fill-opacity:1;fill-rule:nonzero;stroke:#c8ab37;stroke-width:3.39899993;stroke-linecap:butt;stroke-linejoin:miter;stroke-miterlimit:4;stroke-opacity:1;stroke-dasharray:none;stroke-dashoffset:0"
       d="m 189.83523,248.70614 0,-11.77828 13.97298,0 13.97297,0 -0.75742,-49.25463 -0.75742,-49.25463 14.08864,0 14.08864,0 0,-24.09194 0,-24.091945 40.68861,0 40.68861,0 0,-12.849035 0,-12.849035 -26.23344,0 -26.23345,0 0,-11.242905 0,-11.242905 -12.84903,0 -12.84904,0 0,12.313658 0,12.313658 -15.52591,0 -15.52592,0 0,-12.313658 0,-12.313658 -12.31366,0 -12.31366,0 0,11.778281 0,11.778282 -14.45516,0 -14.45517,0 0,-12.849034 0,-12.849035 -11.2429,0 -11.24291,0 0,12.313658 0,12.313658 -13.38441,0 -13.38441,0 0,12.849035 0,12.849035 12.31366,0 12.31366,0 0,12.849035 0,12.84904 -13.38441,0 -13.38441,0 0,12.31365 0,12.31366 -13.384419,0 -13.38441,0 0,10.70753 0,10.70753 13.38441,0 13.384419,0 0,13.38441 0,13.38441 -14.455169,0 -14.45516,0 0,10.70753 0,10.70753 14.45516,0 14.455169,0 0,12.84903 0,12.84904 13.38441,0 13.38441,0 0,12.31366 0,12.31366 25.69807,0 25.69807,0 0,-11.77829 z"
       id="path5018"
       inkscape:connector-curvature="0" />
    <path
       style="fill:#333333;fill-opacity:1;fill-rule:nonzero;stroke:#333333;stroke-width:3.63948894;stroke-linecap:butt;stroke-linejoin:miter;stroke-miterlimit:4;stroke-opacity:1;stroke-dasharray:none;stroke-dashoffset:0"
       d="m 327.28481,612.83429 0,-10.14108 -14.18748,-0.29877 -14.18748,-0.29876 -0.30391,-11.5106 -0.30391,-11.51059 -66.88583,0 -66.88583,0 0,21.95043 0,21.95044 81.37722,0 81.37722,0 0,-10.14107 z"
       id="path5020"
       inkscape:connector-curvature="0" />
  </g>
  <g
     inkscape:groupmode="layer"
     id="layer2"
     inkscape:label="Layer"
     transform="translate(-11.454369,-2.6803192)" />
</svg>
