<?xml version="1.0" encoding="UTF-8" standalone="no"?>
<!-- Created with Inkscape (http://www.inkscape.org/) -->

<svg
   xmlns:dc="http://purl.org/dc/elements/1.1/"
   xmlns:cc="http://creativecommons.org/ns#"
   xmlns:rdf="http://www.w3.org/1999/02/22-rdf-syntax-ns#"
   xmlns:svg="http://www.w3.org/2000/svg"
   xmlns="http://www.w3.org/2000/svg"
   xmlns:sodipodi="http://sodipodi.sourceforge.net/DTD/sodipodi-0.dtd"
   xmlns:inkscape="http://www.inkscape.org/namespaces/inkscape"
   width="985.40625"
   height="389.71875"
   id="svg2"
   version="1.1"
   inkscape:version="0.48.4 r9939"
   sodipodi:docname="annex plus paper.svg">
  <defs
     id="defs4" />
  <sodipodi:namedview
     id="base"
     pagecolor="#ffffff"
     bordercolor="#666666"
     borderopacity="1.0"
     inkscape:pageopacity="0.0"
     inkscape:pageshadow="2"
     inkscape:zoom="0.9532131"
     inkscape:cx="619.77442"
     inkscape:cy="137.11177"
     inkscape:document-units="px"
     inkscape:current-layer="layer1"
     showgrid="false"
     inkscape:window-width="1366"
     inkscape:window-height="706"
     inkscape:window-x="-8"
     inkscape:window-y="-8"
     inkscape:window-maximized="1"
     fit-margin-top="0"
     fit-margin-left="0"
     fit-margin-right="0"
     fit-margin-bottom="0" />
  <metadata
     id="metadata7">
    <rdf:RDF>
      <cc:Work
         rdf:about="">
        <dc:format>image/svg+xml</dc:format>
        <dc:type
           rdf:resource="http://purl.org/dc/dcmitype/StillImage" />
        <dc:title />
      </cc:Work>
    </rdf:RDF>
  </metadata>
  <g
     inkscape:label="Layer 1"
     inkscape:groupmode="layer"
     id="layer1"
     transform="translate(-2.46875,-610.96875)">
    <path
       style="fill:#ffffff;fill-opacity:1;stroke:#000000;stroke-width:1.00273001px;stroke-linecap:butt;stroke-linejoin:miter;stroke-opacity:1"
       d="m 2.9751358,613.76023 16.6967852,0 0,5.3352 14.518944,0 0,0.76217 10.889209,0 0,0 15.970837,0 0,1.52434 21.778412,0 0,1.52436 19.600577,0 0,-1.52436 14.51894,0 0,-3.04868 14.51894,0 0,-2.28653 19.60058,0 0,-1.52435 18.14868,0 0,-3.04868 16.69679,0 0,3.04868 8.71136,0 0,3.04871 10.16326,0 0,2.28651 35.57141,0 0,2.28651 18.14868,0 0,-3.81085 5.80758,0 0,-2.28653 16.69679,0 0,-0.76216 3.62973,0 0,-2.28652 21.77841,0 0,2.28652 16.69679,0 0,-1.52434 18.87464,0 0,-2.28653 22.50435,0 0,1.52435 27.586,0 0,3.81088 26.1341,0 0,3.04867 30.48978,0 0,-1.52434 7.98541,0 0,-2.28653 19.60059,0 0,-3.04868 19.60055,0 0,3.04868 22.50439,0 0,2.28653 16.69677,0 0,2.2865 22.50437,0 0,2.28654 12.3411,0 0,-3.81087 20.32653,0 0,-2.2865 26.13408,0 0,-2.28655 18.14867,0 0,-1.52433 22.50438,0 0,3.81088 13.06705,0 0,3.04867 20.32652,0 0,1.52434 17.42274,0 0,3.0487 9.43731,0 0,2.2865 15.24488,0 0,-3.04869 20.32654,0 0,-3.04869 11.61514,0 0,-2.2865 22.50436,0 0,-2.28653 21.77843,0 0,-2.2865 31.94166,0 0,3.0487 26.86004,0 0,3.04867 27.58601,0 0,3.81085 12.3411,0 0,2.28652 20.32653,0 0,-3.81086 7.25946,0 0,-2.28651 13.79299,0 0,-3.04867 19.60059,0 0,-2.28655 18.87463,0 0,385.65912 -984.3843942,0 z"
       id="path3841"
       inkscape:connector-curvature="0" />
  </g>
</svg>
