<?xml version="1.0" encoding="UTF-8" standalone="no"?>
<!-- Created with Inkscape (http://www.inkscape.org/) -->

<svg
   xmlns:dc="http://purl.org/dc/elements/1.1/"
   xmlns:cc="http://creativecommons.org/ns#"
   xmlns:rdf="http://www.w3.org/1999/02/22-rdf-syntax-ns#"
   xmlns:svg="http://www.w3.org/2000/svg"
   xmlns="http://www.w3.org/2000/svg"
   xmlns:sodipodi="http://sodipodi.sourceforge.net/DTD/sodipodi-0.dtd"
   xmlns:inkscape="http://www.inkscape.org/namespaces/inkscape"
   width="430.31534"
   height="585.98187"
   id="svg2"
   version="1.1"
   inkscape:version="0.48.4 r9939"
   sodipodi:docname="youngdavid climbing.svg">
  <defs
     id="defs4" />
  <sodipodi:namedview
     id="base"
     pagecolor="#ffffff"
     bordercolor="#666666"
     borderopacity="1.0"
     inkscape:pageopacity="0.0"
     inkscape:pageshadow="2"
     inkscape:zoom="1.6854006"
     inkscape:cx="188.68327"
     inkscape:cy="345.78394"
     inkscape:document-units="px"
     inkscape:current-layer="layer1"
     showgrid="false"
     inkscape:window-width="1366"
     inkscape:window-height="706"
     inkscape:window-x="-8"
     inkscape:window-y="-8"
     inkscape:window-maximized="1"
     fit-margin-left="10"
     fit-margin-top="10"
     fit-margin-right="10"
     fit-margin-bottom="10"
     showguides="true"
     inkscape:guide-bbox="true" />
  <metadata
     id="metadata7">
    <rdf:RDF>
      <cc:Work
         rdf:about="">
        <dc:format>image/svg+xml</dc:format>
        <dc:type
           rdf:resource="http://purl.org/dc/dcmitype/StillImage" />
        <dc:title></dc:title>
      </cc:Work>
    </rdf:RDF>
  </metadata>
  <g
     inkscape:label="Layer 1"
     inkscape:groupmode="layer"
     id="layer1"
     transform="translate(-11.160292,-45.990039)">
    <path
       style="fill:#0d0d0d;fill-opacity:1;fill-rule:nonzero;stroke:#0d0d0d;stroke-width:2.96665381999999990;stroke-linecap:butt;stroke-linejoin:bevel;stroke-miterlimit:4;stroke-opacity:1;stroke-dasharray:none;stroke-dashoffset:0"
       d="m 90.411414,338.06784 -0.161718,-10.82829 -12.702256,-0.1604 -12.702257,-0.16041 0.390643,-12.54354 c 0.214854,-6.89894 0.390644,-16.23847 0.390644,-20.7545 l 0,-8.21096 10.679953,0 10.679954,0 0,-11.14068 0,-11.14067 11.569197,0.0157 11.569196,0.0157 7.5e-4,11.12495 7.6e-4,11.12496 11.79245,0 11.79244,0 0.37084,1.85415 c 0.20395,1.01979 0.37083,9.02976 0.37083,17.79993 l 0,15.94576 3.26332,0 3.26332,0 0,2.96666 0,2.96665 -12.75661,0 -12.75662,0 0,10.97662 0,10.97662 -12.44656,0 -12.446559,0 -0.161717,-10.82829 0,0 z"
       id="path9860"
       inkscape:connector-curvature="0"
       transform="translate(11.160292,45.990039)" />
    <path
       style="fill:#0d0d0d;fill-opacity:1;fill-rule:nonzero;stroke:#0d0d0d;stroke-width:2.96665381999999990;stroke-linecap:butt;stroke-linejoin:bevel;stroke-miterlimit:4;stroke-opacity:1;stroke-dasharray:none;stroke-dashoffset:0"
       d="m 142.55013,362.09774 c 0.16856,-4.8134 0.40974,-9.08538 0.53595,-9.4933 0.17428,-0.56326 3.30247,-0.74166 13.00471,-0.74166 l 12.77523,0 0,-15.72326 0,-15.72327 49.83979,0 49.83978,0 0,14.83327 0,14.83327 11.56995,0 11.56995,0 0,10.38329 0,10.38329 -74.72091,0 -74.72091,0 0.30646,-8.75163 z"
       id="path9862"
       inkscape:connector-curvature="0"
       transform="translate(11.160292,45.990039)" />
    <path
       style="fill:#0d0d0d;fill-opacity:1;fill-rule:nonzero;stroke:#0d0d0d;stroke-width:2.96665381999999990;stroke-linecap:butt;stroke-linejoin:bevel;stroke-miterlimit:4;stroke-opacity:1;stroke-dasharray:none;stroke-dashoffset:0"
       d="m 318.97871,359.87275 0,-11.56995 -11.86662,0 -11.86661,0 0,-31.11776 0,-31.11776 8.15829,-0.18044 c 4.48707,-0.0992 26.64797,-0.0958 49.24646,0.008 l 41.08815,0.18817 0,20.16504 0,20.16503 -13.34994,-0.41851 -13.34994,-0.41851 0,11.64736 0,11.64735 -11.42162,0.16115 -11.42162,0.16114 -0.16142,11.12495 -0.16143,11.12496 -12.44685,0 -12.44685,0 0,-11.56995 z"
       id="path9864"
       inkscape:connector-curvature="0"
       transform="translate(11.160292,45.990039)" />
    <path
       style="fill:#665c36;fill-opacity:1;fill-rule:nonzero;stroke:#665c36;stroke-width:1.61468302999999990;stroke-linecap:butt;stroke-linejoin:miter;stroke-miterlimit:4;stroke-opacity:1;stroke-dasharray:none;stroke-dashoffset:0"
       d="m 257.05917,543.25452 0,-10.86005 61.45288,0 61.45287,0 -0.23414,10.36806 c -0.1288,5.70241 -0.36833,10.52089 -0.5323,10.70772 -0.16397,0.18681 -27.71241,0.40822 -61.21873,0.49199 l -60.92058,0.15232 0,-10.86004 z"
       id="path5133"
       inkscape:connector-curvature="0" />
    <path
       style="fill:#665c36;fill-opacity:1;fill-rule:nonzero;stroke:#665c36;stroke-width:1.52570546000000000;stroke-linecap:butt;stroke-linejoin:miter;stroke-miterlimit:4;stroke-opacity:1;stroke-dasharray:none;stroke-dashoffset:0"
       d="m 101.22532,590.24921 c -0.15412,-4.58266 -0.28013,-14.4312 -0.28004,-21.88566 l 1.6e-4,-13.55355 13.04085,-0.1269 13.04085,-0.1269 0,12.45841 0,12.45841 52.16891,0 52.1689,0 0,9.55415 0,9.55414 -64.92971,0 -64.92971,0 -0.28021,-8.3321 z"
       id="path5118"
       inkscape:connector-curvature="0" />
    <path
       style="fill:none;stroke:#000000;stroke-width:1px;stroke-linecap:butt;stroke-linejoin:miter;stroke-opacity:1"
       d="m 380.61325,259.83265 25.59244,0 0,22.23605 26.01199,0 0,93.55926 -26.43154,0 0,179.56663 -24.75334,0 0,23.07515 -123.76672,0 0,21.81651 -27.27064,0 0,22.23605 -130.059943,0 0,-22.6556 -25.59244,0 0,-46.1503 25.59244,0 0,-157.33058 -26.43154,0 0,-20.13832 -24.75334,0 0,-46.56985 -28.10973,0 0,-92.72015 27.27063,0 0,89.99309 24.3338,0 0,-21.60673 25.17289,0 0,25.17289 -21.81651,0 0,43.21346 24.753353,0 0,22.23606 26.85108,0 0,-22.23606 26.01199,0 -0.14833,-21.32061"
       id="path3651"
       inkscape:connector-curvature="0"
       sodipodi:nodetypes="ccccccccccccccccccccccccccccccccccccccc" />
    <path
       style="fill:none;stroke:#000000;stroke-width:1px;stroke-linecap:butt;stroke-linejoin:miter;stroke-opacity:1"
       d="m 179.23011,352.76258 0,44.26233 -26.43154,0 0,20.55787 150.61781,0 0,-22.23606 -22.6556,0 0,-43.21346"
       id="path3653"
       inkscape:connector-curvature="0"
       sodipodi:nodetypes="cccccccc" />
    <path
       style="fill:none;stroke:#000000;stroke-width:1px;stroke-linecap:butt;stroke-linejoin:miter;stroke-opacity:1"
       d="m 380.61325,260.2522 0,22.23605 24.75334,0 0,23.07515 -54.96081,0"
       id="path3655"
       inkscape:connector-curvature="0" />
    <path
       style="fill:none;stroke:#000000;stroke-width:1px;stroke-linecap:butt;stroke-linejoin:miter;stroke-opacity:1"
       d="m 328.58927,330.7363 77.19687,0 0,42.37437 -26.43154,0 0,22.6556 -23.07515,0 0,22.6556 -26.85108,0 0,-23.07515 -24.3338,0 0,-64.61042"
       id="path3657"
       inkscape:connector-curvature="0"
       sodipodi:nodetypes="ccccccccccc" />
    <path
       style="fill:none;stroke:#000000;stroke-width:1px;stroke-linecap:butt;stroke-linejoin:miter;stroke-opacity:1"
       d="m 378.93505,441.91657 0,67.96681 -148.52006,0 0,44.47211 -78.03597,0 0,-22.23605 -26.01198,0 0,-91.04196 z"
       id="path3659"
       inkscape:connector-curvature="0" />
    <path
       style="fill:none;stroke:#000000;stroke-width:1px;stroke-linecap:butt;stroke-linejoin:miter;stroke-opacity:1"
       d="m 378.51551,553.5164 -120.82988,0 0,-20.13832 121.24943,0.41955 z"
       id="path3661"
       inkscape:connector-curvature="0"
       sodipodi:nodetypes="ccccc" />
    <path
       style="fill:none;stroke:#000000;stroke-width:1px;stroke-linecap:butt;stroke-linejoin:miter;stroke-opacity:1"
       d="m 127.20613,555.61414 0,23.4947 102.36977,0 0,19.29922 -129.22085,0 0,-42.79392 z"
       id="path3663"
       inkscape:connector-curvature="0" />
    <path
       style="fill:#000000;fill-opacity:1;fill-rule:nonzero;stroke:#000000;stroke-width:2.68510866;stroke-linecap:butt;stroke-linejoin:miter;stroke-miterlimit:4;stroke-opacity:1;stroke-dasharray:none;stroke-dashoffset:0"
       d="m 405.24133,271.08771 0,-10.06915 -11.74735,0 -11.74735,0 0,10.06915 0,10.06916 11.74735,0 11.74735,0 0,-10.06916 z"
       id="path3669"
       inkscape:connector-curvature="0" />
    <path
       style="fill:#000000;fill-opacity:1;fill-rule:nonzero;stroke:#000000;stroke-width:2.68510866;stroke-linecap:butt;stroke-linejoin:miter;stroke-miterlimit:4;stroke-opacity:1;stroke-dasharray:none;stroke-dashoffset:0"
       d="m 304.55354,362.96877 -0.004,-31.46612 -11.74735,0 -11.74735,0 0,30.90886 0,30.90886 11.75113,0.55726 11.75113,0.55726 -0.004,-31.46612 z"
       id="path3671"
       inkscape:connector-curvature="0" />
    <path
       style="fill:#000000;fill-opacity:1;fill-rule:nonzero;stroke:#000000;stroke-width:2.68510866;stroke-linecap:butt;stroke-linejoin:miter;stroke-miterlimit:4;stroke-opacity:1;stroke-dasharray:none;stroke-dashoffset:0"
       d="m 256.22164,587.84661 0.49962,-10.4887 61.67359,-0.44023 61.67358,-0.44022 0,-10.88758 0,-10.88758 12.58645,0 12.58645,0 0,-88.94422 c 0,-77.94273 1.36683,-91.88106 -0.8391,-91.88106 -1.38451,0 -4.40526,1.97188 -4.40526,1.04888 0,-0.93233 -4.2654,-1.46842 -9.85938,-1.46842 l -10.06916,0 0,11.74735 0,11.74735 -11.74735,0 -11.74735,0 0,10.90825 0,10.90825 -14.26464,0 -14.26463,0 0,-10.90825 0,-10.90825 -11.74735,0 -11.74735,0 0,10.90825 0,10.90825 -76.43445,0 -76.43445,0 0.49622,-11.3278 0.49623,-11.3278 13.00599,-0.49014 13.006,-0.49014 0,-20.90682 0,-20.90682 -12.58645,0 -12.58645,0 0,10.90826 0,10.90825 -12.58644,0 -12.58645,0 0,10.90825 0,10.90826 -13.42554,0 -13.42554,0 0,78.135 c 0,42.97427 -0.62933,77.74607 -1.39849,77.2707 -0.769193,-0.47538 -1.400323,0.0465 -1.402543,1.1596 -0.003,1.46792 4.069493,1.87594 14.824033,1.48527 l 14.82808,-0.53865 0,11.86645 0,11.86645 51.18488,0 51.18488,0 0,10.06916 0,10.06916 12.50637,0 12.50637,0 0.49963,-10.48871 z m 1.33872,-44.05256 0,-10.90825 61.25404,0 61.25403,0 0,9.78945 c 0,5.38421 -0.50345,10.29293 -1.11879,10.90825 -0.61534,0.61534 -28.17966,1.1188 -61.25404,1.1188 l -60.13524,0 z m -105.72615,0 0,-10.90825 -13.42554,0 -13.42555,0 0,-46.15031 0,-46.1503 127.54266,0 127.54265,0 0,35.24205 0,35.24205 -74.67957,0 -74.67959,0 0,21.81651 0,21.8165 -39.43753,0 -39.43753,0 z"
       id="path3673"
       inkscape:connector-curvature="0"
       sodipodi:nodetypes="ccccccccsssscccccccccccccccccccccccccccccccccsscscccccccccccccccscsccccccccccccccccccc" />
    <path
       style="fill:#000000;fill-opacity:1;fill-rule:nonzero;stroke:#000000;stroke-width:2.68510866;stroke-linecap:butt;stroke-linejoin:miter;stroke-miterlimit:4;stroke-opacity:1;stroke-dasharray:none;stroke-dashoffset:0"
       d="m 74.968427,351.22142 c 0.2794,-13.15284 0.50801,-23.92706 0.50801,-23.94272 0,-0.0157 -5.8527,0.2328 -13.006,0.55213 l -13.00599,0.58061 0,23.36211 0,23.36212 12.49798,0 12.49799,0 0.50801,-23.91425 z"
       id="path3675"
       inkscape:connector-curvature="0" />
    <path
       style="fill:#000000;fill-opacity:1;fill-rule:nonzero;stroke:#000000;stroke-width:2.68510866;stroke-linecap:butt;stroke-linejoin:miter;stroke-miterlimit:4;stroke-opacity:1;stroke-dasharray:none;stroke-dashoffset:0"
       d="m 47.786247,282.83506 0,-45.3112 -13.42554,0 -13.42554,0 0,45.3112 0,45.31121 13.42554,0 13.42554,0 0,-45.31121 z"
       id="path3677"
       inkscape:connector-curvature="0" />
    <path
       style="fill:#000000;fill-opacity:1;fill-rule:nonzero;stroke:#000000;stroke-width:2.68510866;stroke-linecap:butt;stroke-linejoin:miter;stroke-miterlimit:4;stroke-opacity:1;stroke-dasharray:none;stroke-dashoffset:0"
       d="m 96.453847,318.07711 0,-11.74735 -11.74735,0 -11.74735,0 0,8.39097 c 0,5.40521 0.35966,12.19736 0.83909,13.84509 0.53074,1.82408 7.16334,1.25864 14.26464,1.25864 l 8.39097,0 z"
       id="path3679"
       inkscape:connector-curvature="0"
       sodipodi:nodetypes="ccccssscc" />
    <path
       style="fill:#000000;fill-opacity:1;fill-rule:nonzero;stroke:#000000;stroke-width:2.68510866;stroke-linecap:butt;stroke-linejoin:miter;stroke-miterlimit:4;stroke-opacity:1;stroke-dasharray:none;stroke-dashoffset:0"
       d="m 99.810227,385.102 0,-10.11337 -12.1669,-0.34603 -12.16689,0.0735 -0.49063,10.4887 -0.49062,9.23006 12.65752,0.39024 12.65752,0.39025 z"
       id="path3683"
       inkscape:connector-curvature="0"
       sodipodi:nodetypes="ccccccccc" />
    <path
       style="fill:#000000;fill-opacity:1;fill-rule:nonzero;stroke:#000000;stroke-width:2.68510866;stroke-linecap:butt;stroke-linejoin:miter;stroke-miterlimit:4;stroke-opacity:1;stroke-dasharray:none;stroke-dashoffset:0"
       d="m 99.440817,576.93836 -0.46968,-21.39696 -12.1669,-0.49307 -12.1669,-0.49307 0,21.89003 0,21.89003 12.63659,0 12.63658,0 -0.46969,-21.39696 z"
       id="path3685"
       inkscape:connector-curvature="0" />
    <path
       style="fill:#000000;fill-opacity:1;fill-rule:nonzero;stroke:#000000;stroke-width:2.68510866;stroke-linecap:butt;stroke-linejoin:miter;stroke-miterlimit:4;stroke-opacity:1;stroke-dasharray:none;stroke-dashoffset:0"
       d="m 229.03108,610.92176 0,-10.90825 -63.77133,0 -63.77132,0 0,10.90825 0,10.90826 63.77132,0 63.77133,0 0,-10.90826 z"
       id="path3687"
       inkscape:connector-curvature="0" />
    <g
       id="g4584"
       style="fill:#ffccaa;fill-opacity:1;stroke:#ffccaa;stroke-opacity:1"
       transform="translate(-3e-6,0)">
      <path
         inkscape:connector-curvature="0"
         id="path5369"
         d="m 71.382857,326.02227 c 0.20496,-0.0827 0.26222,-2.43829 0.26222,-10.78681 l 0,-10.681 13.11088,0 13.11088,0 0,-9.64961 0,-9.64961 -13.11088,0 -13.11088,0 0,-24.33379 0,-24.3338 -11.22291,0 -11.22292,0 0,44.78677 0,44.78677 10.9607,-0.0166 c 6.02838,-0.009 11.07869,-0.0642 11.22291,-0.12237 l 0,2e-5 z"
         style="fill:#ffccaa;fill-opacity:1;fill-rule:nonzero;stroke:#ffccaa;stroke-width:0.33563858;stroke-linecap:butt;stroke-linejoin:miter;stroke-miterlimit:4;stroke-opacity:1;stroke-dasharray:none;stroke-dashoffset:0" />
      <path
         inkscape:connector-curvature="0"
         id="path4582"
         d="m 68.604172,270.71276 0,-13.78663 13.996398,0 13.996398,0 0,13.78663 0,13.78662 -13.996398,0 -13.996398,0 0,-13.78662 z"
         style="fill:#ffccaa;fill-opacity:1;fill-rule:nonzero;stroke:#ffccaa;stroke-width:1.58535218;stroke-linecap:butt;stroke-linejoin:miter;stroke-miterlimit:4;stroke-opacity:1;stroke-dasharray:none;stroke-dashoffset:0" />
    </g>
    <path
       style="fill:#ffccaa;fill-opacity:1;fill-rule:nonzero;stroke:#ffccaa;stroke-width:1.46841872;stroke-linecap:butt;stroke-linejoin:miter;stroke-miterlimit:4;stroke-opacity:1;stroke-dasharray:none;stroke-dashoffset:0"
       d="m 329.56787,295.70259 0,-9.22363 12.06201,-0.11132 12.06201,-0.11132 0.20978,-12.79622 0.20977,-12.79622 12.90111,-0.11095 12.90111,-0.11095 0,11.33386 0,11.33387 12.37667,0 12.37667,0 0,10.90825 0,10.90826 -37.54957,0 -37.54956,0 0,-9.22363 z"
       id="path5102"
       inkscape:connector-curvature="0" />
    <path
       style="fill:#2763cd;fill-opacity:1;fill-rule:nonzero;stroke:#2763cd;stroke-width:1.46841872000000010;stroke-linecap:butt;stroke-linejoin:miter;stroke-miterlimit:4;stroke-opacity:1;stroke-dasharray:none;stroke-dashoffset:0"
       d="m 153.35762,542.3905 0,-10.90825 -13.21577,0 -13.21576,0 0,-44.68189 0,-44.68188 80.02882,2.1e-4 c 44.01585,1.2e-4 100.56047,0.1257 125.65468,0.27906 l 45.62587,0.27885 0,33.28364 0,33.28364 -74.36491,0.10604 -74.36492,0.10605 -0.10863,21.92139 -0.10863,21.92139 -37.96537,0 -37.96538,0 0,-10.90825 z"
       id="path5116"
       inkscape:connector-curvature="0" />
    <path
       style="fill:#000000;fill-opacity:1;fill-rule:nonzero;stroke:#000000;stroke-width:2.96665382;stroke-linecap:butt;stroke-linejoin:bevel;stroke-miterlimit:4;stroke-opacity:1;stroke-dasharray:none;stroke-dashoffset:0"
       d="m 395.51837,306.47298 0,-22.24991 -38.87597,0 -38.87598,0 0.16115,-11.42161 0.16114,-11.42162 12.01495,0.22788 c 8.69529,0.16492 12.01495,0.042 12.01495,-0.445 0,-0.49153 7.11573,-0.67288 26.40321,-0.67288 l 26.40322,0 0,-11.86661 0,-11.86662 12.75661,0 12.75662,0 0,45.98314 0,45.98313 -12.45995,0 -12.45995,0 0,-22.2499 z"
       id="path9858"
       inkscape:connector-curvature="0"
       transform="translate(11.160292,45.990039)" />
    <path
       style="fill:#200c00;fill-opacity:1;fill-rule:nonzero;stroke:#200c00;stroke-width:2.07665777;stroke-linecap:butt;stroke-linejoin:miter;stroke-miterlimit:4;stroke-opacity:1;stroke-dasharray:none;stroke-dashoffset:0"
       d="m 147.22054,359.27853 -0.0648,-7.18684 -0.59333,-21.95324 -23.73323,0 0,-22.54657 -11.86662,0.59333 -11.866603,-0.59333 -1.18667,-22.54657 0,-14.44775 0,-14.44776 -5.43112,-0.38551 c -2.98712,-0.21204 -8.5941,-0.38551 -12.45995,-0.38551 l -8.21548,0 -3e-5,-16.46493 -4e-5,-16.46493 12.72681,0 c 8.67356,0 11.73179,-0.19147 12.31165,-0.77083 0.6074,-0.60688 0.81217,-7.10916 0.96274,-30.57004 l 0.19124,-29.79921 10.043723,0.2303 10.04371,0.23031 0,-16.68173 0,-16.68173 13.05328,0 13.05328,0 0,-14.83327 0,-14.833267 80.98964,0 80.98965,0 0,14.833267 0,14.83327 13.05327,0 13.05328,0 0,16.70665 0,16.70666 9.9897,-0.37717 9.98969,-0.37716 0.39309,32.0828 c 0.21619,17.64553 0.54256,32.32467 0.72527,32.62029 0.18271,0.29563 6.0977,0.53751 13.14444,0.53751 l 5.69228,0 -0.38462,6.67497 c -0.21154,3.67123 -0.38584,11.0137 -0.38732,16.3166 l -0.003,9.64162 -1.03833,0.004 c -4.48706,0.002 -10.36104,0.17503 -13.05327,0.38461 l -4.89498,0.38105 0,12.66867 -0.59333,34.02858 -12.45995,0 c -10.33685,-1.23671 -9.25552,-0.18978 -12.45994,0 l 0.59333,1.18666 0,22.54657 -22.35171,0.8391 -0.7882,20.52081 0,14.6122 -24.91989,-1.18666 -54.58643,0 -54.58643,0 0.59333,0.59332 -23.73323,0 z"
       id="path5096"
       inkscape:connector-curvature="0"
       sodipodi:nodetypes="ccccccccccsscccssscccccccccccccccccccscscscccscccccccccccccccc" />
  </g>
  <g
     inkscape:groupmode="layer"
     id="layer2"
     inkscape:label="Layer"
     transform="translate(-11.160292,-45.990039)" />
</svg>
