<?xml version="1.0" encoding="UTF-8" standalone="no"?>
<!-- Created with Inkscape (http://www.inkscape.org/) -->

<svg
   xmlns:dc="http://purl.org/dc/elements/1.1/"
   xmlns:cc="http://creativecommons.org/ns#"
   xmlns:rdf="http://www.w3.org/1999/02/22-rdf-syntax-ns#"
   xmlns:svg="http://www.w3.org/2000/svg"
   xmlns="http://www.w3.org/2000/svg"
   xmlns:sodipodi="http://sodipodi.sourceforge.net/DTD/sodipodi-0.dtd"
   xmlns:inkscape="http://www.inkscape.org/namespaces/inkscape"
   width="392.46875"
   height="597.28125"
   id="svg2"
   version="1.1"
   inkscape:version="0.48.4 r9939"
   sodipodi:docname="front facing david.zip">
  <defs
     id="defs4" />
  <sodipodi:namedview
     id="base"
     pagecolor="#ffffff"
     bordercolor="#666666"
     borderopacity="1.0"
     inkscape:pageopacity="0.0"
     inkscape:pageshadow="2"
     inkscape:zoom="2"
     inkscape:cx="181.8852"
     inkscape:cy="312.64135"
     inkscape:document-units="px"
     inkscape:current-layer="layer1"
     showgrid="false"
     inkscape:window-width="1366"
     inkscape:window-height="706"
     inkscape:window-x="-8"
     inkscape:window-y="-8"
     inkscape:window-maximized="1"
     fit-margin-left="10"
     fit-margin-top="10"
     fit-margin-right="10"
     fit-margin-bottom="10"
     showguides="true"
     inkscape:guide-bbox="true" />
  <metadata
     id="metadata7">
    <rdf:RDF>
      <cc:Work
         rdf:about="">
        <dc:format>image/svg+xml</dc:format>
        <dc:type
           rdf:resource="http://purl.org/dc/dcmitype/StillImage" />
        <dc:title></dc:title>
      </cc:Work>
    </rdf:RDF>
  </metadata>
  <g
     inkscape:label="Layer 1"
     inkscape:groupmode="layer"
     id="layer1"
     transform="translate(-30.4375,-31.84375)">
    <path
       style="fill:#200c00;stroke:#200c00;stroke-width:1px;stroke-linecap:butt;stroke-linejoin:miter;stroke-opacity:1;fill-opacity:1"
       d="m 329.51176,307.36747 0,-32.52691 14.14214,0 0,-28.28427 15.55635,0 0,-33.94113 -12.72793,0 0,-90.50967 -18.38477,0 0,-26.870055 -28.28427,0 0,-31.112699 -156.97771,0 -4.29794,10e-7 -32.97771,0 0,31.112703 -28.28427,0 0,26.87005 -18.384772,0 0,90.50967 -12.72793,0 0,33.94113 15.55635,0 0,28.28427 14.142142,0 0,32.52691"
       id="path10982"
       inkscape:connector-curvature="0"
       transform="translate(30.4375,31.84375)"
       sodipodi:nodetypes="cccccccccccccccccccccccccc" />
    <path
       style="fill:#ffccaa;fill-opacity:1;fill-rule:nonzero;stroke:#ffccaa;stroke-width:1.23487949;stroke-linecap:butt;stroke-linejoin:miter;stroke-miterlimit:4;stroke-opacity:1;stroke-dasharray:none;stroke-dashoffset:0"
       d="m 128.7686,114.32837 c 0,14.21893 0,28.43785 0,42.65677 -7.26937,0.0617 -14.63967,-0.12029 -21.84787,0.0891 0,6.30303 0,12.60606 0,18.90909 -7.902762,0.0614 -15.906088,-0.12002 -23.747679,0.089 0.05931,13.94939 -0.118656,27.99706 0.08905,41.88497 7.886209,0 15.772418,0 23.658629,0 0.0594,20.86586 -0.11868,41.8301 0.0891,62.63451 7.09464,0.17693 14.18927,0.35502 21.28385,0.53433 0.24078,6.47738 0.24386,13.05649 0.62338,19.47309 45.27645,-0.0595 90.65137,0.1187 135.86642,-0.089 0,-6.61967 0,-13.23933 0,-19.859 7.26937,-0.0617 14.63967,0.1203 21.84787,-0.089 0,-21.16512 0,-42.33024 0,-63.49536 8.37765,-0.23969 16.85578,-0.2429 25.17254,-0.62338 0.12352,-13.15738 0.47391,-26.4138 0.41558,-39.5102 -7.57947,0 -15.15893,0 -22.7384,0 -0.062,-6.63595 0.12066,-13.37327 -0.0891,-19.94806 -7.8862,0 -15.77242,0 -23.65862,0 -0.0602,-14.23598 0.11898,-28.57109 -0.0891,-42.74582 -45.61287,0.0593 -91.32433,-0.11869 -136.87569,0.0891 z m 29.56586,45.6846 c 5.26698,0.71185 14.9346,-2.93067 12.19951,5.69913 -0.13113,13.08131 -0.28685,26.16234 -0.44441,39.24336 -7.72588,-0.15065 -15.99915,1.09662 -23.45083,-0.26716 -1.00357,-14.86205 -0.43973,-29.78679 -0.59369,-44.67533 4.09647,0 8.19295,0 12.28942,0 z m 71.24304,0 c 4.80044,1.1735 15.41285,-3.40389 13.15946,4.74927 -0.13464,13.39793 -0.29251,26.7956 -0.45445,40.19322 -8.36271,-0.14867 -17.25998,1.09844 -25.35065,-0.26716 -1.00356,-14.86205 -0.43973,-29.78679 -0.59369,-44.67533 4.41311,0 8.82623,0 13.23933,0 z m -57.97402,91.1911 c 5.22064,0.73606 14.86013,-2.94671 12.25974,5.61039 7.57272,0.14835 15.40316,0.14835 22.97588,0 -2.6158,-8.60219 7.12763,-4.84517 12.34879,-5.61039 4.27657,1.3635 14.68098,-3.40083 13.1206,3.79963 0,6.27335 0,12.54668 0,18.82003 -7.90277,0.0614 -15.9061,-0.12001 -23.74768,0.0891 2.61579,8.60219 -7.12763,4.84516 -12.3488,5.61039 -4.32385,-0.53855 -9.88749,0.82695 -13.6846,-1.00928 -0.39362,-2.10572 0.0212,-5.22331 -3.29499,-4.57143 -6.62465,-0.25114 -13.25993,-0.0573 -19.88868,-0.11874 0,-7.53988 0,-15.07977 0,-22.61966 4.08658,0 8.17316,0 12.25974,0 z"
       id="path4301"
       inkscape:connector-curvature="0"
       transform="translate(30.4375,31.84375)" />
    <path
       style="fill:#000000;fill-opacity:1;fill-rule:nonzero;stroke:#000000;stroke-width:1.14785624;stroke-linecap:butt;stroke-linejoin:miter;stroke-miterlimit:4;stroke-opacity:1;stroke-dasharray:none;stroke-dashoffset:0"
       d="m 177.25707,203.30071 0,-10.76104 11.47854,0 11.47851,0 0,10.76104 0,10.76138 -11.47851,0 -11.47854,0 0,-10.76138 z"
       id="path6871"
       inkscape:connector-curvature="0" />
    <path
       style="fill:#000000;fill-opacity:1;fill-rule:nonzero;stroke:#000000;stroke-width:1.14785624;stroke-linecap:butt;stroke-linejoin:miter;stroke-miterlimit:4;stroke-opacity:1;stroke-dasharray:none;stroke-dashoffset:0"
       d="m 177.25707,225.37194 0,-10.76105 11.47854,0 11.47851,0 0,10.76105 0,10.76137 -11.47851,0 -11.47854,0 0,-10.76137 z"
       id="path6873"
       inkscape:connector-curvature="0" />
    <path
       style="fill:#000000;fill-opacity:1;fill-rule:nonzero;stroke:#000000;stroke-width:1.14785624;stroke-linecap:butt;stroke-linejoin:miter;stroke-miterlimit:4;stroke-opacity:1;stroke-dasharray:none;stroke-dashoffset:0"
       d="m 247.77524,203.30071 0,-10.76104 12.19598,0 12.19599,0 0,10.76104 0,10.76138 -12.19599,0 -12.19598,0 0,-10.76138 z"
       id="path6875"
       inkscape:connector-curvature="0" />
    <path
       style="fill:#000000;fill-opacity:1;fill-rule:nonzero;stroke:#000000;stroke-width:1.14785624;stroke-linecap:butt;stroke-linejoin:miter;stroke-miterlimit:4;stroke-opacity:1;stroke-dasharray:none;stroke-dashoffset:0"
       d="m 247.77524,225.37194 0,-10.76105 12.19598,0 12.19599,0 0,10.76105 0,10.76137 -12.19599,0 -12.19598,0 0,-10.76137 z"
       id="path6877"
       inkscape:connector-curvature="0" />
    <path
       style="fill:#000000;fill-opacity:1;fill-rule:nonzero;stroke:#000000;stroke-width:1.14785624;stroke-linecap:butt;stroke-linejoin:miter;stroke-miterlimit:4;stroke-opacity:1;stroke-dasharray:none;stroke-dashoffset:0"
       d="m 190.76323,294.46653 0,-10.76136 11.47852,0 11.47853,0 0,10.76136 0,10.76106 -11.47853,0 -11.47852,0 0,-10.76106 z"
       id="path6945"
       inkscape:connector-curvature="0" />
    <path
       style="fill:#000000;fill-opacity:1;fill-rule:nonzero;stroke:#000000;stroke-width:1.14785624;stroke-linecap:butt;stroke-linejoin:miter;stroke-miterlimit:4;stroke-opacity:1;stroke-dasharray:none;stroke-dashoffset:0"
       d="m 213.61904,299.7666 0,-10.76136 12.19599,0 12.19598,0 0,10.76136 0,10.76106 -12.19598,0 -12.19599,0 0,-10.76106 z"
       id="path6947"
       inkscape:connector-curvature="0" />
    <path
       style="fill:#000000;fill-opacity:1;fill-rule:nonzero;stroke:#000000;stroke-width:1.14785624;stroke-linecap:butt;stroke-linejoin:miter;stroke-miterlimit:4;stroke-opacity:1;stroke-dasharray:none;stroke-dashoffset:0"
       d="m 237.77524,294.46653 0,-10.76136 12.19598,0 12.19599,0 0,10.76136 0,10.76106 -12.19599,0 -12.19598,0 0,-10.76106 z"
       id="path6949"
       inkscape:connector-curvature="0" />
    <path
       style="fill:none;stroke:#000000;stroke-width:1px;stroke-linecap:butt;stroke-linejoin:miter;stroke-opacity:1"
       d="m 134.67611,303.52244 -51.084274,1.18739 0,19.94804 -23.272727,0 0,16.62338 67.918371,0 0,18.52319 21.37291,0 0,39.42115 93.09091,0 0,-39.42115 22.79777,0 0,-18.99814 67.91837,0 0,-16.14843 -23.27273,0 -0.084,-22.76896 -3.51442,4.40176 z"
       id="path3463"
       inkscape:connector-curvature="0"
       transform="translate(30.4375,31.84375)"
       sodipodi:nodetypes="ccccccccccccccccccc" />
    <path
       style="fill:none;stroke:#000000;stroke-width:1px;stroke-linecap:butt;stroke-linejoin:miter;stroke-opacity:1"
       d="m 105.4397,341.5356 0,20.64361 19.94805,0 0,38.9462 -20.423,0 0,18.52319 -46.545455,0 0,-18.52319 -22.32282,0 0,-39.89611 24.222634,0 0,-19.94805 m 24.980753,-40.03522 -27.523442,0 0.167921,21.03708 -23.272727,0 0,37.99629 -22.797774,0 0,60.79406 23.272728,0 0,21.84786 91.666052,0 0,-23.74768 140.11131,0 0,22.79778 92.37848,0 0,-21.61039 23.27273,0 0,-60.31911 -23.51021,0 0,-38.47124 -25.64749,0 0,-19.71058 -23.74768,0 m 23.60856,39.39319 0,20.92592 24.36175,0 0,38.70872 -23.27272,0 0,19.71057 -45.59555,0 0,-19.47309 -23.27273,0 0,-39.89611 22.5603,0 0,-20.89796"
       id="path3465"
       inkscape:connector-curvature="0"
       transform="translate(30.4375,31.84375)"
       sodipodi:nodetypes="cccccccccccccccccccccccccccccccccccccccccccccc" />
    <path
       style="fill:none;stroke:#000000;stroke-width:1px;stroke-linecap:butt;stroke-linejoin:miter;stroke-opacity:1"
       d="m 334.16371,442.12182 0,62.80263 -21.15811,0 0,18.8072 -23.84484,0 0,44.16334 -23.50901,0 0,19.47889 -140.71818,0 0,-19.64681 -21.49395,0 0,-44.49918 -20.822261,0 0,-17.79968 -25.020298,0 0,-62.97055"
       id="path3467"
       inkscape:connector-curvature="0"
       transform="translate(30.4375,31.84375)" />
    <path
       style="fill:none;stroke:#000000;stroke-width:1px;stroke-linecap:butt;stroke-linejoin:miter;stroke-opacity:1"
       d="m 82.449437,443.12935 0,59.78004 228.541113,0 0,-61.12341"
       id="path3469"
       inkscape:connector-curvature="0"
       transform="translate(30.4375,31.84375)" />
    <path
       style="fill:none;stroke:#000000;stroke-width:1px;stroke-linecap:butt;stroke-linejoin:miter;stroke-opacity:1"
       d="m 126.61278,522.05244 140.21442,0 0,43.65958 -140.0465,0 z"
       id="path3471"
       inkscape:connector-curvature="0"
       transform="translate(30.4375,31.84375)" />
    <path
       style="fill:#000000;fill-opacity:1;fill-rule:nonzero;stroke:#000000;stroke-width:0.87319165;stroke-linecap:butt;stroke-linejoin:miter;stroke-miterlimit:4;stroke-opacity:1;stroke-dasharray:none;stroke-dashoffset:0"
       d="m 106.17813,342.19877 c 0.0722,6.51255 -0.14165,13.14355 0.10495,19.58384 6.45798,0 12.91596,0 19.37394,0 0,13.36375 0,26.7275 0,40.09125 -6.70226,0.0702 -13.52065,-0.1399 -20.15057,0.10495 0,6.01019 0,12.02038 0,18.03057 -15.826602,0 -31.653199,0 -47.479797,0 -0.07266,-6.02957 0.141836,-12.17808 -0.104951,-18.13552 -7.353561,0 -14.707121,0 -22.060682,0 -0.07043,-13.75487 0.140071,-27.62612 -0.104951,-41.30868 -7.856362,0.19236 -15.830186,0.11922 -23.613955,0.50377 0.07001,19.70227 -0.139942,39.5205 0.104951,59.15033 7.801351,0 15.602702,0 23.404053,0 0.07191,7.37325 -0.141123,14.86453 0.104951,22.16564 30.246272,-0.0702 60.608632,0.13992 90.782541,-0.10495 0,-7.80135 0,-15.60271 0,-23.40406 46.94804,0 93.89608,0 140.84412,0 0.0702,7.59786 -0.13989,15.31181 0.10496,22.83732 30.35825,-0.18185 60.83253,-0.085 91.11838,-0.44079 0.12499,-7.24163 0.25091,-14.48325 0.37782,-21.72484 7.58382,-0.0703 15.28386,0.14 22.79534,-0.10495 -0.0703,-19.49923 0.14002,-39.11473 -0.10495,-58.54162 -7.71957,0.0587 -15.69077,-0.0256 -23.27811,-0.18891 -1.26726,11.95447 -0.1123,24.17628 -0.31677,36.2282 2.03268,6.07721 -4.21617,3.95773 -8.01634,4.26186 -4.91842,0.0694 -9.95222,-0.1397 -14.79807,0.10495 -0.1249,6.56995 -0.25083,13.13987 -0.37783,19.70978 -15.49084,0.10797 -30.9816,0.22692 -46.47226,0.35683 -0.0723,-6.48449 0.14157,-13.08754 -0.10495,-19.49988 -7.80135,0 -15.60271,0 -23.40406,0 -0.0701,-13.86697 0.13988,-27.84993 -0.10495,-41.64452 -7.18512,0.07 -14.48623,-0.14 -21.5989,0.10495 0,13.17484 0,26.34968 0,39.52452 -31.27537,0 -62.55074,0 -93.82611,0 -0.0708,-13.19501 0.14017,-26.50669 -0.10495,-39.62947 -7.12967,0 -14.25934,0 -21.389,0 -0.0727,-6.02957 0.14183,-12.17808 -0.10495,-18.13552 -7.18453,0.0697 -14.48709,-0.13952 -21.5989,0.10495 z"
       id="path4277"
       inkscape:connector-curvature="0"
       transform="translate(30.4375,31.84375)" />
    <path
       style="fill:#000000;fill-opacity:1;fill-rule:nonzero;stroke:#000000;stroke-width:0.87319165;stroke-linecap:butt;stroke-linejoin:miter;stroke-miterlimit:4;stroke-opacity:1;stroke-dasharray:none;stroke-dashoffset:0"
       d="m 58.488437,301.89762 c 0,6.90577 0,13.81154 0,20.71731 -7.821111,0.0717 -15.76004,-0.14096 -23.509005,0.10495 0.214426,12.40274 -0.483634,25.02226 0.545745,37.29956 8.127181,0.6583 16.434572,0.43647 24.516533,0.31485 0,-12.05536 0,-24.11072 0,-36.16608 7.597863,-0.0702 15.311805,0.13989 22.837319,-0.10495 -0.07174,-7.40831 0.141225,-14.93454 -0.104951,-22.27059 -8.080179,0.0697 -16.278146,-0.13957 -24.285641,0.10495 z"
       id="path4279"
       inkscape:connector-curvature="0"
       transform="translate(30.4375,31.84375)" />
    <path
       style="fill:#000000;fill-opacity:1;fill-rule:nonzero;stroke:#000000;stroke-width:0.87319165;stroke-linecap:butt;stroke-linejoin:miter;stroke-miterlimit:4;stroke-opacity:1;stroke-dasharray:none;stroke-dashoffset:0"
       d="m 266.03936,341.52709 c 0.07,6.28953 -0.14002,12.69508 0.10495,18.91215 7.18513,-0.07 14.48624,0.14 21.5989,-0.10495 -0.07,-6.28953 0.14002,-12.69508 -0.10495,-18.91215 -7.18453,0.0697 -14.48708,-0.13953 -21.5989,0.10495 z"
       id="path4281"
       inkscape:connector-curvature="0"
       transform="translate(30.4375,31.84375)" />
    <path
       style="fill:#000000;fill-opacity:1;fill-rule:nonzero;stroke:#000000;stroke-width:0.87319165;stroke-linecap:butt;stroke-linejoin:miter;stroke-miterlimit:4;stroke-opacity:1;stroke-dasharray:none;stroke-dashoffset:0"
       d="m 310.37063,302.56931 c 0.07,7.18512 -0.14,14.48623 0.10495,21.5989 7.80135,0 15.6027,0 23.40405,0 0.0701,12.5236 -0.13987,25.16319 0.10495,37.6144 7.80792,-0.39327 15.90129,0.80811 23.55099,-0.71366 1.242,-4.6177 0.3403,-10.04409 0.71638,-14.92388 -0.0258,-8.05319 0.14528,-16.22121 -0.0867,-24.20182 -8.47303,0 -16.94607,0 -25.41911,0 -0.0724,-6.47748 0.14155,-13.07354 -0.10495,-19.47889 -7.40769,0.0713 -14.9354,-0.14062 -22.27058,0.10495 z"
       id="path4283"
       inkscape:connector-curvature="0"
       transform="translate(30.4375,31.84375)" />
    <path
       style="fill:#000000;fill-opacity:1;fill-rule:nonzero;stroke:#000000;stroke-width:0.87319165;stroke-linecap:butt;stroke-linejoin:miter;stroke-miterlimit:4;stroke-opacity:1;stroke-dasharray:none;stroke-dashoffset:0"
       d="m 311.714,442.95165 c -0.20877,20.36461 0.48558,40.85903 -0.56673,61.1444 -0.12587,1.7971 3.04539,-0.5383 3.98694,0.25384 6.07667,-0.34222 12.27528,0.002 18.28364,-0.27483 -0.0703,-20.39481 0.14,-40.90588 -0.10495,-61.22836 -7.18453,0.0697 -14.48709,-0.13953 -21.5989,0.10495 z"
       id="path4285"
       inkscape:connector-curvature="0"
       transform="translate(30.4375,31.84375)" />
    <path
       style="fill:#000000;fill-opacity:1;fill-rule:nonzero;stroke:#000000;stroke-width:0.87319165;stroke-linecap:butt;stroke-linejoin:miter;stroke-miterlimit:4;stroke-opacity:1;stroke-dasharray:none;stroke-dashoffset:0"
       d="m 134.8927,503.31942 c -17.20595,0.29699 -34.51662,-0.4591 -51.656838,0.81861 -0.772999,1.70045 0.474039,4.56534 0.06297,6.61191 0.158391,4.06486 -0.120103,8.24481 0.146931,12.23728 6.90577,0 13.81154,0 20.717307,0 0.0701,14.76256 -0.13988,29.6411 0.10496,44.33126 7.12966,0 14.25933,0 21.38899,0 0.0724,6.47749 -0.14155,13.07354 0.10495,19.47889 46.36677,-0.0701 92.84955,0.13991 139.14392,-0.10495 0.38987,-6.44611 -0.79378,-13.38561 0.73466,-19.58384 -3.40394,-0.76449 -8.28296,-0.16652 -12.19528,-0.42483 -42.23161,-0.28147 -84.46451,-0.167 -126.69676,-0.24685 -1.23604,-14.89687 -0.77872,-29.86234 -0.88159,-44.79305 47.18593,0 94.37186,0 141.55779,0 -0.0556,15.21023 -0.39506,30.53682 -0.27287,45.67463 7.0657,-0.0712 14.24876,0.141 21.24207,-0.10495 0.1294,-14.63007 0.24844,-29.26023 0.35683,-43.89047 7.93317,-0.20143 15.98357,-0.11314 23.84485,-0.46178 -0.49848,-5.83679 1.0531,-12.15817 -0.96555,-17.71572 -2.95067,-2.55809 -7.74841,-0.96856 -11.37668,-1.59525 -55.11706,-0.47343 -110.24167,-0.17499 -165.36066,-0.23089 z"
       id="path4287"
       inkscape:connector-curvature="0"
       transform="translate(30.4375,31.84375)" />
    <path
       style="fill:#000000;fill-opacity:1;fill-rule:nonzero;stroke:#000000;stroke-width:0.87319165;stroke-linecap:butt;stroke-linejoin:miter;stroke-miterlimit:4;stroke-opacity:1;stroke-dasharray:none;stroke-dashoffset:0"
       d="m 57.816751,443.62334 c 0.07033,20.39481 -0.140004,40.90588 0.104951,61.22836 8.142477,-0.34972 16.567721,0.70782 24.558514,-0.58773 -0.04436,-9.07514 -0.341719,-18.63402 -0.272873,-27.87496 -0.06995,-10.94239 0.140027,-22.00073 -0.104951,-32.87062 -8.080179,0.0697 -16.278146,-0.13958 -24.285641,0.10495 z"
       id="path4289"
       inkscape:connector-curvature="0"
       transform="translate(30.4375,31.84375)" />
    <path
       style="fill:none;stroke:#000000;stroke-width:1px;stroke-linecap:butt;stroke-linejoin:miter;stroke-opacity:1"
       d="m 83.829313,325.3703 44.883117,0 0.23748,35.38405"
       id="path4291"
       inkscape:connector-curvature="0"
       transform="translate(30.4375,31.84375)"
       sodipodi:nodetypes="ccc" />
    <path
       style="fill:none;stroke:#000000;stroke-width:1px;stroke-linecap:butt;stroke-linejoin:miter;stroke-opacity:1"
       d="m 265.2616,360.04192 -0.23748,-34.90909 46.54545,0"
       id="path4293"
       inkscape:connector-curvature="0"
       transform="translate(30.4375,31.84375)"
       sodipodi:nodetypes="ccc" />
    <path
       style="fill:#000000;fill-opacity:1;fill-rule:nonzero;stroke:#000000;stroke-width:0.30871987;stroke-linecap:butt;stroke-linejoin:miter;stroke-miterlimit:4;stroke-opacity:1;stroke-dasharray:none;stroke-dashoffset:0"
       d="m 319.84853,325.02373 c -3.36976,-0.0383 -6.74092,0.0624 -10.07033,0.3469 -14.71005,0.2068 -29.42262,0.0873 -44.13375,0.12064 -0.22518,4.86005 -0.0321,9.89336 -0.0965,14.82003 6.12662,0.22516 12.42645,0.0321 18.61967,0.0965 16.22758,0 32.45516,0 48.68274,0 0.22518,-5.01838 0.0321,-10.21 0.0965,-15.29499 -4.28013,-0.22096 -8.75397,-0.0408 -13.09833,-0.0891 z"
       id="path4295"
       inkscape:connector-curvature="0"
       transform="translate(30.4375,31.84375)" />
    <path
       style="fill:#000000;fill-opacity:1;fill-rule:nonzero;stroke:#000000;stroke-width:0.30871987;stroke-linecap:butt;stroke-linejoin:miter;stroke-miterlimit:4;stroke-opacity:1;stroke-dasharray:none;stroke-dashoffset:0"
       d="m 75.757838,325.06084 c -4.96648,0.0842 -10.039222,-0.078 -14.938776,0.17069 0.02708,5.20359 -0.211591,10.51422 -0.02968,15.6512 22.486085,0 44.972168,0 67.458248,0 0.1814,-4.89975 -0.0568,-9.97264 -0.0297,-14.93877 -6.12659,-0.24098 -12.4264,-0.0654 -18.6196,-0.14614 -8.45858,-0.10119 -16.930941,0.11909 -25.380397,-0.27687 -0.528169,-0.26315 -1.089331,-0.532 -1.795918,-0.423 -2.220718,-0.0668 -4.442853,-0.0398 -6.664193,-0.0371 z"
       id="path4297"
       inkscape:connector-curvature="0"
       transform="translate(30.4375,31.84375)" />
    <path
       style="fill:#0d0d0d;fill-opacity:1;fill-rule:nonzero;stroke:#0d0d0d;stroke-width:0.87319164999999999;stroke-linecap:butt;stroke-linejoin:miter;stroke-miterlimit:4;stroke-opacity:1;stroke-dasharray:none;stroke-dashoffset:0"
       d="m 83.82033,301.89762 c 0.07001,7.63292 -0.139987,15.38182 0.104951,22.94227 15.189896,0 30.379789,0 45.569689,0 0.071,11.40377 -0.14031,22.92442 0.10495,34.25598 6.90577,0 13.81154,0 20.71731,0 0.0708,13.19501 -0.14017,26.50669 0.10495,39.62947 30.46325,-0.07 61.04244,0.13994 91.43324,-0.10496 0.12939,-13.06279 0.24844,-26.12568 0.35683,-39.18867 7.4855,-0.19718 15.08817,-0.11712 22.50147,-0.48277 0,-11.36968 0,-22.73936 0,-34.10905 14.98623,-0.0706 30.08898,0.14008 45.00296,-0.10495 -0.0721,-7.3382 0.61625,-15.26958 0.37,-22.53563 -73.7073,-1.41794 -147.43586,-0.68077 -221.152565,-0.88159 -1.52285,0.08 -3.666721,0.32154 -5.113785,0.5799 z"
       id="path4305"
       inkscape:connector-curvature="0"
       transform="translate(30.4375,31.84375)"
       sodipodi:nodetypes="cccccccccccccc" />
    <path
       style="fill:#ffccaa;fill-opacity:1;fill-rule:nonzero;stroke:#ffccaa;stroke-width:0.56568545;stroke-linecap:butt;stroke-linejoin:miter;stroke-miterlimit:4;stroke-opacity:1;stroke-dasharray:none;stroke-dashoffset:0"
       d="m 288.45035,341.35303 c 0,6.80222 0,13.60444 0,20.40666 -7.52866,0.0665 -15.16731,-0.13255 -22.62742,0.0994 0.0666,12.86506 -0.13268,25.84026 0.0994,38.63676 7.74502,0 15.49005,0 23.23508,0 0.0674,6.46763 -0.13308,13.04621 0.0994,19.44544 14.86865,-0.0663 29.84716,0.1326 44.64716,-0.0994 0,-6.44867 0,-12.89734 0,-19.346 7.76437,-0.0665 15.63871,0.13255 23.33453,-0.0994 -0.0663,-12.51163 0.1326,-25.13312 -0.0994,-37.57609 -8.09858,0 -16.19716,0 -24.29575,0 -0.0672,-7.1748 0.13296,-14.46037 -0.0994,-21.56676 -14.75044,0.0664 -29.61185,-0.13246 -44.29361,0.0994 z"
       id="path4313"
       inkscape:connector-curvature="0"
       transform="translate(30.4375,31.84375)" />
    <path
       style="fill:#ffccaa;fill-opacity:1;fill-rule:nonzero;stroke:#ffccaa;stroke-width:0.56568545;stroke-linecap:butt;stroke-linejoin:miter;stroke-miterlimit:4;stroke-opacity:1;stroke-dasharray:none;stroke-dashoffset:0"
       d="m 60.952263,341.70658 c -0.06786,6.62539 -0.13057,13.25084 -0.187826,19.87633 -8.058899,0.12354 -16.228291,-0.011 -24.218407,0.28726 0.06662,12.86137 -0.132674,25.83289 0.09944,38.62571 7.391476,0 14.782951,0 22.174427,0 0.06746,6.23189 -0.133139,12.57483 0.09944,18.73833 15.22211,-0.0665 30.554282,0.13263 45.707823,-0.0994 0,-6.21296 0,-12.42593 0,-18.63889 6.70336,-0.0673 13.5176,0.13304 20.15255,-0.0994 -0.0663,-12.51163 0.13261,-25.13312 -0.0994,-37.57609 -6.56652,0 -13.13303,0 -19.69955,0 -0.0665,-7.05725 0.13255,-14.2245 -0.0994,-21.21321 -14.629002,0.0662 -29.368774,-0.13245 -43.929011,0.0994 z"
       id="path4315"
       inkscape:connector-curvature="0"
       transform="translate(30.4375,31.84375)" />
    <path
       style="fill:#2763cd;fill-opacity:1;fill-rule:nonzero;stroke:#2763cd;stroke-width:0.56568545000000003;stroke-linecap:butt;stroke-linejoin:miter;stroke-miterlimit:4;stroke-opacity:1;stroke-dasharray:none;stroke-dashoffset:0"
       d="m 127.40925,419.84188 c 0,7.86288 0,15.72576 0,23.58864 -14.83548,0.0664 -29.780842,-0.13254 -44.547726,0.0994 0,19.56328 0,39.12657 0,58.68986 18.689096,0.23203 37.556686,0.0331 56.314426,0.0994 57.03995,0 114.0799,0 171.11984,0 0.23199,-18.74804 0.033,-37.67458 0.0994,-56.49121 0.44613,-2.50963 -0.0142,-4.29259 -2.92787,-3.45819 -13.63758,0 -27.27517,0 -40.91275,0 -0.0665,-7.52866 0.13255,-15.16731 -0.0994,-22.62742 -46.31549,0 -92.63099,0 -138.94648,0 l -0.0994,0.0994 z"
       id="path4317"
       inkscape:connector-curvature="0"
       transform="translate(30.4375,31.84375)" />
    <path
       style="fill:#665c36;fill-opacity:1;fill-rule:nonzero;stroke:#665c36;stroke-width:0.56568545000000003;stroke-linecap:butt;stroke-linejoin:miter;stroke-miterlimit:4;stroke-opacity:1;stroke-dasharray:none;stroke-dashoffset:0"
       d="m 127.0557,522.72592 c 0.12633,14.16084 -0.3229,28.44366 0.56347,42.52584 46.16082,0 92.32163,0 138.48245,0 0.23204,-14.0929 0.0331,-28.3643 0.0994,-42.52584 -18.68909,-0.23204 -37.55668,-0.0331 -56.31442,-0.0994 -27.57717,0 -55.15433,0 -82.73149,0 l -0.0994,0.0994 z"
       id="path4319"
       inkscape:connector-curvature="0"
       transform="translate(30.4375,31.84375)" />
  </g>
  <g
     inkscape:groupmode="layer"
     id="layer2"
     inkscape:label="Layer"
     transform="translate(-30.4375,-31.84375)" />
</svg>
