<?xml version="1.0" encoding="UTF-8" standalone="no"?>
<!-- Created with Inkscape (http://www.inkscape.org/) -->

<svg
   xmlns:dc="http://purl.org/dc/elements/1.1/"
   xmlns:cc="http://creativecommons.org/ns#"
   xmlns:rdf="http://www.w3.org/1999/02/22-rdf-syntax-ns#"
   xmlns:svg="http://www.w3.org/2000/svg"
   xmlns="http://www.w3.org/2000/svg"
   xmlns:sodipodi="http://sodipodi.sourceforge.net/DTD/sodipodi-0.dtd"
   xmlns:inkscape="http://www.inkscape.org/namespaces/inkscape"
   width="413.84235"
   height="517.84308"
   id="svg2"
   version="1.1"
   inkscape:version="0.48.4 r9939"
   sodipodi:docname="climbing1.zip">
  <defs
     id="defs4" />
  <sodipodi:namedview
     id="base"
     pagecolor="#ffffff"
     bordercolor="#666666"
     borderopacity="1.0"
     inkscape:pageopacity="0.0"
     inkscape:pageshadow="2"
     inkscape:zoom="0.84270027"
     inkscape:cx="243.50577"
     inkscape:cy="315.31058"
     inkscape:document-units="px"
     inkscape:current-layer="layer1"
     showgrid="false"
     inkscape:window-width="1366"
     inkscape:window-height="706"
     inkscape:window-x="-8"
     inkscape:window-y="-8"
     inkscape:window-maximized="1"
     fit-margin-left="0"
     fit-margin-top="0"
     fit-margin-right="0"
     fit-margin-bottom="0"
     showguides="true"
     inkscape:guide-bbox="true" />
  <metadata
     id="metadata7">
    <rdf:RDF>
      <cc:Work
         rdf:about="">
        <dc:format>image/svg+xml</dc:format>
        <dc:type
           rdf:resource="http://purl.org/dc/dcmitype/StillImage" />
        <dc:title></dc:title>
      </cc:Work>
    </rdf:RDF>
  </metadata>
  <g
     inkscape:label="Layer 1"
     inkscape:groupmode="layer"
     id="layer1"
     transform="translate(-19.592612,-105.32952)">
    <g
       id="g3351"
       transform="matrix(-1,0,0,1,453.02758,0)">
      <path
         inkscape:connector-curvature="0"
         id="path3349"
         d="m 48.568296,252.87999 0,77.84065 25.775358,0 0,-23.74799 25.775356,0 0,-57.1711 -51.550714,0 z"
         style="fill:#032385;fill-opacity:1;stroke:#032385;stroke-width:1.05371475px;stroke-linecap:butt;stroke-linejoin:miter;stroke-opacity:1" />
      <path
         sodipodi:nodetypes="cccc"
         inkscape:connector-curvature="0"
         id="path3347"
         d="m 47.702342,251.45288 50.345785,0 -0.419548,-42.79392 -49.506689,0"
         style="fill:#ffccaa;fill-opacity:1;stroke:#ffccaa;stroke-width:1px;stroke-linecap:butt;stroke-linejoin:miter;stroke-opacity:1" />
      <path
         sodipodi:nodetypes="sscccccccccs"
         inkscape:connector-curvature="0"
         id="path4638"
         d="m 76.929449,327.57849 c -0.091,-1.99726 -0.0408,-2.03274 -2.07666,-1.70236 l -2.07666,0.33699 0,-10.16425 0,-10.16426 12.16328,0 12.16329,0 0,11.86662 0.59333,22.84323 -10.08663,0 -10.08662,0 z"
         style="fill:#032385;fill-opacity:1;fill-rule:nonzero;stroke:#032385;stroke-width:2.07665777;stroke-linecap:butt;stroke-linejoin:miter;stroke-miterlimit:4;stroke-opacity:1;stroke-dasharray:none;stroke-dashoffset:0" />
      <path
         sodipodi:nodetypes="cscccscccccccccccccccc"
         inkscape:connector-curvature="0"
         id="path5114"
         d="m 153.53608,408.86928 c 0.15149,-4.44196 0.3787,-8.78429 0.50492,-9.64961 l 0.22948,-1.5733 12.71041,0 12.71041,0 0.25298,-0.94398 c 0.13914,-0.5192 -0.33777,-4.18758 -0.33462,-16.12897 l -1.18066,-5.39503 49.71646,0 54.16644,-0.89 -3.25732,4.85261 c 0.003,11.47988 0.7129,15.364 0.85204,15.88319 l 0.25297,0.94399 11.27887,0 11.27887,0 0,10.4887 0,10.48871 -74.72807,0 -74.72807,0 0.27543,-8.07631 2e-5,0 z"
         style="fill:#032385;fill-opacity:1;fill-rule:nonzero;stroke:#032385;stroke-width:1.46841872;stroke-linecap:butt;stroke-linejoin:miter;stroke-miterlimit:4;stroke-opacity:1;stroke-dasharray:none;stroke-dashoffset:0" />
      <path
         inkscape:connector-curvature="0"
         id="path4116"
         d="m 101.19668,384.6252 c 0,-5.86063 -0.081,-10.86685 -0.18007,-11.12495 -0.16021,-0.41749 -1.540271,-0.46926 -12.508571,-0.46926 l -12.32848,0 0.19801,-17.57742 c 0.10891,-9.66759 0.28469,-19.0793 0.39061,-20.91491 l 0.19259,-3.33749 10.48629,0 10.4863,0 0,-11.27328 0,-11.27329 11.421621,0 11.42162,0 0,32.78153 0,32.78152 2.96665,0 2.96666,0 0,10.53162 0,10.53162 -12.75662,0 -12.75661,0 0,-10.65569 z"
         style="fill:#032385;fill-opacity:1;fill-rule:nonzero;stroke:#032385;stroke-width:1.03832889;stroke-linecap:butt;stroke-linejoin:miter;stroke-miterlimit:4;stroke-opacity:1;stroke-dasharray:none;stroke-dashoffset:0" />
      <path
         inkscape:connector-curvature="0"
         id="path5133"
         d="m 257.05917,543.25452 0,-10.86005 61.45288,0 61.45287,0 -0.23414,10.36806 c -0.1288,5.70241 -0.36833,10.52089 -0.5323,10.70772 -0.16397,0.18681 -27.71241,0.40822 -61.21873,0.49199 l -60.92058,0.15232 0,-10.86004 z"
         style="fill:#002255;fill-opacity:1;fill-rule:nonzero;stroke:#002255;stroke-width:1.61468303;stroke-linecap:butt;stroke-linejoin:miter;stroke-miterlimit:4;stroke-opacity:1;stroke-dasharray:none;stroke-dashoffset:0" />
      <path
         inkscape:connector-curvature="0"
         id="path5118"
         d="m 101.22532,590.24921 c -0.15412,-4.58266 -0.28013,-14.4312 -0.28004,-21.88566 l 1.6e-4,-13.55355 13.04085,-0.1269 13.04085,-0.1269 0,12.45841 0,12.45841 52.16891,0 52.1689,0 0,9.55415 0,9.55414 -64.92971,0 -64.92971,0 -0.28021,-8.3321 z"
         style="fill:#002255;fill-opacity:1;fill-rule:nonzero;stroke:#002255;stroke-width:1.52570546;stroke-linecap:butt;stroke-linejoin:miter;stroke-miterlimit:4;stroke-opacity:1;stroke-dasharray:none;stroke-dashoffset:0" />
      <path
         sodipodi:nodetypes="ccccccccccccccccccccccccccccccccccc"
         inkscape:connector-curvature="0"
         id="path3651"
         d="m 380.61325,259.83265 25.59244,0 0,22.23605 26.01199,0 0,93.55926 -26.43154,0 0,179.56663 -24.75334,0 0,23.07515 -123.76672,0 0,21.81651 -27.27064,0 0,22.23605 -130.059941,0 0,-22.6556 -25.59244,0 0,-46.1503 25.59244,0 0,-157.33058 -26.43154,0 0,-20.13832 -24.75334,0 0,-46.56985 -28.10973,0 0,-92.72015 27.27063,0 0,89.99309 24.3338,0 m 3.35638,3.56616 0,43.21346 24.753351,0 0,22.23606 26.85108,0 0,-22.23606 26.01199,0"
         style="fill:none;stroke:#000000;stroke-width:1px;stroke-linecap:butt;stroke-linejoin:miter;stroke-opacity:1" />
      <path
         sodipodi:nodetypes="cccccccc"
         inkscape:connector-curvature="0"
         id="path3653"
         d="m 179.23011,374.15954 0,22.86537 -26.43154,0 0,20.55787 150.61781,0 0,-22.23606 -22.6556,0 0,-43.21346"
         style="fill:none;stroke:#000000;stroke-width:1px;stroke-linecap:butt;stroke-linejoin:miter;stroke-opacity:1" />
      <path
         sodipodi:nodetypes="cccc"
         inkscape:connector-curvature="0"
         id="path3655"
         d="m 380.61325,260.2522 0,22.23605 24.75334,0 -0.29667,93.97818"
         style="fill:none;stroke:#000000;stroke-width:1px;stroke-linecap:butt;stroke-linejoin:miter;stroke-opacity:1" />
      <path
         sodipodi:nodetypes="cccccccccc"
         inkscape:connector-curvature="0"
         id="path3657"
         d="m 405.78614,330.7363 0,42.37437 -26.43154,0 0,22.6556 -23.07515,0 0,22.6556 -26.85108,0 0,-23.07515 -24.3338,0 0,-64.61042"
         style="fill:none;stroke:#000000;stroke-width:1px;stroke-linecap:butt;stroke-linejoin:miter;stroke-opacity:1" />
      <path
         inkscape:connector-curvature="0"
         id="path3659"
         d="m 378.93505,441.91657 0,67.96681 -148.52006,0 0,44.47211 -78.03597,0 0,-22.23605 -26.01198,0 0,-91.04196 z"
         style="fill:none;stroke:#000000;stroke-width:1px;stroke-linecap:butt;stroke-linejoin:miter;stroke-opacity:1" />
      <path
         sodipodi:nodetypes="ccccc"
         inkscape:connector-curvature="0"
         id="path3661"
         d="m 378.51551,553.5164 -120.82988,0 0,-20.13832 121.24943,0.41955 z"
         style="fill:none;stroke:#000000;stroke-width:1px;stroke-linecap:butt;stroke-linejoin:miter;stroke-opacity:1" />
      <path
         inkscape:connector-curvature="0"
         id="path3663"
         d="m 127.20613,555.61414 0,23.4947 102.36977,0 0,19.29922 -129.22085,0 0,-42.79392 z"
         style="fill:none;stroke:#000000;stroke-width:1px;stroke-linecap:butt;stroke-linejoin:miter;stroke-opacity:1" />
      <path
         sodipodi:nodetypes="cccccccccssc"
         inkscape:connector-curvature="0"
         id="path3667"
         d="m 418.24732,375.48735 13.84509,-0.48742 0,-46.08243 0,-46.08244 -12.58644,0 -12.58645,0 -0.59333,8.18737 c 1.88973,34.76961 -5.27544,56.3133 7.68136,40.87869 l -7.08803,-2.07666 0,21.67666 c 0,15.82296 -0.56649,21.87897 -2.09774,22.42585 -4.30245,1.53659 -0.0239,2.03387 13.42554,1.56038 z"
         style="fill:#000000;fill-opacity:1;fill-rule:nonzero;stroke:#000000;stroke-width:2.68510866;stroke-linecap:butt;stroke-linejoin:miter;stroke-miterlimit:4;stroke-opacity:1;stroke-dasharray:none;stroke-dashoffset:0" />
      <path
         inkscape:connector-curvature="0"
         id="path3669"
         d="m 405.24133,271.08771 0,-10.06915 -11.74735,0 -11.74735,0 0,10.06915 0,10.06916 11.74735,0 11.74735,0 0,-10.06916 z"
         style="fill:#000000;fill-opacity:1;fill-rule:nonzero;stroke:#000000;stroke-width:2.68510866;stroke-linecap:butt;stroke-linejoin:miter;stroke-miterlimit:4;stroke-opacity:1;stroke-dasharray:none;stroke-dashoffset:0" />
      <path
         sodipodi:nodetypes="cccccccccc"
         inkscape:connector-curvature="0"
         id="path3671"
         d="m 304.55354,362.96877 -0.004,-31.46612 -11.74735,0 -11.74735,0 0,30.90886 0,32.09552 11.75113,-0.6294 11.75113,0.55726 -0.004,-31.46612 z"
         style="fill:#000000;fill-opacity:1;fill-rule:nonzero;stroke:#000000;stroke-width:2.68510866;stroke-linecap:butt;stroke-linejoin:miter;stroke-miterlimit:4;stroke-opacity:1;stroke-dasharray:none;stroke-dashoffset:0" />
      <path
         sodipodi:nodetypes="ccccccccsssscccccccccccccccccccccccccccccccccsscscccccccccccccccscscccccccccccccccccc"
         inkscape:connector-curvature="0"
         id="path3673"
         d="m 256.22164,587.84661 0.49962,-10.4887 61.67359,-0.44023 61.67358,-0.44022 0,-10.88758 0,-10.88758 12.58645,0 12.58645,0 0,-88.94422 c 0,-77.94273 1.36683,-91.88106 -0.8391,-91.88106 -1.38451,0 -3.51526,1.37855 -3.51526,0.45555 0,-0.93233 -5.16509,0.0473 -10.74938,-0.28176 l -9.77249,0 -0.29667,11.15402 0,11.74735 -11.74735,0 -11.74735,0 0,10.90825 0,10.90825 -14.26464,0 -14.26463,0 0,-10.90825 0,-10.90825 -11.74735,0 -11.74735,0 0,10.90825 0,10.90825 -76.43445,0 -76.43445,0 0.49622,-11.3278 0.49623,-11.3278 13.00599,-0.49014 13.006,-0.49014 0,-20.90682 -0.41955,1.32924 -12.58645,0 -12.58645,0 0,10.90826 0.41955,-11.32781 -12.58644,0 -12.58645,0 0,10.90825 0,10.90826 -13.42554,0 -13.42554,0 0,78.135 c 0,42.97427 -0.62933,77.74607 -1.39849,77.2707 -0.769191,-0.47538 -1.400321,0.0465 -1.402541,1.1596 -0.003,1.46792 4.069491,1.87594 14.824031,1.48527 l 14.82808,-0.53865 0,11.86645 0,11.86645 51.18488,0 51.18488,0 0,10.06916 0,10.06916 12.50637,0 12.50637,0 z m 1.33872,-44.05256 0,-10.90825 61.25404,0 61.25403,0 0,9.78945 c 0,5.38421 -0.50345,10.29293 -1.11879,10.90825 -0.61534,0.61534 -28.17966,1.1188 -61.25404,1.1188 l -60.13524,0 z m -105.72615,0 0,-10.90825 -13.42554,0 -13.42555,0 0,-46.15031 0,-46.1503 127.54266,0 127.54265,0 0,35.24205 0,35.24205 -74.67957,0 -74.67959,0 0,21.81651 0,21.8165 -39.43753,0 -39.43753,0 z"
         style="fill:#000000;fill-opacity:1;fill-rule:nonzero;stroke:#000000;stroke-width:2.68510866;stroke-linecap:butt;stroke-linejoin:miter;stroke-miterlimit:4;stroke-opacity:1;stroke-dasharray:none;stroke-dashoffset:0" />
      <path
         inkscape:connector-curvature="0"
         id="path3675"
         d="m 74.968429,351.22142 c 0.2794,-13.15284 0.50801,-23.92706 0.50801,-23.94272 0,-0.0157 -5.8527,0.2328 -13.006,0.55213 l -13.00599,0.58061 0,23.36211 0,23.36212 12.49798,0 12.49799,0 0.50801,-23.91425 z"
         style="fill:#000000;fill-opacity:1;fill-rule:nonzero;stroke:#000000;stroke-width:2.68510866;stroke-linecap:butt;stroke-linejoin:miter;stroke-miterlimit:4;stroke-opacity:1;stroke-dasharray:none;stroke-dashoffset:0" />
      <path
         inkscape:connector-curvature="0"
         id="path3677"
         d="m 47.606169,268.89179 0,-59.07439 -13.24546,0 -13.24546,0 0,59.07439 0,59.0744 13.24546,0 13.24546,0 0,-59.0744 z"
         style="fill:#000000;fill-opacity:1;fill-rule:nonzero;stroke:#000000;stroke-width:3.04527354;stroke-linecap:butt;stroke-linejoin:miter;stroke-miterlimit:4;stroke-opacity:1;stroke-dasharray:none;stroke-dashoffset:0" />
      <path
         sodipodi:nodetypes="ccccccccc"
         inkscape:connector-curvature="0"
         id="path3683"
         d="m 99.810229,385.102 0,-10.11337 -12.1669,-0.34603 -12.16689,0.0735 -0.49063,10.4887 -0.49062,9.23006 12.65752,0.39024 12.65752,0.39025 z"
         style="fill:#000000;fill-opacity:1;fill-rule:nonzero;stroke:#000000;stroke-width:2.68510866;stroke-linecap:butt;stroke-linejoin:miter;stroke-miterlimit:4;stroke-opacity:1;stroke-dasharray:none;stroke-dashoffset:0" />
      <path
         inkscape:connector-curvature="0"
         id="path3685"
         d="m 99.440819,576.93836 -0.46968,-21.39696 -12.1669,-0.49307 -12.1669,-0.49307 0,21.89003 0,21.89003 12.63659,0 12.63658,0 -0.46969,-21.39696 z"
         style="fill:#000000;fill-opacity:1;fill-rule:nonzero;stroke:#000000;stroke-width:2.68510866;stroke-linecap:butt;stroke-linejoin:miter;stroke-miterlimit:4;stroke-opacity:1;stroke-dasharray:none;stroke-dashoffset:0" />
      <path
         inkscape:connector-curvature="0"
         id="path3687"
         d="m 229.03108,610.92176 0,-10.90825 -63.77133,0 -63.77132,0 0,10.90825 0,10.90826 63.77132,0 63.77133,0 0,-10.90826 z"
         style="fill:#000000;fill-opacity:1;fill-rule:nonzero;stroke:#000000;stroke-width:2.68510866;stroke-linecap:butt;stroke-linejoin:miter;stroke-miterlimit:4;stroke-opacity:1;stroke-dasharray:none;stroke-dashoffset:0" />
      <path
         inkscape:connector-curvature="0"
         id="path5116"
         d="m 153.35763,542.3905 0,-10.90825 -13.21577,0 -13.21576,0 0,-44.68189 0,-44.68188 80.02882,2.1e-4 c 44.01585,1.2e-4 100.56046,0.1257 125.65468,0.27906 l 45.62586,0.27885 0,33.28364 0,33.28364 -74.36491,0.10604 -74.36492,0.10605 -0.10863,21.92139 -0.10863,21.92139 -37.96537,0 -37.96537,0 0,-10.90825 z"
         style="fill:#cccccc;fill-opacity:1;fill-rule:nonzero;stroke:#cccccc;stroke-width:1.46841872;stroke-linecap:butt;stroke-linejoin:miter;stroke-miterlimit:4;stroke-opacity:1;stroke-dasharray:none;stroke-dashoffset:0" />
      <path
         inkscape:connector-curvature="0"
         id="path4120"
         d="m 149.77833,373.00168 -27.89995,-0.23279 0,-32.71345 0,-32.71345 -11.53758,-4.6e-4 -11.537581,-4.7e-4 -0.21662,-77.1964 -0.21661,-77.19641 13.012841,0 13.01284,0 0,-10.48871 0,-10.48871 14.13808,0 14.13809,0 0.54176,-8.18119 c 0.29797,-4.49965 0.54371,-10.16355 0.5461,-12.58644 l 0.004,-4.40526 76.35778,0 76.35777,0 0,12.58645 0,12.58644 10.52041,0 10.52041,0 -0.58509,21.07214 -0.5851,21.07213 12.72029,-0.31025 12.72029,-0.31025 0,15.18138 c 0,8.34976 -0.25044,33.36791 -0.55653,55.5959 l -0.55653,40.4145 -11.61037,0 -11.61037,0 0,22.65561 0,22.6556 -23.91425,0 -23.91424,0 0,21.81651 0,21.8165 -50.97511,-0.19806 c -28.03631,-0.10894 -63.53009,-0.30283 -78.87507,-0.43086 z"
         style="fill:#a02c2c;fill-opacity:1;fill-rule:nonzero;stroke:#a02c2c;stroke-width:2.93683743;stroke-linecap:butt;stroke-linejoin:miter;stroke-miterlimit:4;stroke-opacity:1;stroke-dasharray:none;stroke-dashoffset:0" />
      <path
         inkscape:connector-curvature="0"
         id="path4642"
         d="m 330.26343,405.68357 0,-10.97662 -12.16328,0 -12.16328,0 0,-31.14986 0,-31.14987 11.86662,0 11.86661,0 0,-23.1399 0,-23.1399 11.19565,0 11.19566,0 0.36776,-2.22499 c 0.20228,-1.22374 0.37231,-5.02848 0.37786,-8.45496 0.006,-3.42649 0.18195,-8.43781 0.392,-11.13628 l 0.38192,-4.9063 12.81613,0.15966 12.81613,0.15965 0.16062,12.01495 0.16062,12.01495 12.44766,0 12.44766,0 0,44.19157 0,44.19157 -12.90494,0.15991 -12.90495,0.1599 -0.16143,11.12495 -0.16142,11.12495 -11.55686,0 -11.55685,0 0,10.97662 0,10.97662 -12.45994,0 -12.45995,0 0,-10.97662 z"
         style="fill:#032385;fill-opacity:1;fill-rule:nonzero;stroke:#032385;stroke-width:2.07665777;stroke-linecap:butt;stroke-linejoin:miter;stroke-miterlimit:4;stroke-opacity:1;stroke-dasharray:none;stroke-dashoffset:0" />
    </g>
  </g>
  <g
     inkscape:groupmode="layer"
     id="layer2"
     inkscape:label="Layer"
     transform="translate(-19.592612,-105.32952)" />
</svg>
