<?xml version="1.0" encoding="UTF-8" standalone="no"?>
<!-- Created with Inkscape (http://www.inkscape.org/) -->

<svg
   xmlns:dc="http://purl.org/dc/elements/1.1/"
   xmlns:cc="http://creativecommons.org/ns#"
   xmlns:rdf="http://www.w3.org/1999/02/22-rdf-syntax-ns#"
   xmlns:svg="http://www.w3.org/2000/svg"
   xmlns="http://www.w3.org/2000/svg"
   xmlns:sodipodi="http://sodipodi.sourceforge.net/DTD/sodipodi-0.dtd"
   xmlns:inkscape="http://www.inkscape.org/namespaces/inkscape"
   width="243.59375"
   height="310.53125"
   id="svg2"
   version="1.1"
   inkscape:version="0.48.4 r9939"
   sodipodi:docname="source4.zip">
  <defs
     id="defs4" />
  <sodipodi:namedview
     id="base"
     pagecolor="#ffffff"
     bordercolor="#666666"
     borderopacity="1.0"
     inkscape:pageopacity="0.0"
     inkscape:pageshadow="2"
     inkscape:zoom="0.62730239"
     inkscape:cx="-258.2505"
     inkscape:cy="266.54373"
     inkscape:document-units="px"
     inkscape:current-layer="layer1"
     showgrid="false"
     inkscape:window-width="1366"
     inkscape:window-height="706"
     inkscape:window-x="-8"
     inkscape:window-y="-8"
     inkscape:window-maximized="1"
     fit-margin-left="10"
     fit-margin-top="10"
     fit-margin-right="10"
     fit-margin-bottom="10" />
  <metadata
     id="metadata7">
    <rdf:RDF>
      <cc:Work
         rdf:about="">
        <dc:format>image/svg+xml</dc:format>
        <dc:type
           rdf:resource="http://purl.org/dc/dcmitype/StillImage" />
        <dc:title></dc:title>
      </cc:Work>
    </rdf:RDF>
  </metadata>
  <g
     inkscape:label="Layer 1"
     inkscape:groupmode="layer"
     id="layer1"
     transform="translate(-88.75,-158.03125)">
    <path
       style="fill:#1a1a1a;fill-opacity:1;fill-rule:nonzero;stroke:#1a1a1a;stroke-width:8.38511086;stroke-linecap:round;stroke-linejoin:miter;stroke-miterlimit:4;stroke-opacity:1;stroke-dasharray:none;stroke-dashoffset:0"
       d="m 196.98941,242.35019 0,-12.75302 13.55009,0 13.55008,0 0,12.75302 0,12.75302 -13.55008,0 -13.55009,0 0,-12.75302 z"
       id="path16712"
       inkscape:connector-curvature="0" />
    <path
       style="fill:#1a1a1a;fill-opacity:1;fill-rule:nonzero;stroke:#1a1a1a;stroke-width:8.38511086;stroke-linecap:round;stroke-linejoin:miter;stroke-miterlimit:4;stroke-opacity:1;stroke-dasharray:none;stroke-dashoffset:0"
       d="m 165.10686,242.35019 0,-12.75302 13.55009,0 13.55008,0 0,12.75302 0,12.75302 -13.55008,0 -13.55009,0 0,-12.75302 z"
       id="path16714"
       inkscape:connector-curvature="0" />
    <path
       style="fill:#1a1a1a;fill-opacity:1;fill-rule:nonzero;stroke:#1a1a1a;stroke-width:8.38511086;stroke-linecap:round;stroke-linejoin:miter;stroke-miterlimit:4;stroke-opacity:1;stroke-dasharray:none;stroke-dashoffset:0"
       d="m 228.87196,242.35019 0,-12.75302 13.55009,0 13.55008,0 0,12.75302 0,12.75302 -13.55008,0 -13.55009,0 0,-12.75302 z"
       id="path16716"
       inkscape:connector-curvature="0" />
    <path
       style="fill:#1a1a1a;fill-opacity:1;fill-rule:nonzero;stroke:#1a1a1a;stroke-width:8.38511086;stroke-linecap:round;stroke-linejoin:miter;stroke-miterlimit:4;stroke-opacity:1;stroke-dasharray:none;stroke-dashoffset:0"
       d="m 259.49186,271.44302 0.46559,-12.35449 13.94862,-0.46059 13.94861,-0.4606 0,12.81508 0,12.81509 -14.4142,0 -14.41421,0 0.46559,-12.35449 z"
       id="path16718"
       inkscape:connector-curvature="0" />
    <path
       style="fill:#1a1a1a;fill-opacity:1;fill-rule:nonzero;stroke:#1a1a1a;stroke-width:8.38511086;stroke-linecap:round;stroke-linejoin:miter;stroke-miterlimit:4;stroke-opacity:1;stroke-dasharray:none;stroke-dashoffset:0"
       d="m 134.81844,270.98002 0,-12.81749 13.15155,0.463 13.15155,0.463 0.46559,12.35449 0.46559,12.35449 -13.61714,0 -13.61714,0 0,-12.81749 z"
       id="path16732"
       inkscape:connector-curvature="0" />
    <path
       style="fill:#1a1a1a;fill-opacity:1;fill-rule:nonzero;stroke:#1a1a1a;stroke-width:8.38511086;stroke-linecap:round;stroke-linejoin:miter;stroke-miterlimit:4;stroke-opacity:1;stroke-dasharray:none;stroke-dashoffset:0"
       d="m 102.93589,298.87966 0,-12.01803 13.94862,0.4606 13.94861,0.4606 0.46837,11.55742 0.46837,11.55743 -14.41698,0 -14.41699,0 0,-12.01802 z"
       id="path16750"
       inkscape:connector-curvature="0" />
    <path
       style="fill:#1a1a1a;fill-opacity:1;fill-rule:nonzero;stroke:#1a1a1a;stroke-width:8.38511086;stroke-linecap:round;stroke-linejoin:miter;stroke-miterlimit:4;stroke-opacity:1;stroke-dasharray:none;stroke-dashoffset:0"
       d="m 296.22385,311.32006 c 4.16466,-0.32839 10.97955,-0.32839 15.14421,0 4.16466,0.32838 0.75721,0.59707 -7.5721,0.59707 -8.32932,0 -11.73677,-0.26869 -7.57211,-0.59707 z"
       id="path16752"
       inkscape:connector-curvature="0" />
    <path
       style="fill:#1a1a1a;fill-opacity:1;fill-rule:nonzero;stroke:#1a1a1a;stroke-width:8.38511086;stroke-linecap:round;stroke-linejoin:miter;stroke-miterlimit:4;stroke-opacity:1;stroke-dasharray:none;stroke-dashoffset:0"
       d="m 289.44881,299.90934 c 0,-12.94746 -0.0312,-12.92358 16.86872,-12.92358 l 11.82557,0 0,11.95596 c 0,6.90788 -0.67307,11.95596 -1.59412,11.95596 -0.87677,0 -1.59413,-1.07604 -1.59413,-2.3912 0,-1.89777 -2.30263,-2.39119 -11.15889,-2.39119 -8.85627,0 -11.1589,0.49342 -11.1589,2.39119 0,1.31516 -0.71735,2.3912 -1.59412,2.3912 -0.90858,0 -1.59413,-4.72554 -1.59413,-10.98834 z"
       id="path16754"
       inkscape:connector-curvature="0" />
    <path
       style="fill:#1a1a1a;fill-opacity:1;fill-rule:nonzero;stroke:#1a1a1a;stroke-width:8.38511086;stroke-linecap:round;stroke-linejoin:miter;stroke-miterlimit:4;stroke-opacity:1;stroke-dasharray:none;stroke-dashoffset:0"
       d="m 289.44881,328.43308 0,-11.15889 14.34715,0 14.34714,0 0,11.15889 0,11.15889 -14.34714,0 -14.34715,0 0,-11.15889 z"
       id="path16756"
       inkscape:connector-curvature="0" />
    <path
       style="fill:#1a1a1a;fill-opacity:1;fill-rule:nonzero;stroke:#1a1a1a;stroke-width:8.38511086;stroke-linecap:round;stroke-linejoin:miter;stroke-miterlimit:4;stroke-opacity:1;stroke-dasharray:none;stroke-dashoffset:0"
       d="m 102.93589,327.63601 0,-11.95595 14.34715,0 14.34715,0 0,11.95595 0,11.95596 -14.34715,0 -14.34715,0 0,-11.95596 z"
       id="path16758"
       inkscape:connector-curvature="0" />
    <path
       style="fill:#1a1a1a;fill-opacity:1;fill-rule:nonzero;stroke:#1a1a1a;stroke-width:8.38511086;stroke-linecap:round;stroke-linejoin:miter;stroke-miterlimit:4;stroke-opacity:1;stroke-dasharray:none;stroke-dashoffset:0"
       d="m 102.93589,356.33031 0,-11.95596 14.34715,0 14.34715,0 0,11.95596 0,11.95596 -14.34715,0 -14.34715,0 0,-11.95596 z"
       id="path16760"
       inkscape:connector-curvature="0" />
    <path
       style="fill:#1a1a1a;fill-opacity:1;fill-rule:nonzero;stroke:#1a1a1a;stroke-width:8.38511086;stroke-linecap:round;stroke-linejoin:miter;stroke-miterlimit:4;stroke-opacity:1;stroke-dasharray:none;stroke-dashoffset:0"
       d="m 289.44881,356.33031 0,-11.95596 14.34715,0 14.34714,0 0,11.95596 0,11.95596 -14.34714,0 -14.34715,0 0,-11.95596 z"
       id="path16762"
       inkscape:connector-curvature="0" />
    <path
       style="fill:#1a1a1a;fill-opacity:1;fill-rule:nonzero;stroke:#1a1a1a;stroke-width:8.38511086;stroke-linecap:round;stroke-linejoin:miter;stroke-miterlimit:4;stroke-opacity:1;stroke-dasharray:none;stroke-dashoffset:0"
       d="m 289.44881,385.0246 0,-11.95595 14.34715,0 14.34714,0 0,11.95595 0,11.95596 -14.34714,0 -14.34715,0 0,-11.95596 z"
       id="path16764"
       inkscape:connector-curvature="0" />
    <path
       style="fill:#1a1a1a;fill-opacity:1;fill-rule:nonzero;stroke:#1a1a1a;stroke-width:8.38511086;stroke-linecap:round;stroke-linejoin:miter;stroke-miterlimit:4;stroke-opacity:1;stroke-dasharray:none;stroke-dashoffset:0"
       d="m 289.44881,413.7189 0,-11.95596 14.34715,0 14.34714,0 0,11.95596 0,11.95596 -14.34714,0 -14.34715,0 0,-11.95596 z"
       id="path16766"
       inkscape:connector-curvature="0" />
    <path
       style="fill:#1a1a1a;fill-opacity:1;fill-rule:nonzero;stroke:#1a1a1a;stroke-width:8.38511086;stroke-linecap:round;stroke-linejoin:miter;stroke-miterlimit:4;stroke-opacity:1;stroke-dasharray:none;stroke-dashoffset:0"
       d="m 102.93589,385.0246 0,-11.95595 14.34715,0 14.34715,0 0,11.95595 0,11.95596 -14.34715,0 -14.34715,0 0,-11.95596 z"
       id="path16768"
       inkscape:connector-curvature="0" />
    <path
       style="fill:#1a1a1a;fill-opacity:1;fill-rule:nonzero;stroke:#1a1a1a;stroke-width:8.38511086;stroke-linecap:round;stroke-linejoin:miter;stroke-miterlimit:4;stroke-opacity:1;stroke-dasharray:none;stroke-dashoffset:0"
       d="m 109.71093,426.09724 c 4.16466,-0.32839 10.97956,-0.32839 15.14421,0 4.16466,0.32838 0.75721,0.59707 -7.5721,0.59707 -8.32932,0 -11.73677,-0.26869 -7.57211,-0.59707 z"
       id="path16770"
       inkscape:connector-curvature="0" />
    <path
       style="fill:#1a1a1a;fill-opacity:1;fill-rule:nonzero;stroke:#1a1a1a;stroke-width:8.38511086;stroke-linecap:round;stroke-linejoin:miter;stroke-miterlimit:4;stroke-opacity:1;stroke-dasharray:none;stroke-dashoffset:0"
       d="m 102.93589,413.7189 0,-11.95596 14.34715,0 14.34715,0 0,11.95596 c 0,6.90788 -0.67308,11.95596 -1.59413,11.95596 -0.87677,0 -1.59413,-1.07604 -1.59413,-2.3912 0,-1.89777 -2.30263,-2.39119 -11.15889,-2.39119 -8.85627,0 -11.15889,0.49342 -11.15889,2.39119 0,1.31516 -0.71736,2.3912 -1.59413,2.3912 -0.92105,0 -1.59413,-5.04808 -1.59413,-11.95596 z"
       id="path16772"
       inkscape:connector-curvature="0" />
    <path
       style="fill:#1a1a1a;fill-opacity:1;fill-rule:nonzero;stroke:#1a1a1a;stroke-width:8.38511086;stroke-linecap:round;stroke-linejoin:miter;stroke-miterlimit:4;stroke-opacity:1;stroke-dasharray:none;stroke-dashoffset:0"
       d="m 102.93589,443.21026 0,-11.15889 14.34715,0 14.34715,0 0,11.15889 0,11.15889 -14.34715,0 -14.34715,0 0,-11.15889 z"
       id="path16774"
       inkscape:connector-curvature="0" />
    <path
       style="fill:#1a1a1a;fill-opacity:1;fill-rule:nonzero;stroke:#1a1a1a;stroke-width:8.38511086;stroke-linecap:round;stroke-linejoin:miter;stroke-miterlimit:4;stroke-opacity:1;stroke-dasharray:none;stroke-dashoffset:0"
       d="m 289.44881,442.41319 0,-11.95595 14.34715,0 14.34714,0 0,11.95595 0,11.95596 -14.34714,0 -14.34715,0 0,-11.95596 z"
       id="path16776"
       inkscape:connector-curvature="0" />
    <path
       style="fill:#1a1a1a;fill-opacity:1;fill-rule:nonzero;stroke:#1a1a1a;stroke-width:8.38511086;stroke-linecap:round;stroke-linejoin:miter;stroke-miterlimit:4;stroke-opacity:1;stroke-dasharray:none;stroke-dashoffset:0"
       d="m 259.16039,441.61613 0,-12.75302 12.75302,0 12.75302,0 0,12.75302 0,12.75302 -12.75302,0 -12.75302,0 0,-12.75302 z"
       id="path16778"
       inkscape:connector-curvature="0" />
    <path
       style="fill:#1a1a1a;fill-opacity:1;fill-rule:nonzero;stroke:#1a1a1a;stroke-width:8.38511086;stroke-linecap:round;stroke-linejoin:miter;stroke-miterlimit:4;stroke-opacity:1;stroke-dasharray:none;stroke-dashoffset:0"
       d="m 227.27784,441.61613 0,-12.75302 13.55008,0 13.55008,0 0,12.75302 0,12.75302 -13.55008,0 -13.55008,0 0,-12.75302 z"
       id="path16792"
       inkscape:connector-curvature="0" />
    <path
       style="fill:#1a1a1a;fill-opacity:1;fill-rule:nonzero;stroke:#1a1a1a;stroke-width:8.38511086;stroke-linecap:round;stroke-linejoin:miter;stroke-miterlimit:4;stroke-opacity:1;stroke-dasharray:none;stroke-dashoffset:0"
       d="m 196.98941,441.61613 0,-12.75302 12.75302,0 12.75302,0 0,12.75302 0,12.75302 -12.75302,0 -12.75302,0 0,-12.75302 z"
       id="path16794"
       inkscape:connector-curvature="0" />
    <path
       style="fill:#1a1a1a;fill-opacity:1;fill-rule:nonzero;stroke:#1a1a1a;stroke-width:8.38511086;stroke-linecap:round;stroke-linejoin:miter;stroke-miterlimit:4;stroke-opacity:1;stroke-dasharray:none;stroke-dashoffset:0"
       d="m 165.10686,441.61613 0,-12.75302 13.55009,0 13.55008,0 0,12.75302 0,12.75302 -13.55008,0 -13.55009,0 0,-12.75302 z"
       id="path16796"
       inkscape:connector-curvature="0" />
    <path
       style="fill:#1a1a1a;fill-opacity:1;fill-rule:nonzero;stroke:#1a1a1a;stroke-width:8.38511086;stroke-linecap:round;stroke-linejoin:miter;stroke-miterlimit:4;stroke-opacity:1;stroke-dasharray:none;stroke-dashoffset:0"
       d="m 136.41257,441.61613 0,-12.75302 11.95595,0 11.95596,0 0,12.75302 0,12.75302 -11.95596,0 -11.95595,0 0,-12.75302 z"
       id="path16798"
       inkscape:connector-curvature="0" />
    <path
       style="fill:#1a1a1a;fill-opacity:1;fill-rule:nonzero;stroke:#1a1a1a;stroke-width:8.38511086;stroke-linecap:round;stroke-linejoin:miter;stroke-miterlimit:4;stroke-opacity:1;stroke-dasharray:none;stroke-dashoffset:0"
       d="m 102.93589,270.24742 0,-11.95595 13.55008,0 13.55009,0 0,11.95595 0,11.95596 -13.55009,0 -13.55008,0 0,-11.95596 z"
       id="path16822"
       inkscape:connector-curvature="0" />
    <path
       style="fill:#1a1a1a;fill-opacity:1;fill-rule:nonzero;stroke:#1a1a1a;stroke-width:8.38511086;stroke-linecap:round;stroke-linejoin:miter;stroke-miterlimit:4;stroke-opacity:1;stroke-dasharray:none;stroke-dashoffset:0"
       d="m 134.81844,241.55313 0,-11.95596 12.75302,0 12.75302,0 0,11.95596 0,11.95596 -12.75302,0 -12.75302,0 0,-11.95596 z"
       id="path16824"
       inkscape:connector-curvature="0" />
    <path
       style="fill:#1a1a1a;fill-opacity:1;fill-rule:nonzero;stroke:#1a1a1a;stroke-width:8.38511086;stroke-linecap:round;stroke-linejoin:miter;stroke-miterlimit:4;stroke-opacity:1;stroke-dasharray:none;stroke-dashoffset:0"
       d="m 260.75451,241.55313 0,-11.95596 13.55009,0 13.55008,0 0,11.95596 0,11.95596 -13.55008,0 -13.55009,0 0,-11.95596 z"
       id="path16826"
       inkscape:connector-curvature="0" />
    <path
       style="fill:#1a1a1a;fill-opacity:1;fill-rule:nonzero;stroke:#1a1a1a;stroke-width:8.38511086;stroke-linecap:round;stroke-linejoin:miter;stroke-miterlimit:4;stroke-opacity:1;stroke-dasharray:none;stroke-dashoffset:0"
       d="m 292.63706,270.24742 0,-11.95595 12.75302,0 12.75302,0 0,11.95595 0,11.95596 -12.75302,0 -12.75302,0 0,-11.95596 z"
       id="path16828"
       inkscape:connector-curvature="0" />
    <path
       style="fill:#1a1a1a;fill-opacity:1;fill-rule:nonzero;stroke:#1a1a1a;stroke-width:8.38511086;stroke-linecap:round;stroke-linejoin:miter;stroke-miterlimit:4;stroke-opacity:1;stroke-dasharray:none;stroke-dashoffset:0"
       d="m 165.10686,212.85883 0,-11.95595 14.34715,0 14.34715,0 0,11.95595 0,11.95596 -14.34715,0 -14.34715,0 0,-11.95596 z"
       id="path16830"
       inkscape:connector-curvature="0" />
    <path
       style="fill:#1a1a1a;fill-opacity:1;fill-rule:nonzero;stroke:#1a1a1a;stroke-width:8.38511086;stroke-linecap:round;stroke-linejoin:miter;stroke-miterlimit:4;stroke-opacity:1;stroke-dasharray:none;stroke-dashoffset:0"
       d="m 165.10686,184.16454 0,-11.95596 14.34715,0 14.34715,0 0,11.95596 0,11.95596 -14.34715,0 -14.34715,0 0,-11.95596 z"
       id="path16832"
       inkscape:connector-curvature="0" />
    <path
       style="fill:#1a1a1a;fill-opacity:1;fill-rule:nonzero;stroke:#1a1a1a;stroke-width:8.38511086;stroke-linecap:round;stroke-linejoin:miter;stroke-miterlimit:4;stroke-opacity:1;stroke-dasharray:none;stroke-dashoffset:0"
       d="m 227.27784,184.9616 0,-12.75302 14.34714,0 14.34715,0 0,12.75302 0,12.75302 -14.34715,0 -14.34714,0 0,-12.75302 z"
       id="path16834"
       inkscape:connector-curvature="0" />
    <path
       style="fill:#1a1a1a;fill-opacity:1;fill-rule:nonzero;stroke:#1a1a1a;stroke-width:8.38511086;stroke-linecap:round;stroke-linejoin:miter;stroke-miterlimit:4;stroke-opacity:1;stroke-dasharray:none;stroke-dashoffset:0"
       d="m 234.80184,225.24404 c 3.69982,-0.33433 10.15604,-0.3383 14.34715,-0.009 4.19111,0.32947 1.16399,0.60301 -6.72694,0.60787 -7.89093,0.005 -11.32003,-0.26471 -7.62021,-0.59904 z"
       id="path16836"
       inkscape:connector-curvature="0" />
    <path
       style="fill:#1a1a1a;fill-opacity:1;fill-rule:nonzero;stroke:#1a1a1a;stroke-width:8.38511086;stroke-linecap:round;stroke-linejoin:miter;stroke-miterlimit:4;stroke-opacity:1;stroke-dasharray:none;stroke-dashoffset:0"
       d="m 227.27784,213.6559 0,-11.15889 14.34714,0 14.34715,0 0,11.15889 c 0,6.37651 -0.6832,11.15889 -1.59413,11.15889 -0.87677,0 -1.59412,-1.07604 -1.59412,-2.39119 0,-1.88025 -2.21407,-2.39119 -10.36183,-2.39119 -8.14777,0 -10.36183,0.51094 -10.36183,2.39119 0,1.31515 -1.07604,2.39119 -2.39119,2.39119 -1.89777,0 -2.39119,-2.30263 -2.39119,-11.15889 z"
       id="path16838"
       inkscape:connector-curvature="0" />
    <path
       style="fill:#1a1a1a;fill-opacity:1;fill-rule:nonzero;stroke:#1a1a1a;stroke-width:8.38511086;stroke-linecap:round;stroke-linejoin:miter;stroke-miterlimit:4;stroke-opacity:1;stroke-dasharray:none;stroke-dashoffset:0"
       d="m 198.58354,184.9616 0,-12.75302 11.95596,0 11.95595,0 0,12.75302 0,12.75302 -11.95595,0 -11.95596,0 0,-12.75302 z"
       id="path16840"
       inkscape:connector-curvature="0" />
    <path
       style="fill:#1a1a1a;fill-opacity:1;fill-rule:nonzero;stroke:#1a1a1a;stroke-width:8.38511086;stroke-linecap:round;stroke-linejoin:miter;stroke-miterlimit:4;stroke-opacity:1;stroke-dasharray:none;stroke-dashoffset:0"
       d="m 136.41257,356.33031 0,-67.75042 15.14421,0 15.14421,0 0,-14.34715 0,-14.34714 43.83851,0 43.8385,0 0,14.34714 0,14.34715 15.07438,0 15.07437,0 0.46837,11.55742 c 0.2576,6.35659 0.27125,36.84428 0.0303,67.75042 l -0.43805,56.193 -74.08741,0 -74.08741,0 0,-67.75042 z"
       id="path16842"
       inkscape:connector-curvature="0" />
  </g>
  <g
     inkscape:groupmode="layer"
     id="layer2"
     inkscape:label="Layer"
     transform="translate(-88.75,-158.03125)" />
</svg>
