<?xml version="1.0" encoding="UTF-8" standalone="no"?>
<!-- Created with Inkscape (http://www.inkscape.org/) -->

<svg
   xmlns:dc="http://purl.org/dc/elements/1.1/"
   xmlns:cc="http://creativecommons.org/ns#"
   xmlns:rdf="http://www.w3.org/1999/02/22-rdf-syntax-ns#"
   xmlns:svg="http://www.w3.org/2000/svg"
   xmlns="http://www.w3.org/2000/svg"
   xmlns:sodipodi="http://sodipodi.sourceforge.net/DTD/sodipodi-0.dtd"
   xmlns:inkscape="http://www.inkscape.org/namespaces/inkscape"
   width="332.9819"
   height="631.11951"
   id="svg2"
   version="1.1"
   inkscape:version="0.48.4 r9939"
   sodipodi:docname="side1.zip">
  <defs
     id="defs4" />
  <sodipodi:namedview
     id="base"
     pagecolor="#ffffff"
     bordercolor="#666666"
     borderopacity="1.0"
     inkscape:pageopacity="0.0"
     inkscape:pageshadow="2"
     inkscape:zoom="0.46696116"
     inkscape:cx="193.24018"
     inkscape:cy="471.05806"
     inkscape:document-units="px"
     inkscape:current-layer="layer1"
     showgrid="false"
     inkscape:window-width="1366"
     inkscape:window-height="706"
     inkscape:window-x="-8"
     inkscape:window-y="-8"
     inkscape:window-maximized="1"
     fit-margin-left="0"
     fit-margin-top="0"
     fit-margin-right="0"
     fit-margin-bottom="0" />
  <metadata
     id="metadata7">
    <rdf:RDF>
      <cc:Work
         rdf:about="">
        <dc:format>image/svg+xml</dc:format>
        <dc:type
           rdf:resource="http://purl.org/dc/dcmitype/StillImage" />
        <dc:title></dc:title>
      </cc:Work>
    </rdf:RDF>
  </metadata>
  <g
     inkscape:label="Layer 1"
     inkscape:groupmode="layer"
     id="layer1"
     transform="translate(-90.788697,-19.95575)">
    <path
       style="fill:#ffccaa;fill-opacity:1;fill-rule:nonzero;stroke:#ffccaa;stroke-width:0.94642079;stroke-linecap:butt;stroke-linejoin:bevel;stroke-miterlimit:4;stroke-opacity:1;stroke-dasharray:none;stroke-dashoffset:0"
       d="m 277.59874,170.87463 0,-6.15174 11.26241,0 11.26241,0 0,6.15174 0,6.15173 -11.26241,0 -11.26241,0 0,-6.15173 z"
       id="path5143"
       inkscape:connector-curvature="0"
       transform="translate(19.793596,-21.767479)" />
    <path
       style="fill:#ffccaa;fill-opacity:1;fill-rule:nonzero;stroke:#ffccaa;stroke-width:1.89284158;stroke-linecap:butt;stroke-linejoin:bevel;stroke-miterlimit:4;stroke-opacity:1;stroke-dasharray:none;stroke-dashoffset:0"
       d="m 216.00568,316.94521 c 0,-8.16025 0.0782,-9.46421 0.56785,-9.46421 0.31232,0 0.56955,-0.29812 0.57162,-0.66249 0.002,-0.36437 3.9e-4,-16.71852 -0.004,-36.34256 l -0.008,-35.68006 9.46795,0 9.46794,0 0,-11.54633 0,-11.54634 10.41063,0 10.41063,0 0,-30.79333 0,-30.79333 7.44296,-0.24927 c 4.09362,-0.1371 19.34046,-0.24927 33.88186,-0.24927 l 26.4389,0 0,18.17128 0,18.17128 10.7892,0 10.7892,0 0,12.49275 0,12.49276 10.22134,0 10.22135,0 0,12.87132 0,12.87132 -6.81423,0 -6.81423,0 0,26.49978 0,26.49978 -12.11419,0 -12.11418,0 0,9.6535 0,9.65349 -20.63198,0 -20.63197,0 0,8.70707 0,8.70707 -35.77471,0 -35.7747,0 0,-9.46421 z m 85.93501,-129.09179 0,-24.98551 -13.06061,0 -13.06061,0 0,24.98551 0,24.98551 13.06061,0 13.06061,0 0,-24.98551 z"
       id="path5133"
       inkscape:connector-curvature="0"
       transform="translate(19.793596,-21.767479)" />
    <path
       style="fill:#ffccaa;fill-opacity:1;fill-rule:nonzero;stroke:#ffccaa;stroke-width:1.89284158;stroke-linecap:butt;stroke-linejoin:bevel;stroke-miterlimit:4;stroke-opacity:1;stroke-dasharray:none;stroke-dashoffset:0"
       d="m 242.50546,344.53272 0,-12.54074 -11.83026,0.25114 c -6.50664,0.13812 -12.46909,0.34504 -13.24989,0.45982 l -1.41963,0.20869 0,-3.03948 c 0,-1.67171 -0.17036,-3.14476 -0.37857,-3.27345 -0.23525,-0.14539 -0.37768,-3.62929 -0.37624,-9.20262 0.002,-7.216 0.11285,-9.18055 0.56786,-10.05299 0.48997,-0.93948 0.56552,-5.84773 0.56552,-36.74006 0,-27.22746 0.10738,-35.76309 0.45428,-36.11 0.32788,-0.32788 2.96124,-0.45428 9.46421,-0.45428 l 9.00992,0 0,-11.09205 c 0,-8.12239 0.12163,-11.21367 0.45428,-11.54633 0.3303,-0.3303 3.17157,-0.45428 10.41063,-0.45428 l 9.95635,0 0,-30.4284 c 0,-27.40373 0.0601,-30.47826 0.60441,-30.93002 0.86855,-0.72082 67.24616,-1.06161 68.10402,-0.34965 0.49223,0.40852 0.56957,2.88251 0.56957,18.21906 l 0,17.74636 10.33492,0 c 7.5335,0 10.45805,0.12314 10.78919,0.45428 0.33429,0.33429 0.45428,3.63426 0.45428,12.49276 l 0,12.03847 9.76707,0 c 7.09184,0 9.89149,0.12443 10.22134,0.45428 0.6506,0.6506 0.6506,25.69775 0,26.34835 -0.31728,0.31728 -2.37236,0.45429 -6.81423,0.45429 l -6.35995,0 0,26.0455 c 0,19.75285 -0.10975,26.15525 -0.45428,26.49978 -0.33366,0.33366 -3.55013,0.45428 -12.11418,0.45428 l -11.65991,0 0,9.19921 c 0,6.65018 -0.12588,9.32509 -0.45428,9.65349 -0.34196,0.34197 -5.44297,0.45428 -20.63197,0.45428 l -20.17769,0 0,8.30616 c 0,5.12909 -0.14481,8.39566 -0.37857,8.54013 -0.20821,0.12869 -0.37857,1.67194 -0.37857,3.42946 l 0,3.19549 -10.59991,0 -10.59992,0 0,11.9249 0,11.9249 -11.9249,0 -11.9249,0 0,-12.54073 z m 58.67809,-156.6793 0,-24.22837 -12.30347,0 -12.30347,0 0,24.22837 0,24.22837 12.30347,0 12.30347,0 0,-24.22837 z"
       id="path5135"
       inkscape:connector-curvature="0"
       transform="translate(19.793596,-21.767479)" />
    <path
       style="fill:#002255;fill-opacity:1;fill-rule:nonzero;stroke:#002255;stroke-width:3.78568316;stroke-linecap:butt;stroke-linejoin:bevel;stroke-miterlimit:4;stroke-opacity:1;stroke-dasharray:none;stroke-dashoffset:0"
       d="m 158.31187,622.36222 0,-22.7141 68.52086,0 68.52087,0 0,11.73561 0,11.73562 15.14273,0 15.14273,0 0,10.97848 0,10.97848 -83.6636,0 -83.66359,0 0,-22.71409 z"
       id="path5121"
       inkscape:connector-curvature="0"
       transform="translate(19.793596,-21.767479)" />
    <path
       style="fill:#cccccc;fill-opacity:1;fill-rule:nonzero;stroke:#cccccc;stroke-width:3.78568316;stroke-linecap:butt;stroke-linejoin:bevel;stroke-miterlimit:4;stroke-opacity:1;stroke-dasharray:none;stroke-dashoffset:0"
       d="m 134.65135,573.50028 c -0.31232,-0.33237 -0.56785,-15.70734 -0.56785,-34.16658 l 0,-33.56225 66.43873,-0.19342 66.43874,-0.19342 0.20901,-11.07707 0.209,-11.07707 2.34634,-0.46926 c 1.29048,-0.2581 13.83159,-0.46927 27.86913,-0.46927 l 25.5228,0 -0.33617,44.86035 c -0.18489,24.67319 -0.60069,45.1451 -0.92401,45.49313 -0.75443,0.81211 -186.44912,1.66007 -187.20572,0.85486 l 0,0 z"
       id="path4611"
       inkscape:connector-curvature="0"
       transform="translate(19.793596,-21.767479)" />
    <path
       style="fill:#032385;fill-opacity:1;fill-rule:nonzero;stroke:#032385;stroke-width:5.35376453;stroke-linecap:butt;stroke-linejoin:bevel;stroke-miterlimit:4;stroke-opacity:1;stroke-dasharray:none;stroke-dashoffset:0"
       d="m 132.75977,456.5141 0,-23.55656 -13.91978,0 -13.91979,0 0,-38.01173 0,-38.01173 13.26985,0 c 11.11261,0 13.37551,-0.27534 13.91979,-1.6937 0.35746,-0.93154 0.64993,-5.99085 0.64993,-11.24291 l 0,-9.5492 40.68861,0 40.68861,0 0,47.64851 0,47.6485 14.45517,0 14.45516,0 0,13.38441 0,13.38441 13.38441,0 13.38441,0 0,11.77828 0,11.77828 -68.52818,0 -68.52819,0 0,-23.55656 z"
       id="path4603"
       inkscape:connector-curvature="0"
       transform="translate(19.793596,-21.767479)" />
    <path
       style="fill:#000000;fill-opacity:1;fill-rule:nonzero;stroke:#000000;stroke-width:3.42640924;stroke-linecap:butt;stroke-linejoin:miter;stroke-miterlimit:4;stroke-opacity:1;stroke-dasharray:none;stroke-dashoffset:0"
       d="m 125.43788,446.9489 0.021,-13.38441 -15.44375,-0.62754 -15.443756,-0.62753 0.98859,-45.41691 c 0.53724,-24.68133 0.10522,-44.8806 0.98859,-44.87946 0.88338,10e-4 -0.53537,-3.04958 -0.53537,-4.81633 0,-2.49842 3.39072,-1.07075 13.384406,-1.07075 l 12.84903,0 0,38.54711 0,38.5471 13.91979,0 13.91979,0 0,23.55657 0,23.55656 -12.33462,0 -12.33462,0 0.021,-13.38441 -3e-5,0 z"
       id="path4460"
       inkscape:connector-curvature="0"
       sodipodi:nodetypes="ccccscsscccccccccccc" />
    <path
       style="fill:#000000;fill-opacity:1;fill-rule:nonzero;stroke:#000000;stroke-width:3.42640924;stroke-linecap:butt;stroke-linejoin:miter;stroke-miterlimit:4;stroke-opacity:1;stroke-dasharray:none;stroke-dashoffset:0"
       d="m 124.38809,518.15397 0,-34.2641 13.91979,0 13.91979,0 0,34.2641 0,34.26409 -13.91979,0 -13.91979,0 0,-34.26409 z"
       id="path4458"
       inkscape:connector-curvature="0" />
    <path
       style="fill:#ffccaa;fill-opacity:1;fill-rule:nonzero;stroke:#ffccaa;stroke-width:2.42283726;stroke-linecap:butt;stroke-linejoin:miter;stroke-miterlimit:4;stroke-opacity:1;stroke-dasharray:none;stroke-dashoffset:0"
       d="m 288.57044,336.38515 c -2.21817,7.34068 4.92311,24.0408 -4.54282,24.13373 -6.72017,2.38303 -23.39491,-5.22407 -22.7141,4.63746 0.0628,13.64706 -0.12579,27.39825 0.0947,40.98002 9.43266,0 18.86532,0 28.29798,0 2.30674,8.89669 1.75975,18.22696 1.98748,27.25692 23.74101,-0.71128 47.70209,1.44066 71.31281,-1.08838 8.5975,-3.05877 2.78824,-15.25931 4.4955,-21.86232 2.96721,-6.26039 17.36897,-1.08624 24.89086,-2.79195 2.04574,-7.21226 0.2527,-18.02816 0.85178,-26.59442 -2.26152,-6.60652 5.61727,-23.36953 -6.15173,-20.53733 -7.38647,-1.66763 -23.27192,5.16373 -19.59091,-7.57137 0.24717,-9.30486 2.77699,-21.04066 -10.69456,-16.657 -22.73247,0.0629 -45.56985,-0.12591 -68.23694,0.0946 z"
       id="path3162"
       inkscape:connector-curvature="0" />
    <path
       style="fill:none;stroke:#000000;stroke-width:1px;stroke-linecap:butt;stroke-linejoin:miter;stroke-opacity:1"
       d="m 123.51905,334.24944 0,-48.34068 111.01777,0.37857 0,25.69806 26.35779,0 0.18928,23.77275 26.26035,0 -0.15681,-23.23736 81.66393,0.37857 -0.22175,22.92375 26.20097,0.18928 -0.37858,23.62152 28.50486,0.56785 -0.18928,73.4709 -29.98108,0 0,25.69807 -23.02119,0 0,118.3182 -25.69807,0 0,22.48581 26.76882,0 0,49.25463 -220.03972,0 0,-95.83238 -26.76882,0 0,-70.66969 27.03094,-0.18928 c -0.0892,-7.76876 0.20009,-17.71507 0.11089,-22.00981 l -26.79572,0.18928 0.18928,-27.24483 -30.489556,0.37857 0.37857,-99.64497 z"
       id="path4641"
       inkscape:connector-curvature="0"
       sodipodi:nodetypes="ccccccccccccccccccccccccccccccccc" />
    <path
       style="fill:none;stroke:#000000;stroke-width:1px;stroke-linecap:butt;stroke-linejoin:miter;stroke-opacity:1"
       d="m 123.49214,338.37565 0,73.88195 27.71525,-0.18928 -0.75714,47.26993 3.74763,0 c 45.1185,0.0653 90.05776,0.0325 135.85571,0.0325 l 0,-25.22206 -26.29282,0 0,-26.70945 -28.91033,0 0,-95.25896 -84.0541,0 0,21.91238 -27.3042,0 z"
       id="path4643"
       inkscape:connector-curvature="0"
       sodipodi:nodetypes="ccccccccccccccc" />
    <path
       style="fill:none;stroke:#000000;stroke-width:1px;stroke-linecap:butt;stroke-linejoin:miter;stroke-opacity:1"
       d="m 290.1835,434.05679 -0.18928,-26.61758 -28.91033,0 0,-47.6485 26.23345,0 0,-24.09195 80.84184,0 0,24.09195 26.23344,0 0,48.18388 -26.76882,0 0,26.23344 -77.09421,0"
       id="path4648"
       inkscape:connector-curvature="0"
       sodipodi:nodetypes="ccccccccccccc" />
    <path
       style="fill:none;stroke:#000000;stroke-width:1px;stroke-linecap:butt;stroke-linejoin:miter;stroke-opacity:1"
       d="m 177.56516,577.15354 0,47.64851 168.64358,0 0,-24.09194 -30.51645,0 0,-23.55657 z"
       id="path3138"
       inkscape:connector-curvature="0" />
    <path
       style="fill:none;stroke:#000000;stroke-width:1px;stroke-linecap:butt;stroke-linejoin:miter;stroke-opacity:1"
       d="m 152.93785,485.60417 0,66.92206 190.59401,0 0,-93.15551 -50.86076,0 -6.42452,0 0,23.55657 -134.91486,0 1.70355,0.0269 z"
       id="path3140"
       inkscape:connector-curvature="0"
       sodipodi:nodetypes="cccccccccc" />
    <path
       style="fill:#000000;fill-opacity:1;fill-rule:nonzero;stroke:#000000;stroke-width:3.42640924;stroke-linecap:butt;stroke-linejoin:miter;stroke-miterlimit:4;stroke-opacity:1;stroke-dasharray:none;stroke-dashoffset:0"
       d="m 124.38809,309.35715 0,-22.48581 54.6084,0 54.60839,0 0,11.77828 0,11.77829 -41.75936,0 -41.75936,0 0,10.70752 0,10.70753 -12.84903,0 -12.84904,0 0,-22.48581 z"
       id="path4462"
       inkscape:connector-curvature="0" />
    <path
       style="fill:#000000;fill-opacity:1;fill-rule:nonzero;stroke:#000000;stroke-width:3.42640924;stroke-linecap:butt;stroke-linejoin:miter;stroke-miterlimit:4;stroke-opacity:1;stroke-dasharray:none;stroke-dashoffset:0"
       d="m 261.97984,649.32162 -109.75217,-0.57469 0,-47.07165 0,-47.07162 95.83238,-0.55743 95.83238,-0.55742 0.57635,-47.6485 0.57635,-47.64851 -26.8098,0 -26.80979,0 0,-11.77828 0,-11.77828 38.5471,0 38.54711,0 0,-12.84903 0,-12.84904 13.91979,0 13.91978,0 0,-23.55656 0,-23.55657 12.84904,0 12.84903,0 0,35.33485 0,35.33484 -14.99054,0 -14.99054,0 0,12.84904 0,12.84903 -11.77828,0 -11.77828,0 0,58.89141 0,58.89141 -12.84904,0 -12.84903,0 0,11.77828 0,11.77829 -12.84904,0 -12.84903,0 0,-11.77829 0,-11.77828 -70.66969,0 -70.66969,0 0,24.62732 0,24.62731 85.66023,0 85.66023,0 0,-11.77828 0,-11.77828 11.64864,0 11.64863,0 -0.94111,25.16689 c -0.50643,13.54283 -0.9411,21.72078 -0.9411,21.43495 0,-0.28585 -46.17622,1.36318 -106.53991,1.04709 z"
       id="path4471"
       inkscape:connector-curvature="0"
       sodipodi:nodetypes="ccccccccccccccccccccccccccccccccccccccccccccccccccsscc" />
    <path
       style="fill:#000000;fill-opacity:1;fill-rule:nonzero;stroke:#000000;stroke-width:3.42640924;stroke-linecap:butt;stroke-linejoin:miter;stroke-miterlimit:4;stroke-opacity:1;stroke-dasharray:none;stroke-dashoffset:0"
       d="m 265.72747,420.71545 0,-11.77828 11.77828,0 11.77829,0 0,11.77828 0,11.77828 -11.77829,0 -11.77828,0 0,-11.77828 z"
       id="path4473"
       inkscape:connector-curvature="0" />
    <path
       style="fill:#000000;fill-opacity:1;fill-rule:nonzero;stroke:#000000;stroke-width:3.42640924;stroke-linecap:butt;stroke-linejoin:miter;stroke-miterlimit:4;stroke-opacity:1;stroke-dasharray:none;stroke-dashoffset:0"
       d="m 152.22767,471.04084 0,-10.70753 66.38667,0 66.38668,0 0,10.70753 0,10.70753 -66.38668,0 -66.38667,0 0,-10.70753 z"
       id="path4475"
       inkscape:connector-curvature="0" />
    <path
       style="fill:#000000;fill-opacity:1;fill-rule:nonzero;stroke:#000000;stroke-width:0.60570931;stroke-linecap:butt;stroke-linejoin:miter;stroke-miterlimit:4;stroke-opacity:1;stroke-dasharray:none;stroke-dashoffset:0"
       d="m 236.1478,397.79382 c -0.12959,-5.04916 -0.34528,-26.25845 -0.4793,-47.13176 l -0.24369,-37.95147 12.29972,0 12.29971,0 0.24133,2.55534 c 0.13274,1.40543 0.24255,6.68646 0.24403,11.73561 l 0.003,9.18029 13.06061,0 13.06061,0 0,11.54633 0,11.54633 -13.06061,0 -13.06061,0 0,23.84981 0,23.8498 -12.06443,0 -12.82158,-0.37857 -0.23562,-9.18028 0.75714,0.37857 z"
       id="path4483"
       inkscape:connector-curvature="0"
       sodipodi:nodetypes="cscccsccccccccccccccc" />
    <path
       style="fill:#000000;fill-opacity:1;fill-rule:nonzero;stroke:#000000;stroke-width:0.60570931;stroke-linecap:butt;stroke-linejoin:miter;stroke-miterlimit:4;stroke-opacity:1;stroke-dasharray:none;stroke-dashoffset:0"
       d="m 287.76921,324.03844 0,-11.00769 40.22288,0.26791 c 22.12259,0.14735 40.24011,0.28826 40.26116,0.31313 0.0211,0.0249 -0.0436,4.85777 -0.14371,10.73978 l -0.18198,10.69455 -40.07917,0 -40.07918,0 0,-11.00768 z"
       id="path4485"
       inkscape:connector-curvature="0" />
    <path
       style="fill:#000000;fill-opacity:1;fill-rule:nonzero;stroke:#000000;stroke-width:0.60570931;stroke-linecap:butt;stroke-linejoin:miter;stroke-miterlimit:4;stroke-opacity:1;stroke-dasharray:none;stroke-dashoffset:0"
       d="m 368.78283,347.91744 0,-11.35705 12.68204,0 12.68204,0 0,6.7548 c 0,3.71514 -0.11136,8.82581 -0.24746,11.35705 l -0.24747,4.60225 -12.43457,0 -12.43458,0 0,-11.35705 z"
       id="path4487"
       inkscape:connector-curvature="0" />
    <path
       style="fill:#000000;fill-opacity:1;fill-rule:nonzero;stroke:#000000;stroke-width:0.11278048;stroke-linecap:butt;stroke-linejoin:miter;stroke-miterlimit:4;stroke-opacity:1;stroke-dasharray:none;stroke-dashoffset:0"
       d="m 295.732,167.26011 0,-11.84194 12.96974,0 12.96978,0 0,11.84194 0,11.84197 -12.96978,0 -12.96974,0 0,-11.84197 z"
       id="path4294"
       inkscape:connector-curvature="0" />
    <path
       style="fill:#000000;fill-opacity:1;fill-rule:nonzero;stroke:#000000;stroke-width:0.12424082;stroke-linecap:butt;stroke-linejoin:miter;stroke-miterlimit:4;stroke-opacity:1;stroke-dasharray:none;stroke-dashoffset:0"
       d="m 295.73773,191.10875 0,-13.69262 12.96401,0 12.96404,0 0,13.69262 0,13.69263 -12.96404,0 -12.96401,0 0,-13.69263 z"
       id="path4296"
       inkscape:connector-curvature="0" />
    <path
       style="fill:#a02c2c;fill-opacity:1;fill-rule:nonzero;stroke:#a02c2c;stroke-width:2.85578322;stroke-linecap:butt;stroke-linejoin:bevel;stroke-miterlimit:4;stroke-opacity:1;stroke-dasharray:none;stroke-dashoffset:0"
       d="m 123.1629,268.33891 0,-16.22334 -15.47316,0 -15.473151,0 0,-80.2154 0,-80.215393 15.744611,0 15.74461,0 0,-16.824204 0,-16.824202 17.10191,0 17.10191,0 0,-18.326364 0,-18.326365 79.53744,0 79.53743,0 0,16.523771 0,16.523771 17.64484,0 17.64481,0 0,35.679986 0,35.68 -39.09007,0.44746 -39.09008,0.44747 0,30.26808 0,30.26803 -9.09386,0.008 c -5.00163,0.004 -9.64357,0.17125 -10.31543,0.37051 -1.21213,0.3595 -1.22157,0.45 -1.22157,11.70866 l 0,11.34636 -8.95814,0 -8.95814,0 0,36.95316 0,36.95316 -56.19198,0 -56.19198,0 0,-16.22333 z"
       id="path5129"
       inkscape:connector-curvature="0" />
  </g>
  <g
     inkscape:groupmode="layer"
     id="layer2"
     inkscape:label="Layer"
     transform="translate(-90.788697,-19.95575)" />
</svg>
