<?xml version="1.0" encoding="UTF-8" standalone="no"?>
<!-- Created with Inkscape (http://www.inkscape.org/) -->

<svg
   xmlns:dc="http://purl.org/dc/elements/1.1/"
   xmlns:cc="http://creativecommons.org/ns#"
   xmlns:rdf="http://www.w3.org/1999/02/22-rdf-syntax-ns#"
   xmlns:svg="http://www.w3.org/2000/svg"
   xmlns="http://www.w3.org/2000/svg"
   xmlns:sodipodi="http://sodipodi.sourceforge.net/DTD/sodipodi-0.dtd"
   xmlns:inkscape="http://www.inkscape.org/namespaces/inkscape"
   width="390.83075"
   height="580.40021"
   id="svg2"
   version="1.1"
   inkscape:version="0.48.4 r9939"
   sodipodi:docname="front facing dan.zip">
  <defs
     id="defs4" />
  <sodipodi:namedview
     id="base"
     pagecolor="#ffffff"
     bordercolor="#666666"
     borderopacity="1.0"
     inkscape:pageopacity="0.0"
     inkscape:pageshadow="2"
     inkscape:zoom="1"
     inkscape:cx="255.66687"
     inkscape:cy="362.27618"
     inkscape:document-units="px"
     inkscape:current-layer="layer1"
     showgrid="false"
     inkscape:window-width="1366"
     inkscape:window-height="706"
     inkscape:window-x="-8"
     inkscape:window-y="-8"
     inkscape:window-maximized="1"
     fit-margin-left="10"
     fit-margin-top="10"
     fit-margin-right="10"
     fit-margin-bottom="10"
     showguides="true"
     inkscape:guide-bbox="true" />
  <metadata
     id="metadata7">
    <rdf:RDF>
      <cc:Work
         rdf:about="">
        <dc:format>image/svg+xml</dc:format>
        <dc:type
           rdf:resource="http://purl.org/dc/dcmitype/StillImage" />
        <dc:title></dc:title>
      </cc:Work>
    </rdf:RDF>
  </metadata>
  <g
     inkscape:label="Layer 1"
     inkscape:groupmode="layer"
     id="layer1"
     transform="translate(-32.060589,-48.729002)">
    <path
       style="fill:#ffffff;fill-opacity:1;fill-rule:nonzero;stroke:#ffffff;stroke-width:0.56568545;stroke-linecap:butt;stroke-linejoin:miter;stroke-miterlimit:4;stroke-opacity:1;stroke-dasharray:none;stroke-dashoffset:0"
       d="m 167.26084,383.80219 -20.41771,-0.0942 -0.0503,-9.63146 c -0.0277,-5.2973 -0.14698,-14.40443 -0.26516,-20.23806 l -0.21488,-10.6066 -10.13563,-0.17678 c -5.5746,-0.0972 -10.23985,-0.28118 -10.36721,-0.40879 -0.12737,-0.1276 -0.0618,-0.84355 0.14578,-1.59099 0.21389,-0.77028 0.37821,-4.69011 0.37932,-9.04876 l 0.002,-7.68979 -7.24785,0 c -4.59619,0 -7.24784,-0.12935 -7.24784,-0.35355 0,-0.23264 -9.31024,-0.35356 -27.223612,-0.35356 l -27.223611,0 0,-8.3085 0,-8.3085 11.500629,0 11.500628,0 -0.09853,-10.61152 -0.09853,-10.61152 11.490485,0.0933 11.490481,0.0933 0.0936,10.69499 0.0936,10.69499 91.56514,0 91.56514,0 0,-10.04736 c 0,-5.52604 0.0966,-10.29901 0.21461,-10.6066 0.18934,-0.49342 1.51269,-0.55925 11.24299,-0.55925 8.10624,0 11.14082,0.11242 11.45266,0.42427 0.31008,0.31007 0.42427,3.12791 0.42427,10.46935 l 0,10.0451 8.75044,-0.1507 c 7.19256,-0.12387 8.99418,-0.2568 10.11945,-0.74664 0.75295,-0.32777 1.42912,-0.59594 1.5026,-0.59594 0.0735,0 0.1336,4.53905 0.1336,10.08677 l 0,10.08677 -21.56685,-0.0989 c -11.86177,-0.0544 -21.56681,0.0182 -21.56676,0.16132 5e-5,0.14311 -5.05129,0.30221 -11.22522,0.35355 l -11.22532,0.0933 0,6.54074 c 0,3.59741 0.11183,7.37601 0.24851,8.3969 l 0.24851,1.85615 -9.6542,0 c -5.30981,0 -10.63213,0.10222 -11.82738,0.22714 l -2.17319,0.22715 0,20.27895 0,20.27895 -26.95844,-0.0855 c -14.82715,-0.047 -36.14642,-0.12784 -47.37616,-0.17964 z"
       id="path7947"
       inkscape:connector-curvature="0"
       transform="translate(32.060589,48.729002)" />
    <path
       style="fill:#ff6600;fill-opacity:1;fill-rule:nonzero;stroke:#ff6600;stroke-width:1.60000002;stroke-linecap:butt;stroke-linejoin:miter;stroke-miterlimit:4;stroke-opacity:1;stroke-dasharray:none;stroke-dashoffset:0"
       d="m 103.86687,295.92403 0,-11 -33.500002,0 -33.5,0 0,-21 0,-21 -11,0 -11,0 0,-10 0,-10 9,0 9,0 0,-10.5 0,-10.5 -11,0 -11,0 0,-10 0,-10 11.5,0 11.5,0 0,-11.5 0,-11.5 -11.5,0 -11.5,0 0,-11 0,-11 11,0 11,0 0,-19.5 0,-19.500004 12,0 12,0 0,-11 0,-11 13,0 13,0 0,-10.5 0,-10.5 10.5,0 10.500002,0 0,-10 0,-10 21,0 21,0 0,-12 0,-12 46.5,0 46.5,0 0,11 0,11 24,0 24,0 0,11.5 0,11.5 10.96502,0 10.96501,0 0.28499,10.25 0.28498,10.25 11.25,0.282751 11.25,0.282751 0,9.467249 0,9.467249 11.98011,0 11.98011,0 0.26989,21.250004 0.26989,21.25 11.25,0.28275 11.25,0.28275 0,9.93552 0,9.93551 -11.75,0.28173 -11.75,0.28174 -0.28275,11.25 -0.28275,11.25 12.53275,0 12.53275,0 0,10 0,10 -12.03383,0 -12.03383,0 0.28383,10.75 0.28383,10.75 9.75,0.28621 9.75,0.28621 0,9.96379 0,9.96379 -12.5,0 -12.5,0 0,21.12191 0,21.12191 -20.25,-0.27455 c -11.1375,-0.15101 -25.7625,-0.20587 -32.5,-0.12192 l -12.25,0.15265 0,10.5 0,10.5 -91,0 -91,0 0,-11 z m 103,-36 0,-3 12,0 12,0 0,-11.5 0,-11.5 -13,0 -13,0 0,3 0,3 -10.93358,0 -10.93358,0 -0.31642,-2.75 -0.31642,-2.75 -12.25,-0.28078 -12.25,-0.28078 0,11.53078 0,11.53078 11.5,0 11.5,0 0,3 0,3 13,0 13,0 0,-3 z m -76,-20 0,-3 9.5,0 9.5,0 0,-6.5 0,-6.5 43.5,0 43.5,0 0,6.5 0,6.5 12,0 12,0 0,3 0,3 13.5,0 13.5,0 0,-20 0,-20 12,0 12,0 0,-11.5 0,-11.5 -11,0 -11,0 0,-20.5 0,-20.5 -12,0 -12,0 0,-10.5 0,-10.5 -23,0 -23,0 0,-11.5 0,-11.500004 -47.5,0 -47.5,0 0,21.500004 0,21.5 -11,0 -11,0 0,21.5 0,21.5 -12.032753,0 -12.032751,0 0.282751,11.25 0.282751,11.25 11.75,0.28174 11.750002,0.28173 0,18.8016 c 0,10.34088 0.3,19.1016 0.66667,19.46826 0.36666,0.36667 6.66666,0.66667 14,0.66667 l 13.33333,0 0,-3 z"
       id="path7380"
       inkscape:connector-curvature="0"
       transform="translate(32.060589,48.729002)" />
    <path
       style="fill:#214478;fill-opacity:1;fill-rule:nonzero;stroke:#214478;stroke-width:1.60000002000000000;stroke-linecap:butt;stroke-linejoin:miter;stroke-miterlimit:4;stroke-opacity:1;stroke-dasharray:none;stroke-dashoffset:0"
       d="m 82.574221,456.58024 0,-29.48087 22.249999,-0.26913 22.25,-0.26913 0.28383,-10.75 0.28383,-10.75 66.96617,0 66.96617,0 0,10 0,10 23,0 23,0 0,30.5 0,30.5 -112.5,0 -112.499999,0 0,-29.48087 z"
       id="path7372"
       inkscape:connector-curvature="0"
       transform="translate(32.060589,48.729002)" />
    <path
       style="fill:#ffffff;fill-opacity:1;fill-rule:nonzero;stroke:#ffffff;stroke-width:1.60000002000000000;stroke-linecap:butt;stroke-linejoin:miter;stroke-miterlimit:4;stroke-opacity:1;stroke-dasharray:none;stroke-dashoffset:0"
       d="m 147.57422,363.09609 0,-19.96501 -10.25,-0.28499 -10.25,-0.28498 -0.28621,-9.75 -0.28621,-9.75 -34.463791,0 -34.463788,0 0,-7.5 0,-7.5 11.5,0 11.5,0 0,-10.5 0,-10.5 11,0 10.999999,0 0,10.5 0,10.5 92.5,0 92.5,0 0,-10.5 0,-10.5 10.5,0 10.5,0 0,10 0,10 10.38337,0 c 12.02139,0 11.57933,-0.4281 11.60298,11.23652 l 0.0137,6.73652 -33.25,0.26348 -33.25,0.26348 -0.29044,8.25 -0.29044,8.25 -11.45956,0 -11.45956,0 0,20.5 0,20.5 -46.5,0 -46.5,0 0,-19.96502 z"
       id="path6830"
       inkscape:connector-curvature="0"
       transform="translate(32.060589,48.729002)" />
    <path
       style="fill:#000000;fill-opacity:1;fill-rule:nonzero;stroke:#000000;stroke-width:1.14785624;stroke-linecap:butt;stroke-linejoin:miter;stroke-miterlimit:4;stroke-opacity:1;stroke-dasharray:none;stroke-dashoffset:0"
       d="m 177.25707,203.30071 0,-10.76104 11.47854,0 11.47851,0 0,10.76104 0,10.76138 -11.47851,0 -11.47854,0 0,-10.76138 z"
       id="path6871"
       inkscape:connector-curvature="0" />
    <path
       style="fill:#000000;fill-opacity:1;fill-rule:nonzero;stroke:#000000;stroke-width:1.14785624;stroke-linecap:butt;stroke-linejoin:miter;stroke-miterlimit:4;stroke-opacity:1;stroke-dasharray:none;stroke-dashoffset:0"
       d="m 177.25707,225.37194 0,-10.76105 11.47854,0 11.47851,0 0,10.76105 0,10.76137 -11.47851,0 -11.47854,0 0,-10.76137 z"
       id="path6873"
       inkscape:connector-curvature="0" />
    <path
       style="fill:#000000;fill-opacity:1;fill-rule:nonzero;stroke:#000000;stroke-width:1.14785624;stroke-linecap:butt;stroke-linejoin:miter;stroke-miterlimit:4;stroke-opacity:1;stroke-dasharray:none;stroke-dashoffset:0"
       d="m 247.77524,203.30071 0,-10.76104 12.19598,0 12.19599,0 0,10.76104 0,10.76138 -12.19599,0 -12.19598,0 0,-10.76138 z"
       id="path6875"
       inkscape:connector-curvature="0" />
    <path
       style="fill:#000000;fill-opacity:1;fill-rule:nonzero;stroke:#000000;stroke-width:1.14785624;stroke-linecap:butt;stroke-linejoin:miter;stroke-miterlimit:4;stroke-opacity:1;stroke-dasharray:none;stroke-dashoffset:0"
       d="m 247.77524,225.37194 0,-10.76105 12.19598,0 12.19599,0 0,10.76105 0,10.76137 -12.19599,0 -12.19598,0 0,-10.76137 z"
       id="path6877"
       inkscape:connector-curvature="0" />
    <path
       style="fill:#000000;fill-opacity:1;fill-rule:nonzero;stroke:#000000;stroke-width:1.14785624;stroke-linecap:butt;stroke-linejoin:miter;stroke-miterlimit:4;stroke-opacity:1;stroke-dasharray:none;stroke-dashoffset:0"
       d="m 190.76323,294.46653 0,-10.76136 11.47852,0 11.47853,0 0,10.76136 0,10.76106 -11.47853,0 -11.47852,0 0,-10.76106 z"
       id="path6945"
       inkscape:connector-curvature="0" />
    <path
       style="fill:#000000;fill-opacity:1;fill-rule:nonzero;stroke:#000000;stroke-width:1.14785624;stroke-linecap:butt;stroke-linejoin:miter;stroke-miterlimit:4;stroke-opacity:1;stroke-dasharray:none;stroke-dashoffset:0"
       d="m 213.61904,299.7666 0,-10.76136 12.19599,0 12.19598,0 0,10.76136 0,10.76106 -12.19598,0 -12.19599,0 0,-10.76106 z"
       id="path6947"
       inkscape:connector-curvature="0" />
    <path
       style="fill:#000000;fill-opacity:1;fill-rule:nonzero;stroke:#000000;stroke-width:1.14785624;stroke-linecap:butt;stroke-linejoin:miter;stroke-miterlimit:4;stroke-opacity:1;stroke-dasharray:none;stroke-dashoffset:0"
       d="m 237.77524,294.46653 0,-10.76136 12.19598,0 12.19599,0 0,10.76136 0,10.76106 -12.19599,0 -12.19598,0 0,-10.76106 z"
       id="path6949"
       inkscape:connector-curvature="0" />
    <path
       style="fill:none;stroke:#000000;stroke-width:1px;stroke-linecap:butt;stroke-linejoin:miter;stroke-opacity:1"
       d="m 57.275649,285.89023 0,19.79899 -24.04163,0 0,37.47666 -23.3345241,0 0,60.10408 23.6880771,0 0,22.62742 22.980971,0 0,61.51829 24.395184,0 0,18.73833 21.920313,0 0,45.25483 21.2132,0 0,19.09188 140.00714,0 0,-20.15254 23.33453,0 0,-44.19417 23.68807,0 0,-18.03123 21.21321,0 0,-62.57895 24.74873,0 0,-21.2132 23.33453,0 0,-60.45763 -22.27387,0 0,-39.59798 -26.16295,0 0,-18.29899"
       id="path6802"
       inkscape:connector-curvature="0"
       transform="translate(32.060589,48.729002)"
       sodipodi:nodetypes="cccccccccccccccccccccccccccccccc" />
    <path
       style="fill:none;stroke:#000000;stroke-width:1px;stroke-linecap:butt;stroke-linejoin:miter;stroke-opacity:1"
       d="m 287.79246,325.48821 0,20.15255 -22.98097,0 0,37.1231 24.39518,0"
       id="path6804"
       inkscape:connector-curvature="0"
       transform="translate(32.060589,48.729002)" />
    <path
       style="fill:none;stroke:#000000;stroke-width:1px;stroke-linecap:butt;stroke-linejoin:miter;stroke-opacity:1"
       d="m 81.5,425.90021 0,60.5 227,0 0,-62 -46,0 0,-20 -136,0 0,21.5 z"
       id="path6812"
       inkscape:connector-curvature="0"
       transform="translate(32.060589,48.729002)" />
    <path
       style="fill:none;stroke:#000000;stroke-width:1px;stroke-linecap:butt;stroke-linejoin:miter;stroke-opacity:1"
       d="m 127,506.40021 0,40.5 138.5,0 0,-41 z"
       id="path6814"
       inkscape:connector-curvature="0"
       transform="translate(32.060589,48.729002)" />
    <path
       style="fill:#000000;fill-opacity:1;fill-rule:nonzero;stroke:#000000;stroke-width:1.60000002;stroke-linecap:butt;stroke-linejoin:miter;stroke-miterlimit:4;stroke-opacity:1;stroke-dasharray:none;stroke-dashoffset:0"
       d="m 309.35136,456.07274 0.27714,-32.01163 -23.02714,0 -23.02714,0 0,-10 0,-10 -69,0 -69,0 0,10.5 0,10.5 -22.5,0 -22.499999,0 0,31 0,31 -11.5,0 -11.5,0 0,-31 0,-31 -11.467249,0 -11.467249,0 -0.282751,-11.25 -0.282751,-11.25 -11.75,-0.28173 -11.75,-0.28174 0,-28.96826 0,-28.96827 11.477935,0 11.477934,0 0.272066,-18.75 0.272065,-18.75 11.25,-0.28275 11.25,-0.28275 0,19.53275 0,19.53275 -10.5,0 -10.5,0 0,18.5 0,18.5 11,0 11,0 0,11 0,11 22.5,0 22.499999,0 0,-10.5 0,-10.5 11.05829,0 11.05828,0 -0.30828,-20.01236 c -0.25184,-16.34825 -0.0644,-19.91856 1.0235,-19.5 0.73248,0.2818 5.56066,0.51236 10.72929,0.51236 l 9.39751,0 0.2707,20.25 0.27071,20.25 48.25,0.2596 48.25,0.25961 0,-20.45081 0,-20.4508 12.00189,-0.3088 c 11.17618,-0.28755 14.1484,0.15208 10.49811,1.55283 -1.25866,0.48299 -1.5,3.55713 -1.5,19.10699 l 0,18.53138 11,0 11,0 0,10 0,10 24,0 24,0 0,-10 0,-10 11.54097,0 11.54096,0 -0.29096,-19.51228 c -0.2375,-15.92646 -0.0462,-19.41814 1.04082,-19 0.73248,0.28175 6.01998,0.51228 11.75,0.51228 l 10.41821,0 0,29.5 0,29.5 -11.5,0 -11.5,0 0,10.5 0,10.5 -12.5,0 -12.5,0 0,31 0,31 -9.91821,0 c -5.45502,0 -10.51752,0.23024 -11.25,0.51163 -1.09548,0.42085 -1.28262,-5.16842 -1.05465,-31.5 l 0,0 z"
       id="path6816"
       inkscape:connector-curvature="0"
       transform="translate(32.060589,48.729002)" />
    <path
       style="fill:#000000;fill-opacity:1;fill-rule:nonzero;stroke:#000000;stroke-width:1.60000002;stroke-linecap:butt;stroke-linejoin:miter;stroke-miterlimit:4;stroke-opacity:1;stroke-dasharray:none;stroke-dashoffset:0"
       d="m 102.57422,335.06111 0,-10 11.5,0 11.5,0 -0.0318,8.25 c -0.0252,6.52842 1.13396,10.18101 -1.22033,11.4707 -1.80073,0.98645 -6.17563,0.2793 -11.60811,0.2793 l -10.13976,0 z"
       id="path6818"
       inkscape:connector-curvature="0"
       transform="translate(32.060589,48.729002)"
       sodipodi:nodetypes="ccccssscc" />
    <path
       style="fill:#000000;fill-opacity:1;fill-rule:nonzero;stroke:#000000;stroke-width:1.60000002;stroke-linecap:butt;stroke-linejoin:miter;stroke-miterlimit:4;stroke-opacity:1;stroke-dasharray:none;stroke-dashoffset:0"
       d="m 57.574221,296.56111 0,-9.5 11,0 11,0 0,9.5 0,9.5 -11,0 -11,0 0,-9.5 z"
       id="path6820"
       inkscape:connector-curvature="0"
       transform="translate(32.060589,48.729002)" />
    <path
       style="fill:#000000;fill-opacity:1;fill-rule:nonzero;stroke:#000000;stroke-width:1.60000002;stroke-linecap:butt;stroke-linejoin:miter;stroke-miterlimit:4;stroke-opacity:1;stroke-dasharray:none;stroke-dashoffset:0"
       d="m 331.36437,325.06008 -0.29015,-20.00103 13.25,10e-4 13.25,0.001 0,19.39301 c 0,16.7614 -0.21465,19.47538 -1.58179,20 -0.86998,0.33385 -6.70191,0.60699 -12.95984,0.60699 l -11.37807,0 -0.29015,-20.00103 z"
       id="path6822"
       inkscape:connector-curvature="0"
       transform="translate(32.060589,48.729002)" />
    <path
       style="fill:#000000;fill-opacity:1;fill-rule:nonzero;stroke:#000000;stroke-width:1.60000002;stroke-linecap:butt;stroke-linejoin:miter;stroke-miterlimit:4;stroke-opacity:1;stroke-dasharray:none;stroke-dashoffset:0"
       d="m 310.57422,296.56111 0,-9.5 10.5,0 10.5,0 0,8.07143 c 0,13.74627 -0.14618,10.92857 -11.92857,10.92857 l -9.07143,0 z"
       id="path6824"
       inkscape:connector-curvature="0"
       transform="translate(32.060589,48.729002)"
       sodipodi:nodetypes="ccccsscc" />
    <path
       style="fill:#000000;fill-opacity:1;fill-rule:nonzero;stroke:#000000;stroke-width:1.60000002;stroke-linecap:butt;stroke-linejoin:miter;stroke-miterlimit:4;stroke-opacity:1;stroke-dasharray:none;stroke-dashoffset:0"
       d="m 266.57422,343.98101 c -1.43445,-0.83549 -1,-2.45283 -1,-8.96959 l 0,-7.95031 10.5,0 10.5,0 0,9 0,9 -8.75,-0.0304 c -4.8125,-0.0167 -5.5375,0.0109 -6.5,-0.54969 z"
       id="path6826"
       inkscape:connector-curvature="0"
       transform="translate(32.060589,48.729002)"
       sodipodi:nodetypes="cscccccscc" />
    <path
       style="fill:#000000;fill-opacity:1;fill-rule:nonzero;stroke:#000000;stroke-width:1.60000002;stroke-linecap:butt;stroke-linejoin:miter;stroke-miterlimit:4;stroke-opacity:1;stroke-dasharray:none;stroke-dashoffset:0"
       d="m 124.57422,560.56111 0,-9.5 -10.5,0 -10.5,0 0,-23 0,-23 -10.999999,0 -11,0 0,-9.00424 0,-9.00423 114.249999,0.25423 114.25,0.25424 0.28893,8.75 0.28894,8.75 -12.03894,0 -12.03893,0 0,22.5 0,22.5 -11.5,0 -11.5,0 0,10 0,10 -69.5,0 -69.5,0 0,-9.5 z m 141.76989,-34.25 0.26989,-21.25 -53.36018,0 c -29.3481,0 -60.85705,0.29567 -70.01989,0.65704 l -16.65971,0.65704 0,20.84976 0,20.84976 69.75,-0.2568 69.75,-0.2568 0.26989,-21.25 z"
       id="path6828"
       inkscape:connector-curvature="0"
       transform="translate(32.060589,48.729002)" />
    <path
       style="fill:#ffccaa;fill-opacity:1;fill-rule:nonzero;stroke:#ffccaa;stroke-width:1.60000002000000000;stroke-linecap:butt;stroke-linejoin:miter;stroke-miterlimit:4;stroke-opacity:1;stroke-dasharray:none;stroke-dashoffset:0"
       d="m 112.61687,241.18072 -7.75,-0.34082 0,-19.45793 0,-19.45794 -12.000002,0 -12,0 0,-10 0,-10 12,0 12.000002,0 0,-21.5 0,-21.5 10.5,0 10.5,0 0,-21.5 0,-21.500004 45.96826,0 45.96827,0 0.28173,11.750004 0.28174,11.75 23.25,0.26843 23.25,0.26843 0,10.48157 0,10.48157 12,0 12,0 0,20.5 0,20.5 11,0 11,0 0,9.5 0,9.5 -12,0 -12,0 0,20.5 0,20.5 -12.5,0 -12.5,0 0,-3 0,-3 -12,0 -12,0 0,-7.0103 0,-7.01029 -44.75,0.26029 -44.75,0.2603 -0.29569,6.75 -0.29569,6.75 -8.95431,0 -8.95431,0 0,3 c 0,3.36771 2.01615,3.10395 -17.25,2.25669 l 0,0 z m 56.25,-75.78747 0,-22.53078 -12.25,0.28078 -12.25,0.28078 -0.26913,22.25 -0.26913,22.25 12.51913,0 12.51913,0 0,-22.53078 z m 72,0.0308 0,-22.5 -13,0 -13,0 0,22.5 0,22.5 13,0 13,0 0,-22.5 z"
       id="path7935"
       inkscape:connector-curvature="0"
       transform="translate(32.060589,48.729002)" />
    <path
       style="fill:#ffccaa;fill-opacity:1;fill-rule:nonzero;stroke:#ffccaa;stroke-width:1.60000002;stroke-linecap:butt;stroke-linejoin:miter;stroke-miterlimit:4;stroke-opacity:1;stroke-dasharray:none;stroke-dashoffset:0"
       d="m 90.927457,440.65303 0,-11 -11,0 -11,0 0,-17.5 0,-17.5 10.5,0 10.5,0 0,-10.5 0,-10.5 21.466163,0 21.46618,0 0.28383,10.75 0.28383,10.75 10.75,0.28383 10.75,0.28383 0,16.93234 0,16.93233 -10.75,0.28383 -10.75,0.28384 -0.28383,10.75 -0.28383,10.75 -20.96618,0 -20.966163,0 0,-11 z"
       id="path7937"
       inkscape:connector-curvature="0" />
    <path
       style="fill:#ffccaa;fill-opacity:1;fill-rule:nonzero;stroke:#ffccaa;stroke-width:1.60000002;stroke-linecap:butt;stroke-linejoin:miter;stroke-miterlimit:4;stroke-opacity:1;stroke-dasharray:none;stroke-dashoffset:0"
       d="m 288.02316,391.92305 0.34371,-10.00098 -11.25,9.8e-4 -11.25,9.8e-4 0,-18 0,-18 11.5,0 11.5,0 0,-9.5 0,-9.5 20.35754,0 20.35755,0 0.64245,6.14669 c 0.35335,3.38068 0.64246,7.65568 0.64246,9.5 l 0,3.35331 12,0 12,0 0,18 0,18 -11.5,0 -11.5,0 0,10 0,10 -22.09371,0 -22.09371,0 0.34371,-10.00098 0,0 z"
       id="path7939"
       inkscape:connector-curvature="0"
       transform="translate(32.060589,48.729002)" />
    <path
       style="fill:#552200;fill-opacity:1;fill-rule:nonzero;stroke:#552200;stroke-width:0.40000001000000002;stroke-linecap:butt;stroke-linejoin:miter;stroke-miterlimit:4;stroke-opacity:1;stroke-dasharray:none;stroke-dashoffset:0"
       d="m 127.52784,526.76153 0.064,-19.5625 4.81366,-0.15584 c 2.64752,-0.0857 33.5569,-0.24003 68.68751,-0.34295 l 63.87383,-0.18711 0,19.90545 0,19.90545 -68.75152,0 -68.75153,0 0.064,-19.5625 z"
       id="path7949"
       inkscape:connector-curvature="0"
       transform="translate(32.060589,48.729002)" />
  </g>
  <g
     inkscape:groupmode="layer"
     id="layer2"
     inkscape:label="Layer"
     transform="translate(-32.060589,-48.729002)" />
</svg>
