<?xml version="1.0" encoding="UTF-8" standalone="no"?>
<!-- Created with Inkscape (http://www.inkscape.org/) -->

<svg
   xmlns:dc="http://purl.org/dc/elements/1.1/"
   xmlns:cc="http://creativecommons.org/ns#"
   xmlns:rdf="http://www.w3.org/1999/02/22-rdf-syntax-ns#"
   xmlns:svg="http://www.w3.org/2000/svg"
   xmlns="http://www.w3.org/2000/svg"
   xmlns:sodipodi="http://sodipodi.sourceforge.net/DTD/sodipodi-0.dtd"
   xmlns:inkscape="http://www.inkscape.org/namespaces/inkscape"
   width="170.39059"
   height="374.52957"
   id="svg2"
   version="1.1"
   inkscape:version="0.48.4 r9939"
   sodipodi:docname="source4.zip">
  <defs
     id="defs4" />
  <sodipodi:namedview
     id="base"
     pagecolor="#ffffff"
     bordercolor="#666666"
     borderopacity="1.0"
     inkscape:pageopacity="0.0"
     inkscape:pageshadow="2"
     inkscape:zoom="0.62730239"
     inkscape:cx="1.9458024"
     inkscape:cy="378.05867"
     inkscape:document-units="px"
     inkscape:current-layer="layer1"
     showgrid="false"
     inkscape:window-width="1366"
     inkscape:window-height="706"
     inkscape:window-x="-8"
     inkscape:window-y="-8"
     inkscape:window-maximized="1"
     fit-margin-left="0"
     fit-margin-top="0"
     fit-margin-right="0"
     fit-margin-bottom="0" />
  <metadata
     id="metadata7">
    <rdf:RDF>
      <cc:Work
         rdf:about="">
        <dc:format>image/svg+xml</dc:format>
        <dc:type
           rdf:resource="http://purl.org/dc/dcmitype/StillImage" />
        <dc:title></dc:title>
      </cc:Work>
    </rdf:RDF>
  </metadata>
  <g
     inkscape:label="Layer 1"
     inkscape:groupmode="layer"
     id="layer1"
     transform="translate(-127.45261,-135.52114)">
    <path
       style="fill:#1a1a1a;fill-opacity:1;fill-rule:nonzero;stroke:#1a1a1a;stroke-width:5.9291687;stroke-linecap:round;stroke-linejoin:miter;stroke-miterlimit:4;stroke-opacity:1;stroke-dasharray:none;stroke-dashoffset:0"
       d="m 230.81062,152.57595 0,-14.09023 15.21744,0 15.21745,0 0,14.09023 0,14.09023 -15.21745,0 -15.21744,0 0,-14.09023 z"
       id="path16351"
       inkscape:connector-curvature="0" />
    <path
       style="fill:#1a1a1a;fill-opacity:1;fill-rule:nonzero;stroke:#1a1a1a;stroke-width:5.9291687;stroke-linecap:round;stroke-linejoin:miter;stroke-miterlimit:4;stroke-opacity:1;stroke-dasharray:none;stroke-dashoffset:0"
       d="m 196.99406,152.57595 0,-14.09023 15.21745,0 15.21745,0 0,14.09023 0,14.09023 -15.21745,0 -15.21745,0 0,-14.09023 z"
       id="path16353"
       inkscape:connector-curvature="0" />
    <path
       style="fill:#1a1a1a;fill-opacity:1;fill-rule:nonzero;stroke:#1a1a1a;stroke-width:5.9291687;stroke-linecap:round;stroke-linejoin:miter;stroke-miterlimit:4;stroke-opacity:1;stroke-dasharray:none;stroke-dashoffset:0"
       d="m 162.05029,152.57595 0,-14.09023 15.78106,0 15.78106,0 0,14.09023 0,14.09023 -15.78106,0 -15.78106,0 0,-14.09023 z"
       id="path16355"
       inkscape:connector-curvature="0" />
    <path
       style="fill:#1a1a1a;fill-opacity:1;fill-rule:nonzero;stroke:#1a1a1a;stroke-width:5.9291687;stroke-linecap:round;stroke-linejoin:miter;stroke-miterlimit:4;stroke-opacity:1;stroke-dasharray:none;stroke-dashoffset:0"
       d="m 162.05029,184.13806 0,-14.09023 15.78106,0 15.78106,0 0,14.09023 0,14.09023 -15.78106,0 -15.78106,0 0,-14.09023 z"
       id="path16377"
       inkscape:connector-curvature="0" />
    <path
       style="fill:#1a1a1a;fill-opacity:1;fill-rule:nonzero;stroke:#1a1a1a;stroke-width:5.9291687;stroke-linecap:round;stroke-linejoin:miter;stroke-miterlimit:4;stroke-opacity:1;stroke-dasharray:none;stroke-dashoffset:0"
       d="m 230.81062,184.13806 0,-14.09023 15.21744,0 15.21745,0 0,14.09023 0,14.09023 -15.21745,0 -15.21744,0 0,-14.09023 z"
       id="path16379"
       inkscape:connector-curvature="0" />
    <path
       style="fill:#1a1a1a;fill-opacity:1;fill-rule:nonzero;stroke:#1a1a1a;stroke-width:5.9291687;stroke-linecap:round;stroke-linejoin:miter;stroke-miterlimit:4;stroke-opacity:1;stroke-dasharray:none;stroke-dashoffset:0"
       d="m 162.05029,215.13657 0,-13.52662 15.78106,0 15.78106,0 0,13.52662 0,13.52662 -15.78106,0 -15.78106,0 0,-13.52662 z"
       id="path16381"
       inkscape:connector-curvature="0" />
    <path
       style="fill:#1a1a1a;fill-opacity:1;fill-rule:nonzero;stroke:#1a1a1a;stroke-width:5.9291687;stroke-linecap:round;stroke-linejoin:miter;stroke-miterlimit:4;stroke-opacity:1;stroke-dasharray:none;stroke-dashoffset:0"
       d="m 196.99406,214.57296 0,-14.09023 15.21745,0 15.21745,0 0,14.09023 0,14.09023 -15.21745,0 -15.21745,0 0,-14.09023 z"
       id="path16383"
       inkscape:connector-curvature="0" />
    <path
       style="fill:#1a1a1a;fill-opacity:1;fill-rule:nonzero;stroke:#1a1a1a;stroke-width:5.9291687;stroke-linecap:round;stroke-linejoin:miter;stroke-miterlimit:4;stroke-opacity:1;stroke-dasharray:none;stroke-dashoffset:0"
       d="m 230.81062,215.13657 0,-13.52662 15.21744,0 15.21745,0 0,13.52662 0,13.52662 -15.21745,0 -15.21744,0 0,-13.52662 z"
       id="path16387"
       inkscape:connector-curvature="0" />
    <path
       style="fill:#1a1a1a;fill-opacity:1;fill-rule:nonzero;stroke:#1a1a1a;stroke-width:5.9291687;stroke-linecap:round;stroke-linejoin:miter;stroke-miterlimit:4;stroke-opacity:1;stroke-dasharray:none;stroke-dashoffset:0"
       d="m 250.62717,214.57296 0,-14.09023 15.21744,0 15.21745,0 0,14.09023 0,14.09023 -15.21745,0 -15.21744,0 0,-14.09023 z"
       id="path16389"
       inkscape:connector-curvature="0" />
    <path
       style="fill:#1a1a1a;fill-opacity:1;fill-rule:nonzero;stroke:#1a1a1a;stroke-width:5.9291687;stroke-linecap:round;stroke-linejoin:miter;stroke-miterlimit:4;stroke-opacity:1;stroke-dasharray:none;stroke-dashoffset:0"
       d="m 140.23374,214.57296 0,-14.09023 15.21745,0 15.21745,0 0,14.09023 0,14.09023 -15.21745,0 -15.21745,0 0,-14.09023 z"
       id="path16391"
       inkscape:connector-curvature="0" />
    <path
       style="fill:#1a1a1a;fill-opacity:1;fill-rule:nonzero;stroke:#1a1a1a;stroke-width:5.9291687;stroke-linecap:round;stroke-linejoin:miter;stroke-miterlimit:4;stroke-opacity:1;stroke-dasharray:none;stroke-dashoffset:0"
       d="m 140.23374,246.13507 0,-14.09023 15.78106,0 15.78106,0 0,14.09023 0,14.09023 -15.78106,0 -15.78106,0 0,-14.09023 z"
       id="path16393"
       inkscape:connector-curvature="0" />
    <path
       style="fill:#1a1a1a;fill-opacity:1;fill-rule:nonzero;stroke:#1a1a1a;stroke-width:5.9291687;stroke-linecap:round;stroke-linejoin:miter;stroke-miterlimit:4;stroke-opacity:1;stroke-dasharray:none;stroke-dashoffset:0"
       d="m 250.62717,246.13507 0,-14.09023 15.21744,0 15.21745,0 0,14.09023 0,14.09023 -15.21745,0 -15.21744,0 0,-14.09023 z"
       id="path16395"
       inkscape:connector-curvature="0" />
    <path
       style="fill:#1a1a1a;fill-opacity:1;fill-rule:nonzero;stroke:#1a1a1a;stroke-width:5.9291687;stroke-linecap:round;stroke-linejoin:miter;stroke-miterlimit:4;stroke-opacity:1;stroke-dasharray:none;stroke-dashoffset:0"
       d="m 140.23374,277.13358 0,-13.52662 15.78106,0 15.78106,0 0,13.52662 0,13.52662 -15.78106,0 -15.78106,0 0,-13.52662 z"
       id="path16397"
       inkscape:connector-curvature="0" />
    <path
       style="fill:#1a1a1a;fill-opacity:1;fill-rule:nonzero;stroke:#1a1a1a;stroke-width:5.9291687;stroke-linecap:round;stroke-linejoin:miter;stroke-miterlimit:4;stroke-opacity:1;stroke-dasharray:none;stroke-dashoffset:0"
       d="m 250.62717,277.13358 0,-13.52662 15.21744,0 15.21745,0 0,13.52662 0,13.52662 -15.21745,0 -15.21744,0 0,-13.52662 z"
       id="path16399"
       inkscape:connector-curvature="0" />
    <path
       style="fill:#1a1a1a;fill-opacity:1;fill-rule:nonzero;stroke:#1a1a1a;stroke-width:5.9291687;stroke-linecap:round;stroke-linejoin:miter;stroke-miterlimit:4;stroke-opacity:1;stroke-dasharray:none;stroke-dashoffset:0"
       d="m 250.62717,308.13208 0,-14.09023 15.21744,0 15.21745,0 0,14.09023 0,14.09023 -15.21745,0 -15.21744,0 0,-14.09023 z"
       id="path16401"
       inkscape:connector-curvature="0" />
    <path
       style="fill:#1a1a1a;fill-opacity:1;fill-rule:nonzero;stroke:#1a1a1a;stroke-width:5.9291687;stroke-linecap:round;stroke-linejoin:miter;stroke-miterlimit:4;stroke-opacity:1;stroke-dasharray:none;stroke-dashoffset:0"
       d="m 250.62717,339.13059 0,-13.52662 15.21744,0 15.21745,0 0,13.52662 0,13.52662 -15.21745,0 -15.21744,0 0,-13.52662 z"
       id="path16403"
       inkscape:connector-curvature="0" />
    <path
       style="fill:#1a1a1a;fill-opacity:1;fill-rule:nonzero;stroke:#1a1a1a;stroke-width:5.9291687;stroke-linecap:round;stroke-linejoin:miter;stroke-miterlimit:4;stroke-opacity:1;stroke-dasharray:none;stroke-dashoffset:0"
       d="m 250.62717,370.12909 0,-14.09023 15.21744,0 15.21745,0 0,14.09023 0,14.09023 -15.21745,0 -15.21744,0 0,-14.09023 z"
       id="path16405"
       inkscape:connector-curvature="0" />
    <path
       style="fill:#1a1a1a;fill-opacity:1;fill-rule:nonzero;stroke:#1a1a1a;stroke-width:5.9291687;stroke-linecap:round;stroke-linejoin:miter;stroke-miterlimit:4;stroke-opacity:1;stroke-dasharray:none;stroke-dashoffset:0"
       d="m 250.62717,401.1276 0,-13.52662 15.21744,0 15.21745,0 0,13.52662 0,13.52662 -15.21745,0 -15.21744,0 0,-13.52662 z"
       id="path16407"
       inkscape:connector-curvature="0" />
    <path
       style="fill:#1a1a1a;fill-opacity:1;fill-rule:nonzero;stroke:#1a1a1a;stroke-width:5.9291687;stroke-linecap:round;stroke-linejoin:miter;stroke-miterlimit:4;stroke-opacity:1;stroke-dasharray:none;stroke-dashoffset:0"
       d="m 250.62717,432.1261 0,-14.09023 15.21744,0 15.21745,0 0,14.09023 0,14.09023 -15.21745,0 -15.21744,0 0,-14.09023 z"
       id="path16409"
       inkscape:connector-curvature="0" />
    <path
       style="fill:#1a1a1a;fill-opacity:1;fill-rule:nonzero;stroke:#1a1a1a;stroke-width:5.9291687;stroke-linecap:round;stroke-linejoin:miter;stroke-miterlimit:4;stroke-opacity:1;stroke-dasharray:none;stroke-dashoffset:0"
       d="m 250.62717,463.12461 0,-13.52662 15.21744,0 15.21745,0 0,13.52662 0,13.52662 -15.21745,0 -15.21744,0 0,-13.52662 z"
       id="path16411"
       inkscape:connector-curvature="0" />
    <path
       style="fill:#1a1a1a;fill-opacity:1;fill-rule:nonzero;stroke:#1a1a1a;stroke-width:5.9291687;stroke-linecap:round;stroke-linejoin:miter;stroke-miterlimit:4;stroke-opacity:1;stroke-dasharray:none;stroke-dashoffset:0"
       d="m 250.62717,493.5595 0,-13.52662 15.21744,0 15.21745,0 0,13.52662 0,13.52662 -15.21745,0 -15.21744,0 0,-13.52662 z"
       id="path16413"
       inkscape:connector-curvature="0" />
    <path
       style="fill:#1a1a1a;fill-opacity:1;fill-rule:nonzero;stroke:#1a1a1a;stroke-width:5.9291687;stroke-linecap:round;stroke-linejoin:miter;stroke-miterlimit:4;stroke-opacity:1;stroke-dasharray:none;stroke-dashoffset:0"
       d="m 140.23374,308.13208 0,-14.09023 15.78106,0 15.78106,0 0,14.09023 0,14.09023 -15.78106,0 -15.78106,0 0,-14.09023 z"
       id="path16415"
       inkscape:connector-curvature="0" />
    <path
       style="fill:#1a1a1a;fill-opacity:1;fill-rule:nonzero;stroke:#1a1a1a;stroke-width:5.9291687;stroke-linecap:round;stroke-linejoin:miter;stroke-miterlimit:4;stroke-opacity:1;stroke-dasharray:none;stroke-dashoffset:0"
       d="m 140.23374,339.13059 0,-13.52662 15.78106,0 15.78106,0 0,13.52662 0,13.52662 -15.78106,0 -15.78106,0 0,-13.52662 z"
       id="path16417"
       inkscape:connector-curvature="0" />
    <path
       style="fill:#1a1a1a;fill-opacity:1;fill-rule:nonzero;stroke:#1a1a1a;stroke-width:5.9291687;stroke-linecap:round;stroke-linejoin:miter;stroke-miterlimit:4;stroke-opacity:1;stroke-dasharray:none;stroke-dashoffset:0"
       d="m 140.23374,370.12909 0,-14.09023 15.78106,0 15.78106,0 0,14.09023 0,14.09023 -15.78106,0 -15.78106,0 0,-14.09023 z"
       id="path16419"
       inkscape:connector-curvature="0" />
    <path
       style="fill:#1a1a1a;fill-opacity:1;fill-rule:nonzero;stroke:#1a1a1a;stroke-width:5.9291687;stroke-linecap:round;stroke-linejoin:miter;stroke-miterlimit:4;stroke-opacity:1;stroke-dasharray:none;stroke-dashoffset:0"
       d="m 147.84247,414.94447 c 4.49478,-0.21396 11.84988,-0.21396 16.34466,0 4.49479,0.21396 0.81724,0.38902 -8.17233,0.38902 -8.98957,0 -12.66712,-0.17506 -8.17233,-0.38902 z"
       id="path16421"
       inkscape:connector-curvature="0" />
    <path
       style="fill:#1a1a1a;fill-opacity:1;fill-rule:nonzero;stroke:#1a1a1a;stroke-width:5.9291687;stroke-linecap:round;stroke-linejoin:miter;stroke-miterlimit:4;stroke-opacity:1;stroke-dasharray:none;stroke-dashoffset:0"
       d="m 140.23374,401.1276 0,-13.52662 15.78106,0 15.78106,0 0,13.52662 c 0,12.77514 -0.12525,13.52662 -2.25444,13.52662 -1.25246,0 -2.25444,-0.75148 -2.25444,-1.69083 0,-1.39024 -2.00394,-1.69083 -11.27218,-1.69083 -9.26824,0 -11.27218,0.30059 -11.27218,1.69083 0,0.93935 -1.00197,1.69083 -2.25444,1.69083 -2.12919,0 -2.25444,-0.75148 -2.25444,-13.52662 z"
       id="path16423"
       inkscape:connector-curvature="0" />
    <path
       style="fill:#1a1a1a;fill-opacity:1;fill-rule:nonzero;stroke:#1a1a1a;stroke-width:5.9291687;stroke-linecap:round;stroke-linejoin:miter;stroke-miterlimit:4;stroke-opacity:1;stroke-dasharray:none;stroke-dashoffset:0"
       d="m 140.23374,432.40791 0,-13.80843 15.78106,0 15.78106,0 0,13.80843 0,13.80842 -15.78106,0 -15.78106,0 0,-13.80842 z"
       id="path16425"
       inkscape:connector-curvature="0" />
    <path
       style="fill:#1a1a1a;fill-opacity:1;fill-rule:nonzero;stroke:#1a1a1a;stroke-width:5.9291687;stroke-linecap:round;stroke-linejoin:miter;stroke-miterlimit:4;stroke-opacity:1;stroke-dasharray:none;stroke-dashoffset:0"
       d="m 140.23374,463.12461 0,-13.52662 15.78106,0 15.78106,0 0,13.52662 0,13.52662 -15.78106,0 -15.78106,0 0,-13.52662 z"
       id="path16427"
       inkscape:connector-curvature="0" />
    <path
       style="fill:#1a1a1a;fill-opacity:1;fill-rule:nonzero;stroke:#1a1a1a;stroke-width:5.9291687;stroke-linecap:round;stroke-linejoin:miter;stroke-miterlimit:4;stroke-opacity:1;stroke-dasharray:none;stroke-dashoffset:0"
       d="m 140.23374,493.5595 0,-13.52662 15.78106,0 15.78106,0 0,13.52662 0,13.52662 -15.78106,0 -15.78106,0 0,-13.52662 z"
       id="path16429"
       inkscape:connector-curvature="0" />
    <path
       style="fill:#1a1a1a;fill-opacity:1;fill-rule:nonzero;stroke:#1a1a1a;stroke-width:5.9291687;stroke-linecap:round;stroke-linejoin:miter;stroke-miterlimit:4;stroke-opacity:1;stroke-dasharray:none;stroke-dashoffset:0"
       d="m 163.17751,493.5595 0,-13.52662 15.21745,0 15.21745,0 0,13.52662 0,13.52662 -15.21745,0 -15.21745,0 0,-13.52662 z"
       id="path16431"
       inkscape:connector-curvature="0" />
    <path
       style="fill:#1a1a1a;fill-opacity:1;fill-rule:nonzero;stroke:#1a1a1a;stroke-width:5.9291687;stroke-linecap:round;stroke-linejoin:miter;stroke-miterlimit:4;stroke-opacity:1;stroke-dasharray:none;stroke-dashoffset:0"
       d="m 196.99406,493.5595 0,-13.52662 15.21745,0 15.21745,0 0,13.52662 0,13.52662 -15.21745,0 -15.21745,0 0,-13.52662 z"
       id="path16433"
       inkscape:connector-curvature="0" />
    <path
       style="fill:#1a1a1a;fill-opacity:1;fill-rule:nonzero;stroke:#1a1a1a;stroke-width:5.9291687;stroke-linecap:round;stroke-linejoin:miter;stroke-miterlimit:4;stroke-opacity:1;stroke-dasharray:none;stroke-dashoffset:0"
       d="m 230.81062,493.5595 0,-13.52662 15.21744,0 15.21745,0 0,13.52662 0,13.52662 -15.21745,0 -15.21744,0 0,-13.52662 z"
       id="path16435"
       inkscape:connector-curvature="0" />
    <path
       style="fill:#1a1a1a;fill-opacity:1;fill-rule:nonzero;stroke:#1a1a1a;stroke-width:5.9291687;stroke-linecap:round;stroke-linejoin:miter;stroke-miterlimit:4;stroke-opacity:1;stroke-dasharray:none;stroke-dashoffset:0"
       d="m 264.44372,308.13208 0,-14.09023 15.21745,0 15.21744,0 0,14.09023 0,14.09023 -15.21744,0 -15.21745,0 0,-14.09023 z"
       id="path16437"
       inkscape:connector-curvature="0" />
    <path
       style="fill:#1a1a1a;fill-opacity:1;fill-rule:nonzero;stroke:#1a1a1a;stroke-width:5.9291687;stroke-linecap:round;stroke-linejoin:miter;stroke-miterlimit:4;stroke-opacity:1;stroke-dasharray:none;stroke-dashoffset:0"
       d="m 130.41719,370.12909 0,-14.09023 15.21745,0 15.21745,0 0,14.09023 0,14.09023 -15.21745,0 -15.21745,0 0,-14.09023 z"
       id="path16439"
       inkscape:connector-curvature="0" />
    <path
       style="fill:#1a1a1a;fill-opacity:1;fill-rule:nonzero;stroke:#1a1a1a;stroke-width:5.9291687;stroke-linecap:round;stroke-linejoin:miter;stroke-miterlimit:4;stroke-opacity:1;stroke-dasharray:none;stroke-dashoffset:0"
       d="m 163.17751,354.34803 0,-122.30319 49.034,0 49.034,0 0,122.30319 0,122.3032 -49.034,0 -49.034,0 0,-122.3032 z"
       id="path16513"
       inkscape:connector-curvature="0" />
  </g>
  <g
     inkscape:groupmode="layer"
     id="layer2"
     inkscape:label="Layer"
     transform="translate(-127.45261,-135.52114)" />
</svg>
