<?xml version="1.0" encoding="UTF-8" standalone="no"?>
<!-- Created with Inkscape (http://www.inkscape.org/) -->

<svg
   xmlns:dc="http://purl.org/dc/elements/1.1/"
   xmlns:cc="http://creativecommons.org/ns#"
   xmlns:rdf="http://www.w3.org/1999/02/22-rdf-syntax-ns#"
   xmlns:svg="http://www.w3.org/2000/svg"
   xmlns="http://www.w3.org/2000/svg"
   xmlns:sodipodi="http://sodipodi.sourceforge.net/DTD/sodipodi-0.dtd"
   xmlns:inkscape="http://www.inkscape.org/namespaces/inkscape"
   width="335.62302"
   height="630.87061"
   id="svg2"
   version="1.1"
   inkscape:version="0.48.4 r9939"
   sodipodi:docname="aggus side1.zip">
  <defs
     id="defs4" />
  <sodipodi:namedview
     id="base"
     pagecolor="#ffffff"
     bordercolor="#666666"
     borderopacity="1.0"
     inkscape:pageopacity="0.0"
     inkscape:pageshadow="2"
     inkscape:zoom="0.46696116"
     inkscape:cx="253.75826"
     inkscape:cy="214.71109"
     inkscape:document-units="px"
     inkscape:current-layer="layer1"
     showgrid="false"
     inkscape:window-width="1366"
     inkscape:window-height="706"
     inkscape:window-x="-8"
     inkscape:window-y="-8"
     inkscape:window-maximized="1"
     fit-margin-left="0"
     fit-margin-top="0"
     fit-margin-right="0"
     fit-margin-bottom="0" />
  <metadata
     id="metadata7">
    <rdf:RDF>
      <cc:Work
         rdf:about="">
        <dc:format>image/svg+xml</dc:format>
        <dc:type
           rdf:resource="http://purl.org/dc/dcmitype/StillImage" />
        <dc:title></dc:title>
      </cc:Work>
    </rdf:RDF>
  </metadata>
  <g
     inkscape:label="Layer 1"
     inkscape:groupmode="layer"
     id="layer1"
     transform="translate(-58.147583,-20.204648)">
    <path
       style="fill:#ffccaa;fill-opacity:1;fill-rule:nonzero;stroke:#ffccaa;stroke-width:2.67688227;stroke-linecap:butt;stroke-linejoin:bevel;stroke-miterlimit:4;stroke-opacity:1;stroke-dasharray:none;stroke-dashoffset:0"
       d="m 255.86779,323.23914 0,-11.51059 10.43984,0 10.43984,0 0,-12.31366 0,-12.31366 19.80893,0 19.80893,0 0,-9.63677 0,-9.63678 13.11672,0 13.11673,0 0,-27.03651 0,-27.03651 6.42451,0 6.42452,0 0,-12.04597 0,-12.04597 -10.43984,0 -10.43984,0 0,-13.11672 0,-13.11673 -10.43984,0 -10.43985,0 0,-23.02118 0,-23.02119 -28.64263,0 -28.64264,0 0,18.47049 0,18.47048 -16.32899,0 -16.32898,0 0,18.73818 0,18.73818 -8.74656,0 -8.74657,0 -0.35483,22.5736 c -0.19516,12.41548 -0.35484,27.23203 -0.35484,32.92565 l 0,10.35205 -14.72285,0 -14.72285,0 0,13.38441 0,13.38441 14.72285,0 14.72285,0 0,13.38441 0,13.38441 13.11673,0 13.11672,0 0,11.77828 0,11.77828 12.04597,0 12.04597,0 0,-11.51059 z m 9.63678,-157.13298 0,-25.1627 13.11672,0 13.11672,0 0,25.1627 0,25.16269 -13.11672,0 -13.11672,0 0,-25.16269 z"
       id="path7776"
       inkscape:connector-curvature="0" />
    <path
       style="fill:#000055;fill-opacity:1;fill-rule:nonzero;stroke:#000055;stroke-width:2.64997816;stroke-linecap:butt;stroke-linejoin:miter;stroke-miterlimit:4;stroke-opacity:1;stroke-dasharray:none;stroke-dashoffset:0"
       d="m 123.81572,518.05353 0,-34.13877 66.62802,0 66.62803,0 0,-11.73562 0,-11.73562 27.98175,0 27.98176,0 -0.45035,45.23891 c -0.24769,24.88141 -0.60217,45.40927 -0.78774,45.61749 -0.18557,0.20821 -42.55731,0.49417 -94.15944,0.63547 l -93.82203,0.25691 0,-34.13877 z"
       id="path9335"
       inkscape:connector-curvature="0" />
    <path
       style="fill:#ffcc00;fill-opacity:1;fill-rule:nonzero;stroke:#ffcc00;stroke-width:3.74763513;stroke-linecap:butt;stroke-linejoin:miter;stroke-miterlimit:4;stroke-opacity:1;stroke-dasharray:none;stroke-dashoffset:0"
       d="m 189.85019,458.14271 -67.72512,-0.28379 0,-23.54859 0,-23.54857 -13.91979,0 -13.919779,0 0,-37.97974 0,-37.97973 13.652099,-0.29968 13.6521,-0.29968 0.30646,-10.43984 0.30646,-10.43984 41.18521,0 41.18521,0 0,47.6485 0,47.6485 14.45517,0 14.45516,0 0,13.38441 0,13.38441 12.84904,0 12.84903,0 0,11.77829 c 0,6.47805 -0.36138,11.66148 -0.80306,11.51872 -0.44169,-0.14276 -31.27937,-0.38727 -68.52819,-0.54337 l 0,0 z"
       id="path4246"
       inkscape:connector-curvature="0" />
    <path
       style="fill:#502d16;fill-opacity:1;fill-rule:nonzero;stroke:#502d16;stroke-width:3.74763513;stroke-linecap:butt;stroke-linejoin:miter;stroke-miterlimit:4;stroke-opacity:1;stroke-dasharray:none;stroke-dashoffset:0"
       d="m 139.25712,270.49313 0,-13.91979 -16.59667,0 -16.59667,0 0,-13.91978 0,-13.91979 -16.596669,0 -16.59667,0 0,-13.91979 0,-13.91979 -6.42452,0 -6.42452,0 0,-44.97162 0,-44.97162 7.49527,0 7.49527,0 0,-13.384409 0,-13.38441 15.52592,0 15.525919,0 0,-14.990539 0,-14.99054 17.13204,0 17.13205,0 0,-16.061293 0,-16.061293 76.55883,0 76.55883,0 0,14.99054 0,14.99054 17.10183,0 17.10183,0 0.29791,14.722852 0.2979,14.722853 10.97522,0.30515 10.97521,0.30514 0,16.55921 0,16.559209 -48.18388,0 -48.18387,0 -0.37857,36.01127 -12.11419,0.0473 -10.17216,0 -10.17215,0 0.37857,27.96486 0,10.17216 -5.53746,0 -5.53749,0.37857 -6.43566,0.10109 -0.37857,65.5934 -8.54373,0 -21.41506,0 0,14.45516 0,14.45517 -17.13205,0 -17.13204,0 z"
       id="path3474"
       inkscape:connector-curvature="0"
       sodipodi:nodetypes="ccccccccccccccccccccccccccccccccccccccccccccccccccccccccc" />
    <path
       style="fill:#000000;fill-opacity:1;fill-rule:nonzero;stroke:#000000;stroke-width:3.42640924;stroke-linecap:butt;stroke-linejoin:miter;stroke-miterlimit:4;stroke-opacity:1;stroke-dasharray:none;stroke-dashoffset:0"
       d="m 95.437881,446.9489 0.021,-13.38441 -15.44375,-0.62754 -15.44375,-0.62753 0.98859,-45.41691 c 0.53724,-24.68133 0.10522,-44.8806 0.98859,-44.87946 0.88338,10e-4 -0.53537,-3.04958 -0.53537,-4.81633 0,-2.49842 3.39072,-1.07075 13.3844,-1.07075 l 12.84903,0 0,38.54711 0,38.5471 13.919789,0 13.91979,0 0,23.55657 0,23.55656 -12.33462,0 -12.334619,0 0.021,-13.38441 -3e-5,0 z"
       id="path4460"
       inkscape:connector-curvature="0"
       sodipodi:nodetypes="ccccscsscccccccccccc" />
    <path
       style="fill:#000000;fill-opacity:1;fill-rule:nonzero;stroke:#000000;stroke-width:3.42640924;stroke-linecap:butt;stroke-linejoin:miter;stroke-miterlimit:4;stroke-opacity:1;stroke-dasharray:none;stroke-dashoffset:0"
       d="m 94.388091,518.15397 0,-34.2641 13.919789,0 13.91979,0 0,34.2641 0,34.26409 -13.91979,0 -13.919789,0 0,-34.26409 z"
       id="path4458"
       inkscape:connector-curvature="0" />
    <path
       style="fill:#ffccaa;fill-opacity:1;fill-rule:nonzero;stroke:#ffccaa;stroke-width:2.42283726;stroke-linecap:butt;stroke-linejoin:miter;stroke-miterlimit:4;stroke-opacity:1;stroke-dasharray:none;stroke-dashoffset:0"
       d="m 258.57044,336.38515 c -2.21817,7.34068 4.92311,24.0408 -4.54282,24.13373 -6.72017,2.38303 -23.39491,-5.22407 -22.7141,4.63746 0.0628,13.64706 -0.12579,27.39825 0.0947,40.98002 9.43266,0 18.86532,0 28.29798,0 2.30674,8.89669 1.75975,18.22696 1.98748,27.25692 23.74101,-0.71128 47.70209,1.44066 71.31281,-1.08838 8.5975,-3.05877 2.78824,-15.25931 4.4955,-21.86232 2.96721,-6.26039 17.36897,-1.08624 24.89086,-2.79195 2.04574,-7.21226 0.2527,-18.02816 0.85178,-26.59442 -2.26152,-6.60652 5.61727,-23.36953 -6.15173,-20.53733 -7.38647,-1.66763 -23.27192,5.16373 -19.59091,-7.57137 0.24717,-9.30486 2.77699,-21.04066 -10.69456,-16.657 -22.73247,0.0629 -45.56985,-0.12591 -68.23694,0.0946 z"
       id="path3162"
       inkscape:connector-curvature="0" />
    <path
       style="fill:none;stroke:#000000;stroke-width:1px;stroke-linecap:butt;stroke-linejoin:miter;stroke-opacity:1"
       d="m 93.519051,334.24944 0,-48.34068 111.017769,0.37857 0,25.69806 26.35779,0 0.18928,23.77275 26.26035,0 -0.15681,-23.23736 81.66393,0.37857 -0.22175,22.92375 26.20097,0.18928 -0.37858,23.62152 28.50486,0.56785 -0.18928,73.4709 -29.98108,0 0,25.69807 -23.02119,0 0,118.3182 -25.69807,0 0,22.48581 26.76882,0 0,49.25463 -220.03972,0 0,-95.83238 -26.768819,0 0,-70.66969 27.030939,-0.18928 c -0.0892,-7.76876 0.20009,-17.71507 0.11089,-22.00981 l -26.795719,0.18928 0.18928,-27.24483 -30.48955,0.37857 0.37857,-99.64497 z"
       id="path4641"
       inkscape:connector-curvature="0"
       sodipodi:nodetypes="ccccccccccccccccccccccccccccccccc" />
    <path
       style="fill:none;stroke:#000000;stroke-width:1px;stroke-linecap:butt;stroke-linejoin:miter;stroke-opacity:1"
       d="m 93.492141,338.37565 0,73.88195 27.715249,-0.18928 -0.75714,47.26993 3.74763,0 c 45.1185,0.0653 90.05776,0.0325 135.85571,0.0325 l 0,-25.22206 -26.29282,0 0,-26.70945 -28.91033,0 0,-95.25896 -84.0541,0 0,21.91238 -27.304199,0 z"
       id="path4643"
       inkscape:connector-curvature="0"
       sodipodi:nodetypes="ccccccccccccccc" />
    <path
       style="fill:none;stroke:#000000;stroke-width:1px;stroke-linecap:butt;stroke-linejoin:miter;stroke-opacity:1"
       d="m 260.1835,434.05679 -0.18928,-26.61758 -28.91033,0 0,-47.6485 26.23345,0 0,-24.09195 80.84184,0 0,24.09195 26.23344,0 0,48.18388 -26.76882,0 0,26.23344 -77.09421,0"
       id="path4648"
       inkscape:connector-curvature="0"
       sodipodi:nodetypes="ccccccccccccc" />
    <path
       style="fill:none;stroke:#000000;stroke-width:1px;stroke-linecap:butt;stroke-linejoin:miter;stroke-opacity:1"
       d="m 147.56516,577.15354 0,47.64851 168.64358,0 0,-24.09194 -30.51645,0 0,-23.55657 z"
       id="path3138"
       inkscape:connector-curvature="0" />
    <path
       style="fill:none;stroke:#000000;stroke-width:1px;stroke-linecap:butt;stroke-linejoin:miter;stroke-opacity:1"
       d="m 122.93785,485.60417 0,66.92206 190.59401,0 0,-93.15551 -50.86076,0 -6.42452,0 0,23.55657 -134.91486,0 1.70355,0.0269 z"
       id="path3140"
       inkscape:connector-curvature="0"
       sodipodi:nodetypes="cccccccccc" />
    <path
       style="fill:#000000;fill-opacity:1;fill-rule:nonzero;stroke:#000000;stroke-width:3.42640924;stroke-linecap:butt;stroke-linejoin:miter;stroke-miterlimit:4;stroke-opacity:1;stroke-dasharray:none;stroke-dashoffset:0"
       d="m 94.388091,309.35715 0,-22.48581 54.608399,0 54.60839,0 0,11.77828 0,11.77829 -41.75936,0 -41.75936,0 0,10.70752 0,10.70753 -12.84903,0 -12.849039,0 0,-22.48581 z"
       id="path4462"
       inkscape:connector-curvature="0" />
    <path
       style="fill:#000000;fill-opacity:1;fill-rule:nonzero;stroke:#000000;stroke-width:3.42640924;stroke-linecap:butt;stroke-linejoin:miter;stroke-miterlimit:4;stroke-opacity:1;stroke-dasharray:none;stroke-dashoffset:0"
       d="m 231.97984,649.32162 -109.75217,-0.57469 0,-47.07165 0,-47.07162 95.83238,-0.55743 95.83238,-0.55742 0.57635,-47.6485 0.57635,-47.64851 -26.8098,0 -26.80979,0 0,-11.77828 0,-11.77828 38.5471,0 38.54711,0 0,-12.84903 0,-12.84904 13.91979,0 13.91978,0 0,-23.55656 0,-23.55657 12.84904,0 12.84903,0 0,35.33485 0,35.33484 -14.99054,0 -14.99054,0 0,12.84904 0,12.84903 -11.77828,0 -11.77828,0 0,58.89141 0,58.89141 -12.84904,0 -12.84903,0 0,11.77828 0,11.77829 -12.84904,0 -12.84903,0 0,-11.77829 0,-11.77828 -70.66969,0 -70.66969,0 0,24.62732 0,24.62731 85.66023,0 85.66023,0 0,-11.77828 0,-11.77828 11.64864,0 11.64863,0 -0.94111,25.16689 c -0.50643,13.54283 -0.9411,21.72078 -0.9411,21.43495 0,-0.28585 -46.17622,1.36318 -106.53991,1.04709 z"
       id="path4471"
       inkscape:connector-curvature="0"
       sodipodi:nodetypes="ccccccccccccccccccccccccccccccccccccccccccccccccccsscc" />
    <path
       style="fill:#000000;fill-opacity:1;fill-rule:nonzero;stroke:#000000;stroke-width:3.42640924;stroke-linecap:butt;stroke-linejoin:miter;stroke-miterlimit:4;stroke-opacity:1;stroke-dasharray:none;stroke-dashoffset:0"
       d="m 235.72747,420.71545 0,-11.77828 11.77828,0 11.77829,0 0,11.77828 0,11.77828 -11.77829,0 -11.77828,0 0,-11.77828 z"
       id="path4473"
       inkscape:connector-curvature="0" />
    <path
       style="fill:#000000;fill-opacity:1;fill-rule:nonzero;stroke:#000000;stroke-width:3.42640924;stroke-linecap:butt;stroke-linejoin:miter;stroke-miterlimit:4;stroke-opacity:1;stroke-dasharray:none;stroke-dashoffset:0"
       d="m 122.22767,471.04084 0,-10.70753 66.38667,0 66.38668,0 0,10.70753 0,10.70753 -66.38668,0 -66.38667,0 0,-10.70753 z"
       id="path4475"
       inkscape:connector-curvature="0" />
    <path
       style="fill:#000000;fill-opacity:1;fill-rule:nonzero;stroke:#000000;stroke-width:0.60570931;stroke-linecap:butt;stroke-linejoin:miter;stroke-miterlimit:4;stroke-opacity:1;stroke-dasharray:none;stroke-dashoffset:0"
       d="m 206.1478,397.79382 c -0.12959,-5.04916 -0.34528,-26.25845 -0.4793,-47.13176 l -0.24369,-37.95147 12.29972,0 12.29971,0 0.24133,2.55534 c 0.13274,1.40543 0.24255,6.68646 0.24403,11.73561 l 0.003,9.18029 13.06061,0 13.06061,0 0,11.54633 0,11.54633 -13.06061,0 -13.06061,0 0,23.84981 0,23.8498 -12.06443,0 -12.82158,-0.37857 -0.23562,-9.18028 0.75714,0.37857 z"
       id="path4483"
       inkscape:connector-curvature="0"
       sodipodi:nodetypes="cscccsccccccccccccccc" />
    <path
       style="fill:#000000;fill-opacity:1;fill-rule:nonzero;stroke:#000000;stroke-width:0.60570931;stroke-linecap:butt;stroke-linejoin:miter;stroke-miterlimit:4;stroke-opacity:1;stroke-dasharray:none;stroke-dashoffset:0"
       d="m 257.76921,324.03844 0,-11.00769 40.22288,0.26791 c 22.12259,0.14735 40.24011,0.28826 40.26116,0.31313 0.0211,0.0249 -0.0436,4.85777 -0.14371,10.73978 l -0.18198,10.69455 -40.07917,0 -40.07918,0 0,-11.00768 z"
       id="path4485"
       inkscape:connector-curvature="0" />
    <path
       style="fill:#000000;fill-opacity:1;fill-rule:nonzero;stroke:#000000;stroke-width:0.60570931;stroke-linecap:butt;stroke-linejoin:miter;stroke-miterlimit:4;stroke-opacity:1;stroke-dasharray:none;stroke-dashoffset:0"
       d="m 338.78283,347.91744 0,-11.35705 12.68204,0 12.68204,0 0,6.7548 c 0,3.71514 -0.11136,8.82581 -0.24746,11.35705 l -0.24747,4.60225 -12.43457,0 -12.43458,0 0,-11.35705 z"
       id="path4487"
       inkscape:connector-curvature="0" />
    <path
       style="fill:#1a1a1a;fill-opacity:1;fill-rule:nonzero;stroke:#1a1a1a;stroke-width:2.64997816;stroke-linecap:butt;stroke-linejoin:miter;stroke-miterlimit:4;stroke-opacity:1;stroke-dasharray:none;stroke-dashoffset:0"
       d="m 148.04409,600.5138 0,-22.7141 68.52087,0 68.52086,0 0,11.73561 0,11.73562 15.14273,0 15.14274,0 0,10.97848 0,10.97848 -83.6636,0 -83.6636,0 0,-22.71409 z"
       id="path9845"
       inkscape:connector-curvature="0" />
    <path
       style="fill:#000000;fill-opacity:1;fill-rule:nonzero;stroke:#000000;stroke-width:0.11278048;stroke-linecap:butt;stroke-linejoin:miter;stroke-miterlimit:4;stroke-opacity:1;stroke-dasharray:none;stroke-dashoffset:0"
       d="m 265.732,153.26011 0,-11.84194 12.96974,0 12.96978,0 0,11.84194 0,11.84197 -12.96978,0 -12.96974,0 0,-11.84197 z"
       id="path4294"
       inkscape:connector-curvature="0" />
    <path
       style="fill:#000000;fill-opacity:1;fill-rule:nonzero;stroke:#000000;stroke-width:0.12424082;stroke-linecap:butt;stroke-linejoin:miter;stroke-miterlimit:4;stroke-opacity:1;stroke-dasharray:none;stroke-dashoffset:0"
       d="m 265.73773,177.10875 0,-13.69262 12.96401,0 12.96404,0 0,13.69262 0,13.69263 -12.96404,0 -12.96401,0 0,-13.69263 z"
       id="path4296"
       inkscape:connector-curvature="0" />
  </g>
  <g
     inkscape:groupmode="layer"
     id="layer2"
     inkscape:label="Layer"
     transform="translate(-58.147583,-20.204648)" />
</svg>
