<?xml version="1.0" encoding="UTF-8" standalone="no"?>
<!-- Created with Inkscape (http://www.inkscape.org/) -->

<svg
   xmlns:dc="http://purl.org/dc/elements/1.1/"
   xmlns:cc="http://creativecommons.org/ns#"
   xmlns:rdf="http://www.w3.org/1999/02/22-rdf-syntax-ns#"
   xmlns:svg="http://www.w3.org/2000/svg"
   xmlns="http://www.w3.org/2000/svg"
   xmlns:sodipodi="http://sodipodi.sourceforge.net/DTD/sodipodi-0.dtd"
   xmlns:inkscape="http://www.inkscape.org/namespaces/inkscape"
   width="430.31534"
   height="585.98187"
   id="svg2"
   version="1.1"
   inkscape:version="0.48.4 r9939"
   sodipodi:docname="danbarr-climbing2.zip">
  <defs
     id="defs4" />
  <sodipodi:namedview
     id="base"
     pagecolor="#ffffff"
     bordercolor="#666666"
     borderopacity="1.0"
     inkscape:pageopacity="0.0"
     inkscape:pageshadow="2"
     inkscape:zoom="0.59587906"
     inkscape:cx="347.73442"
     inkscape:cy="337.37866"
     inkscape:document-units="px"
     inkscape:current-layer="layer1"
     showgrid="false"
     inkscape:window-width="1366"
     inkscape:window-height="706"
     inkscape:window-x="-8"
     inkscape:window-y="-8"
     inkscape:window-maximized="1"
     fit-margin-left="10"
     fit-margin-top="10"
     fit-margin-right="10"
     fit-margin-bottom="10"
     showguides="true"
     inkscape:guide-bbox="true" />
  <metadata
     id="metadata7">
    <rdf:RDF>
      <cc:Work
         rdf:about="">
        <dc:format>image/svg+xml</dc:format>
        <dc:type
           rdf:resource="http://purl.org/dc/dcmitype/StillImage" />
        <dc:title></dc:title>
      </cc:Work>
    </rdf:RDF>
  </metadata>
  <g
     inkscape:label="Layer 1"
     inkscape:groupmode="layer"
     id="layer1"
     transform="translate(-11.160292,-45.990039)">
    <path
       style="fill:#214478;fill-opacity:1;fill-rule:nonzero;stroke:#214478;stroke-width:0.94932925999999995;stroke-linecap:butt;stroke-linejoin:miter;stroke-miterlimit:4;stroke-opacity:1;stroke-dasharray:none;stroke-dashoffset:0"
       d="m 212.43265,485.37185 -0.15564,-21.8049 -74.31468,-0.15064 -74.314678,-0.15063 0,-33.12921 0,-33.12922 14.684937,-0.39039 c 8.076715,-0.21471 64.546971,-0.39096 125.489461,-0.39167 l 110.80452,-10e-4 0,44.49981 0,44.49981 -13.05328,0 -13.05328,0 0,10.97662 0,10.97662 -37.96586,0 -37.96585,0 -0.15565,-21.80491 z"
       id="path5885"
       inkscape:connector-curvature="0"
       transform="translate(11.160292,45.990039)" />
    <path
       style="fill:#ffccaa;fill-opacity:1;fill-rule:nonzero;stroke:#ffccaa;stroke-width:0.33563858000000002;stroke-linecap:butt;stroke-linejoin:miter;stroke-miterlimit:4;stroke-opacity:1;stroke-dasharray:none;stroke-dashoffset:0"
       d="m 37.079987,247.97083 0,-11.01314 12.376672,0 12.376672,0 0,-11.3278 0,-11.3278 13.635317,0 13.635317,0 0,22.34094 0,22.34094 -26.011989,0 -26.011989,0 0,-11.01314 z"
       id="path4859"
       inkscape:connector-curvature="0"
       transform="translate(11.160292,45.990039)" />
    <path
       style="fill:#ff6600;fill-opacity:1;fill-rule:nonzero;stroke:#ff6600;stroke-width:0.94932925999999995;stroke-linecap:butt;stroke-linejoin:miter;stroke-miterlimit:4;stroke-opacity:1;stroke-dasharray:none;stroke-dashoffset:0"
       d="m 162.45855,295.01385 -0.16171,-10.82828 -24.17823,-0.15499 -24.17823,-0.15499 0,-12.45329 0,-12.45329 -12.16328,0 -12.163284,0 0,-22.54657 0,-22.54657 -13.943273,0 -13.943273,0 0,-11.86661 0,-11.86662 -10.679954,0 -10.679954,0 0,-43.31315 0,-43.31314 11.56995,0 11.56995,0 0,-12.163282 0,-12.163281 10.369598,0 10.369597,0 0.162024,-10.531621 0.162023,-10.531621 12.904945,-0.159904 12.904941,-0.159905 0,-12.151709 0,-12.151709 12.16328,0 12.16328,0 0,-11.273285 0,-11.273285 76.53967,0 76.53967,0 0,13.053277 0,13.053277 13.05328,0 13.05328,0 0,10.383289 0,10.383288 13.05327,0 13.05328,0 0,11.866616 0,11.866615 14.23994,0 14.23994,0 0,11.273285 0,11.273285 12.75661,0 12.75661,0 0,43.01648 0,43.01648 -12.16328,0 -12.16328,0 0,24.32656 0,24.32656 -13.05328,0 -13.05327,0 0,10.97662 0,10.97662 -13.94328,0 -13.94327,0 0,10.38329 0,10.38329 -13.94327,0 -13.94328,0 0,12.16328 0,12.16328 -62.58301,0 -62.58301,0 -0.16172,-10.82829 z"
       id="path3689"
       inkscape:connector-curvature="0"
       transform="translate(11.160292,45.990039)" />
    <path
       style="fill:none;stroke:#000000;stroke-width:1px;stroke-linecap:butt;stroke-linejoin:miter;stroke-opacity:1"
       d="m 61.254039,213.84261 -25.592441,0 0,22.23605 -26.0119891,0 0,93.55926 26.4315371,0 0,179.56663 24.753345,0 0,23.07515 123.766719,0 0,21.81651 27.27064,0 0,22.23605 130.05994,0 0,-22.6556 25.59244,0 0,-46.1503 -25.59244,0 0,-157.33058 26.43154,0 0,-20.13832 24.75334,0 0,-46.56985 28.10973,0 0,-92.72015 -27.27063,0 0,89.99309 -24.3338,0 0,-21.60673 -25.17289,0 0,25.17289 21.81651,0 0,43.21346 -24.75335,0 0,22.23606 -26.85108,0 0,-22.23606 -26.01199,0 0,-22.6556"
       id="path3651"
       inkscape:connector-curvature="0"
       transform="translate(11.160292,45.990039)"
       sodipodi:nodetypes="ccccccccccccccccccccccccccccccccccccccc" />
    <path
       style="fill:none;stroke:#000000;stroke-width:1px;stroke-linecap:butt;stroke-linejoin:miter;stroke-opacity:1"
       d="m 262.63718,306.77254 0,44.26233 26.43154,0 0,20.55787 -150.61781,0 0,-22.23606 22.6556,0 0,-43.21346"
       id="path3653"
       inkscape:connector-curvature="0"
       transform="translate(11.160292,45.990039)"
       sodipodi:nodetypes="cccccccc" />
    <path
       style="fill:none;stroke:#000000;stroke-width:1px;stroke-linecap:butt;stroke-linejoin:miter;stroke-opacity:1"
       d="m 61.254039,214.26216 0,22.23605 -24.753345,0 0,23.07515 54.960816,0"
       id="path3655"
       inkscape:connector-curvature="0"
       transform="translate(11.160292,45.990039)" />
    <path
       style="fill:none;stroke:#000000;stroke-width:1px;stroke-linecap:butt;stroke-linejoin:miter;stroke-opacity:1"
       d="m 113.27802,284.74626 -77.196874,0 0,42.37437 26.431537,0 0,22.6556 23.075152,0 0,22.6556 26.851085,0 0,-23.07515 24.3338,0 0,-64.61042"
       id="path3657"
       inkscape:connector-curvature="0"
       transform="translate(11.160292,45.990039)"
       sodipodi:nodetypes="ccccccccccc" />
    <path
       style="fill:none;stroke:#000000;stroke-width:1px;stroke-linecap:butt;stroke-linejoin:miter;stroke-opacity:1"
       d="m 62.932232,395.92653 0,67.96681 148.520068,0 0,44.47211 78.03597,0 0,-22.23605 26.01198,0 0,-91.04196 z"
       id="path3659"
       inkscape:connector-curvature="0"
       transform="translate(11.160292,45.990039)" />
    <path
       style="fill:none;stroke:#000000;stroke-width:1px;stroke-linecap:butt;stroke-linejoin:miter;stroke-opacity:1"
       d="m 63.35178,507.52636 120.82988,0 0,-20.13832 -121.249429,0.41955 z"
       id="path3661"
       inkscape:connector-curvature="0"
       transform="translate(11.160292,45.990039)"
       sodipodi:nodetypes="ccccc" />
    <path
       style="fill:none;stroke:#000000;stroke-width:1px;stroke-linecap:butt;stroke-linejoin:miter;stroke-opacity:1"
       d="m 314.66116,509.6241 0,23.4947 -102.36977,0 0,19.29922 129.22085,0 0,-42.79392 z"
       id="path3663"
       inkscape:connector-curvature="0"
       transform="translate(11.160292,45.990039)" />
    <path
       style="fill:#000000;fill-opacity:1;fill-rule:nonzero;stroke:#000000;stroke-width:2.68510866;stroke-linecap:butt;stroke-linejoin:miter;stroke-miterlimit:4;stroke-opacity:1;stroke-dasharray:none;stroke-dashoffset:0"
       d="m 23.619966,329.49731 -13.8450911,-0.48742 0,-46.08243 0,-46.08244 12.5864461,0 12.586447,0 0,11.74735 0,11.74735 38.598435,0 38.598437,0 0,11.74735 0,11.74735 -38.598437,0 -38.598435,0 0,21.67666 c 0,15.82296 0.566487,21.87897 2.097741,22.42585 4.302451,1.53659 0.02388,2.03387 -13.425543,1.56038 l 0,0 z"
       id="path3667"
       inkscape:connector-curvature="0"
       transform="translate(11.160292,45.990039)" />
    <path
       style="fill:#000000;fill-opacity:1;fill-rule:nonzero;stroke:#000000;stroke-width:2.68510866;stroke-linecap:butt;stroke-linejoin:miter;stroke-miterlimit:4;stroke-opacity:1;stroke-dasharray:none;stroke-dashoffset:0"
       d="m 36.62596,225.09767 0,-10.06915 11.74735,0 11.74735,0 0,10.06915 0,10.06916 -11.74735,0 -11.74735,0 0,-10.06916 z"
       id="path3669"
       inkscape:connector-curvature="0"
       transform="translate(11.160292,45.990039)" />
    <path
       style="fill:#000000;fill-opacity:1;fill-rule:nonzero;stroke:#000000;stroke-width:2.68510866;stroke-linecap:butt;stroke-linejoin:miter;stroke-miterlimit:4;stroke-opacity:1;stroke-dasharray:none;stroke-dashoffset:0"
       d="m 137.31375,316.97873 0.004,-31.46612 11.74735,0 11.74735,0 0,30.90886 0,30.90886 -11.75113,0.55726 -11.75113,0.55726 0.004,-31.46612 z"
       id="path3671"
       inkscape:connector-curvature="0"
       transform="translate(11.160292,45.990039)" />
    <path
       style="fill:#000000;fill-opacity:1;fill-rule:nonzero;stroke:#000000;stroke-width:2.68510866;stroke-linecap:butt;stroke-linejoin:miter;stroke-miterlimit:4;stroke-opacity:1;stroke-dasharray:none;stroke-dashoffset:0"
       d="m 185.64565,541.85657 -0.49962,-10.4887 -61.67359,-0.44023 -61.673587,-0.44022 0,-10.88758 0,-10.88758 -12.586446,0 -12.586447,0 0,-88.94422 c 0,-77.94273 -1.36683,-91.88106 0.839097,-91.88106 1.384509,0 4.405256,1.97188 4.405256,1.04888 0,-0.93233 4.265407,-1.46842 9.859383,-1.46842 l 10.069157,0 0,11.74735 0,11.74735 11.74735,0 11.74735,0 0,10.90825 0,10.90825 14.264639,0 14.264638,0 0,-10.90825 0,-10.90825 11.74735,0 11.74735,0 0,10.90825 0,10.90825 76.43445,0 76.43445,0 -0.49622,-11.3278 -0.49623,-11.3278 -13.00599,-0.49014 -13.006,-0.49014 0,-20.90682 0,-20.90682 12.58645,0 12.58645,0 0,10.90826 0,10.90825 12.58644,0 12.58645,0 0,10.90825 0,10.90826 13.42554,0 13.42554,0 0,78.135 c 0,42.97427 0.62933,77.74607 1.39849,77.2707 0.76919,-0.47538 1.40032,0.0465 1.40254,1.1596 0.003,1.46792 -4.06949,1.87594 -14.82403,1.48527 l -14.82808,-0.53865 0,11.86645 0,11.86645 -51.18488,0 -51.18488,0 0,10.06916 0,10.06916 -12.50637,0 -12.50637,0 -0.49963,-10.48871 z m -1.33872,-44.05256 0,-10.90825 -61.25404,0 -61.254037,0 0,9.78945 c 0,5.38421 0.503458,10.29293 1.118796,10.90825 0.615336,0.61534 28.179653,1.1188 61.254041,1.1188 l 60.13524,0 z m 105.72615,0 0,-10.90825 13.42554,0 13.42555,0 0,-46.15031 0,-46.1503 -127.54266,0 -127.542657,0 0,35.24205 0,35.24205 74.679577,0 74.67959,0 0,21.81651 0,21.8165 39.43753,0 39.43753,0 z"
       id="path3673"
       inkscape:connector-curvature="0"
       transform="translate(11.160292,45.990039)"
       sodipodi:nodetypes="ccccccccsssscccccccccccccccccccccccccccccccccsscscccccccccccccccscsccccccccccccccccccc" />
    <path
       style="fill:#000000;fill-opacity:1;fill-rule:nonzero;stroke:#000000;stroke-width:2.68510866;stroke-linecap:butt;stroke-linejoin:miter;stroke-miterlimit:4;stroke-opacity:1;stroke-dasharray:none;stroke-dashoffset:0"
       d="m 366.89886,305.23138 c -0.2794,-13.15284 -0.50801,-23.92706 -0.50801,-23.94272 0,-0.0157 5.8527,0.2328 13.006,0.55213 l 13.00599,0.58061 0,23.36211 0,23.36212 -12.49798,0 -12.49799,0 -0.50801,-23.91425 z"
       id="path3675"
       inkscape:connector-curvature="0"
       transform="translate(11.160292,45.990039)" />
    <path
       style="fill:#000000;fill-opacity:1;fill-rule:nonzero;stroke:#000000;stroke-width:2.68510866;stroke-linecap:butt;stroke-linejoin:miter;stroke-miterlimit:4;stroke-opacity:1;stroke-dasharray:none;stroke-dashoffset:0"
       d="m 394.08104,236.84502 0,-45.3112 13.42554,0 13.42554,0 0,45.3112 0,45.31121 -13.42554,0 -13.42554,0 0,-45.31121 z"
       id="path3677"
       inkscape:connector-curvature="0"
       transform="translate(11.160292,45.990039)" />
    <path
       style="fill:#000000;fill-opacity:1;fill-rule:nonzero;stroke:#000000;stroke-width:2.68510866;stroke-linecap:butt;stroke-linejoin:miter;stroke-miterlimit:4;stroke-opacity:1;stroke-dasharray:none;stroke-dashoffset:0"
       d="m 345.41344,272.08707 0,-11.74735 11.74735,0 11.74735,0 0,8.39097 c 0,5.40521 -0.35966,12.19736 -0.83909,13.84509 -0.53074,1.82408 -7.16334,1.25864 -14.26464,1.25864 l -8.39097,0 z"
       id="path3679"
       inkscape:connector-curvature="0"
       transform="translate(11.160292,45.990039)"
       sodipodi:nodetypes="ccccssscc" />
    <path
       style="fill:#000000;fill-opacity:1;fill-rule:nonzero;stroke:#000000;stroke-width:2.68510866;stroke-linecap:butt;stroke-linejoin:miter;stroke-miterlimit:4;stroke-opacity:1;stroke-dasharray:none;stroke-dashoffset:0"
       d="m 342.05706,339.11196 0,-10.11337 12.1669,-0.34603 12.16689,0.0735 0.49063,10.4887 0.49062,9.23006 -12.65752,0.39024 -12.65752,0.39025 z"
       id="path3683"
       inkscape:connector-curvature="0"
       sodipodi:nodetypes="ccccccccc"
       transform="translate(11.160292,45.990039)" />
    <path
       style="fill:#000000;fill-opacity:1;fill-rule:nonzero;stroke:#000000;stroke-width:2.68510866;stroke-linecap:butt;stroke-linejoin:miter;stroke-miterlimit:4;stroke-opacity:1;stroke-dasharray:none;stroke-dashoffset:0"
       d="m 342.42647,530.94832 0.46968,-21.39696 12.1669,-0.49307 12.1669,-0.49307 0,21.89003 0,21.89003 -12.63659,0 -12.63658,0 0.46969,-21.39696 z"
       id="path3685"
       inkscape:connector-curvature="0"
       transform="translate(11.160292,45.990039)" />
    <path
       style="fill:#000000;fill-opacity:1;fill-rule:nonzero;stroke:#000000;stroke-width:2.68510866;stroke-linecap:butt;stroke-linejoin:miter;stroke-miterlimit:4;stroke-opacity:1;stroke-dasharray:none;stroke-dashoffset:0"
       d="m 212.83621,564.93172 0,-10.90825 63.77133,0 63.77132,0 0,10.90825 0,10.90826 -63.77132,0 -63.77133,0 0,-10.90826 z"
       id="path3687"
       inkscape:connector-curvature="0"
       transform="translate(11.160292,45.990039)" />
    <path
       style="fill:#ffccaa;fill-opacity:1;fill-rule:nonzero;stroke:#ffccaa;stroke-width:0.33563858;stroke-linecap:butt;stroke-linejoin:miter;stroke-miterlimit:4;stroke-opacity:1;stroke-dasharray:none;stroke-dashoffset:0"
       d="m 370.48443,280.03223 c -0.20496,-0.0827 -0.26222,-2.43829 -0.26222,-10.78681 l 0,-10.681 -13.11088,0 -13.11088,0 0,-9.64961 0,-9.64961 13.11088,0 13.11088,0 0,-24.33379 0,-24.3338 11.22291,0 11.22292,0 0,44.78677 0,44.78677 -10.9607,-0.0166 c -6.02838,-0.009 -11.07869,-0.0642 -11.22291,-0.12237 l 0,2e-5 z"
       id="path5369"
       inkscape:connector-curvature="0"
       transform="translate(11.160292,45.990039)" />
    <path
       style="fill:#ffffff;fill-opacity:1;fill-rule:nonzero;stroke:#ffffff;stroke-width:0.94932925999999995;stroke-linecap:butt;stroke-linejoin:miter;stroke-miterlimit:4;stroke-opacity:1;stroke-dasharray:none;stroke-dashoffset:0"
       d="m 86.787552,360.33994 0,-10.96408 -11.718283,-0.16088 -11.718282,-0.16087 -0.161145,-11.42162 -0.161144,-11.42162 -12.674599,0 c -12.64247,0 -12.675506,-0.003 -13.032363,-1.33499 -0.196771,-0.73425 -0.361411,-9.94571 -0.365867,-20.46991 l -0.0081,-19.13492 32.536663,0 c 17.895164,0 40.189568,-0.17648 49.543118,-0.39218 l 17.00646,-0.39218 0,32.13538 0,32.13537 -12.16328,0 -12.16329,0 0,11.27329 0,11.27328 -12.45994,0 -12.459946,0 0,-10.96407 z"
       id="path5371"
       inkscape:connector-curvature="0"
       transform="translate(11.160292,45.990039)" />
    <path
       style="fill:#ffffff;fill-opacity:1;fill-rule:nonzero;stroke:#ffffff;stroke-width:0.94932926;stroke-linecap:butt;stroke-linejoin:miter;stroke-miterlimit:4;stroke-opacity:1;stroke-dasharray:none;stroke-dashoffset:0"
       d="m 139.00066,360.32739 0,-10.38329 11.2098,0 c 9.67454,0 11.25913,-0.12853 11.56995,-0.93852 0.19808,-0.51619 0.36015,-10.26164 0.36015,-21.65657 l 0,-20.71805 49.83978,0 49.83979,0 0,22.54657 0,22.54657 13.05328,0 13.05327,0 0,3.17102 c 0,1.74406 0.17407,6.01604 0.38684,9.49329 l 0.38683,6.32227 -74.84984,0 -74.84985,0 0,-10.38329 z"
       id="path5373"
       inkscape:connector-curvature="0"
       transform="translate(11.160292,45.990039)" />
    <path
       style="fill:#ffffff;fill-opacity:1;fill-rule:nonzero;stroke:#ffffff;stroke-width:0.94932926;stroke-linecap:butt;stroke-linejoin:miter;stroke-miterlimit:4;stroke-opacity:1;stroke-dasharray:none;stroke-dashoffset:0"
       d="m 315.2199,338.07749 0,-11.27329 -12.73073,0 -12.73073,0 -0.3254,-10.82828 c -0.17897,-5.95556 -0.46852,-15.96307 -0.64345,-22.23891 l -0.31805,-11.41062 13.81918,-0.15933 13.81917,-0.15933 0.16235,-10.23495 0.16234,-10.23496 13.6326,0 13.6326,0 0,11.86662 0,11.86661 10.5853,0 10.58531,0 0.39131,13.44583 c 0.21523,7.39521 0.39131,16.74017 0.39131,20.76658 l 0,7.32074 -12.45994,0 -12.45995,0 0,11.27329 0,11.27328 -12.75661,0 -12.75661,0 0,-11.27328 z"
       id="path5375"
       inkscape:connector-curvature="0"
       transform="translate(11.160292,45.990039)" />
    <path
       style="fill:#552200;fill-opacity:1;fill-rule:nonzero;stroke:#552200;stroke-width:0.94932925999999995;stroke-linecap:butt;stroke-linejoin:miter;stroke-miterlimit:4;stroke-opacity:1;stroke-dasharray:none;stroke-dashoffset:0"
       d="m 64.580029,505.65105 c -0.754031,-0.75403 -0.932377,-2.44001 -0.932377,-8.81416 l 0,-7.88179 4.004983,-0.37824 c 2.20274,-0.20804 29.036124,-0.38015 59.629745,-0.38247 l 55.62476,-0.004 0,9.19663 0,9.19663 -58.69737,0 c -52.570132,0 -58.794692,-0.0973 -59.629741,-0.93238 z"
       id="path5887"
       inkscape:connector-curvature="0"
       transform="translate(11.160292,45.990039)" />
    <path
       style="fill:#552200;fill-opacity:1;fill-rule:nonzero;stroke:#552200;stroke-width:0.94932926;stroke-linecap:butt;stroke-linejoin:miter;stroke-miterlimit:4;stroke-opacity:1;stroke-dasharray:none;stroke-dashoffset:0"
       d="m 213.16701,542.77661 0,-8.89997 51.02644,0 51.02645,0 0,-11.89053 0,-11.89053 12.7517,0.17225 12.7517,0.17225 0.005,20.61824 0.005,20.61825 -63.78306,0 -63.78305,0 0,-8.89996 z"
       id="path5889"
       inkscape:connector-curvature="0"
       transform="translate(11.160292,45.990039)" />
  </g>
  <g
     inkscape:groupmode="layer"
     id="layer2"
     inkscape:label="Layer"
     transform="translate(-11.160292,-45.990039)" />
</svg>
