<?xml version="1.0" encoding="UTF-8" standalone="no"?>
<!-- Created with Inkscape (http://www.inkscape.org/) -->

<svg
   xmlns:dc="http://purl.org/dc/elements/1.1/"
   xmlns:cc="http://creativecommons.org/ns#"
   xmlns:rdf="http://www.w3.org/1999/02/22-rdf-syntax-ns#"
   xmlns:svg="http://www.w3.org/2000/svg"
   xmlns="http://www.w3.org/2000/svg"
   xmlns:sodipodi="http://sodipodi.sourceforge.net/DTD/sodipodi-0.dtd"
   xmlns:inkscape="http://www.inkscape.org/namespaces/inkscape"
   width="397.42554"
   height="680.83362"
   id="svg2"
   version="1.1"
   inkscape:version="0.48.4 r9939"
   sodipodi:docname="danbarr-side2.zip">
  <defs
     id="defs4" />
  <sodipodi:namedview
     id="base"
     pagecolor="#ffffff"
     bordercolor="#666666"
     borderopacity="1.0"
     inkscape:pageopacity="0.0"
     inkscape:pageshadow="2"
     inkscape:zoom="0.46696116"
     inkscape:cx="321.64058"
     inkscape:cy="451.35482"
     inkscape:document-units="px"
     inkscape:current-layer="layer1"
     showgrid="false"
     inkscape:window-width="1366"
     inkscape:window-height="706"
     inkscape:window-x="-8"
     inkscape:window-y="-8"
     inkscape:window-maximized="1"
     fit-margin-left="10"
     fit-margin-top="10"
     fit-margin-right="10"
     fit-margin-bottom="10" />
  <metadata
     id="metadata7">
    <rdf:RDF>
      <cc:Work
         rdf:about="">
        <dc:format>image/svg+xml</dc:format>
        <dc:type
           rdf:resource="http://purl.org/dc/dcmitype/StillImage" />
        <dc:title></dc:title>
      </cc:Work>
    </rdf:RDF>
  </metadata>
  <g
     inkscape:label="Layer 1"
     inkscape:groupmode="layer"
     id="layer1"
     transform="translate(-19.793596,21.767479)">
    <path
       style="fill:#214478;fill-opacity:1;fill-rule:nonzero;stroke:#214478;stroke-width:2.64997816;stroke-linecap:butt;stroke-linejoin:miter;stroke-miterlimit:4;stroke-opacity:1;stroke-dasharray:none;stroke-dashoffset:0"
       d="m 326.40336,518.05353 0,-34.13877 -66.62802,0 -66.62803,0 0,-11.73562 0,-11.73562 -27.98175,0 -27.98176,0 0.45035,45.23891 c 0.24769,24.88141 0.60217,45.40927 0.78774,45.61749 0.18557,0.20821 42.55731,0.49417 94.15944,0.63547 l 93.82203,0.25691 0,-34.13877 z"
       id="path9335"
       inkscape:connector-curvature="0" />
    <path
       style="fill:#ffffff;fill-opacity:1;fill-rule:nonzero;stroke:#ffffff;stroke-width:2.64997816;stroke-linecap:butt;stroke-linejoin:miter;stroke-miterlimit:4;stroke-opacity:1;stroke-dasharray:none;stroke-dashoffset:0"
       d="m 260.34319,458.36145 67.57444,-0.19748 0,-23.46716 0,-23.46717 14.00703,0 14.00703,0 0,-38.2354 0,-38.2354 -13.54745,0 c -11.65506,0 -13.61166,-0.16729 -14.00703,-1.19763 -0.25277,-0.6587 -0.45958,-5.59901 -0.45958,-10.97848 l 0,-9.78085 -40.88537,0 -40.88538,0 0,47.6996 0,47.69961 -14.3856,0 -14.38559,0 0,13.24989 0,13.24989 -13.24989,0 -13.2499,0 0,12.11419 c 0,9.28534 0.221,12.07095 0.94642,11.92902 0.52054,-0.10183 31.35493,-0.27402 68.52087,-0.38263 z"
       id="path8825"
       inkscape:connector-curvature="0" />
    <path
       style="fill:#000000;fill-opacity:1;fill-rule:nonzero;stroke:#000000;stroke-width:3.42640924;stroke-linecap:butt;stroke-linejoin:miter;stroke-miterlimit:4;stroke-opacity:1;stroke-dasharray:none;stroke-dashoffset:0"
       d="m 354.7812,446.9489 -0.021,-13.38441 15.44375,-0.62754 15.44375,-0.62753 -0.98859,-45.41691 c -0.53724,-24.68133 -0.10522,-44.8806 -0.98859,-44.87946 -0.88338,10e-4 0.53537,-3.04958 0.53537,-4.81633 0,-2.49842 -3.39072,-1.07075 -13.3844,-1.07075 l -12.84903,0 0,38.54711 0,38.5471 -13.91979,0 -13.91979,0 0,23.55657 0,23.55656 12.33462,0 12.33462,0 -0.021,-13.38441 3e-5,0 z"
       id="path4460"
       inkscape:connector-curvature="0"
       sodipodi:nodetypes="ccccscsscccccccccccc" />
    <path
       style="fill:#000000;fill-opacity:1;fill-rule:nonzero;stroke:#000000;stroke-width:3.42640924;stroke-linecap:butt;stroke-linejoin:miter;stroke-miterlimit:4;stroke-opacity:1;stroke-dasharray:none;stroke-dashoffset:0"
       d="m 355.83099,518.15397 0,-34.2641 -13.91979,0 -13.91979,0 0,34.2641 0,34.26409 13.91979,0 13.91979,0 0,-34.26409 z"
       id="path4458"
       inkscape:connector-curvature="0" />
    <path
       style="fill:#ffccaa;fill-opacity:1;fill-rule:nonzero;stroke:#ffccaa;stroke-width:2.42283726;stroke-linecap:butt;stroke-linejoin:miter;stroke-miterlimit:4;stroke-opacity:1;stroke-dasharray:none;stroke-dashoffset:0"
       d="m 191.64864,336.38515 c 2.21817,7.34068 -4.92311,24.0408 4.54282,24.13373 6.72017,2.38303 23.39491,-5.22407 22.7141,4.63746 -0.0628,13.64706 0.12579,27.39825 -0.0947,40.98002 -9.43266,0 -18.86532,0 -28.29798,0 -2.30674,8.89669 -1.75975,18.22696 -1.98748,27.25692 -23.74101,-0.71128 -47.70209,1.44066 -71.31281,-1.08838 -8.5975,-3.05877 -2.78824,-15.25931 -4.4955,-21.86232 -2.96721,-6.26039 -17.36897,-1.08624 -24.890864,-2.79195 -2.04574,-7.21226 -0.2527,-18.02816 -0.85178,-26.59442 2.261524,-6.60652 -5.61727,-23.36953 6.151734,-20.53733 7.38647,-1.66763 23.27192,5.16373 19.59091,-7.57137 -0.24717,-9.30486 -2.77699,-21.04066 10.69456,-16.657 22.73247,0.0629 45.56985,-0.12591 68.23694,0.0946 z"
       id="path3162"
       inkscape:connector-curvature="0" />
    <path
       style="fill:#000000;fill-opacity:1;fill-rule:nonzero;stroke:#000000;stroke-width:0.13039286;stroke-linecap:butt;stroke-linejoin:miter;stroke-miterlimit:4;stroke-opacity:1;stroke-dasharray:none;stroke-dashoffset:0"
       d="m 169.05011,144.58532 0,-13.69124 -14.99518,0 -14.9952,0 0,13.69124 0,13.69127 14.9952,0 14.99518,0 0,-13.69127 z"
       id="path4294"
       inkscape:connector-curvature="0" />
    <path
       style="fill:#000000;fill-opacity:1;fill-rule:nonzero;stroke:#000000;stroke-width:0.1436429;stroke-linecap:butt;stroke-linejoin:miter;stroke-miterlimit:4;stroke-opacity:1;stroke-dasharray:none;stroke-dashoffset:0"
       d="m 169.04348,172.15829 0,-15.83093 -14.98855,0 -14.98857,0 0,15.83093 0,15.83094 14.98857,0 14.98855,0 0,-15.83094 z"
       id="path4296"
       inkscape:connector-curvature="0" />
    <path
       style="fill:none;stroke:#000000;stroke-width:1px;stroke-linecap:butt;stroke-linejoin:miter;stroke-opacity:1"
       d="m 356.70003,334.24944 0,-48.34068 -111.01777,0.37857 0,25.69806 -26.35779,0 -0.18928,23.77275 -26.26035,0 0.15681,-23.23736 -81.66393,0.37857 0.22175,22.92375 -26.200974,0.18928 0.37858,23.62152 -28.50486,0.56785 0.18928,73.4709 29.98108,0 0,25.69807 23.021194,0 0,118.3182 25.69807,0 0,22.48581 -26.76882,0 0,49.25463 220.03972,0 0,-95.83238 26.76882,0 0,-70.66969 -27.03094,-0.18928 c 0.0892,-7.76876 -0.20009,-17.71507 -0.11089,-22.00981 l 26.79572,0.18928 -0.18928,-27.24483 30.48955,0.37857 -0.37857,-99.64497 z"
       id="path4641"
       inkscape:connector-curvature="0"
       sodipodi:nodetypes="ccccccccccccccccccccccccccccccccc" />
    <path
       style="fill:none;stroke:#000000;stroke-width:1px;stroke-linecap:butt;stroke-linejoin:miter;stroke-opacity:1"
       d="m 356.72694,338.37565 0,73.88195 -27.71525,-0.18928 0.75714,47.26993 -3.74763,0 c -45.1185,0.0653 -90.05776,0.0325 -135.85571,0.0325 l 0,-25.22206 26.29282,0 0,-26.70945 28.91033,0 0,-95.25896 84.0541,0 0,21.91238 27.3042,0 z"
       id="path4643"
       inkscape:connector-curvature="0"
       sodipodi:nodetypes="ccccccccccccccc" />
    <path
       style="fill:none;stroke:#000000;stroke-width:1px;stroke-linecap:butt;stroke-linejoin:miter;stroke-opacity:1"
       d="m 190.03558,434.05679 0.18928,-26.61758 28.91033,0 0,-47.6485 -26.23345,0 0,-24.09195 -80.84184,0 0,24.09195 -26.233444,0 0,48.18388 26.768824,0 0,26.23344 77.09421,0"
       id="path4648"
       inkscape:connector-curvature="0"
       sodipodi:nodetypes="ccccccccccccc" />
    <path
       style="fill:none;stroke:#000000;stroke-width:1px;stroke-linecap:butt;stroke-linejoin:miter;stroke-opacity:1"
       d="m 302.65392,577.15354 0,47.64851 -168.64358,0 0,-24.09194 30.51645,0 0,-23.55657 z"
       id="path3138"
       inkscape:connector-curvature="0" />
    <path
       style="fill:none;stroke:#000000;stroke-width:1px;stroke-linecap:butt;stroke-linejoin:miter;stroke-opacity:1"
       d="m 327.28123,485.60417 0,66.92206 -190.59401,0 0,-93.15551 50.86076,0 6.42452,0 0,23.55657 134.91486,0 -1.70355,0.0269 z"
       id="path3140"
       inkscape:connector-curvature="0"
       sodipodi:nodetypes="cccccccccc" />
    <path
       style="fill:#000000;fill-opacity:1;fill-rule:nonzero;stroke:#000000;stroke-width:3.42640924;stroke-linecap:butt;stroke-linejoin:miter;stroke-miterlimit:4;stroke-opacity:1;stroke-dasharray:none;stroke-dashoffset:0"
       d="m 355.83099,309.35715 0,-22.48581 -54.6084,0 -54.60839,0 0,11.77828 0,11.77829 41.75936,0 41.75936,0 0,10.70752 0,10.70753 12.84903,0 12.84904,0 0,-22.48581 z"
       id="path4462"
       inkscape:connector-curvature="0" />
    <path
       style="fill:#000000;fill-opacity:1;fill-rule:nonzero;stroke:#000000;stroke-width:3.42640924;stroke-linecap:butt;stroke-linejoin:miter;stroke-miterlimit:4;stroke-opacity:1;stroke-dasharray:none;stroke-dashoffset:0"
       d="m 218.23924,649.32162 109.75217,-0.57469 0,-47.07165 0,-47.07162 -95.83238,-0.55743 -95.83238,-0.55742 -0.57635,-47.6485 -0.57635,-47.64851 26.8098,0 26.80979,0 0,-11.77828 0,-11.77828 -38.5471,0 -38.54711,0 0,-12.84903 0,-12.84904 -13.91979,0 -13.919784,0 0,-23.55656 0,-23.55657 -12.84904,0 -12.84903,0 0,35.33485 0,35.33484 14.99054,0 14.990544,0 0,12.84904 0,12.84903 11.77828,0 11.77828,0 0,58.89141 0,58.89141 12.84904,0 12.84903,0 0,11.77828 0,11.77829 12.84904,0 12.84903,0 0,-11.77829 0,-11.77828 70.66969,0 70.66969,0 0,24.62732 0,24.62731 -85.66023,0 -85.66023,0 0,-11.77828 0,-11.77828 -11.64864,0 -11.64863,0 0.94111,25.16689 c 0.50643,13.54283 0.9411,21.72078 0.9411,21.43495 0,-0.28585 46.17622,1.36318 106.53991,1.04709 z"
       id="path4471"
       inkscape:connector-curvature="0"
       sodipodi:nodetypes="ccccccccccccccccccccccccccccccccccccccccccccccccccsscc" />
    <path
       style="fill:#000000;fill-opacity:1;fill-rule:nonzero;stroke:#000000;stroke-width:3.42640924;stroke-linecap:butt;stroke-linejoin:miter;stroke-miterlimit:4;stroke-opacity:1;stroke-dasharray:none;stroke-dashoffset:0"
       d="m 214.49161,420.71545 0,-11.77828 -11.77828,0 -11.77829,0 0,11.77828 0,11.77828 11.77829,0 11.77828,0 0,-11.77828 z"
       id="path4473"
       inkscape:connector-curvature="0" />
    <path
       style="fill:#000000;fill-opacity:1;fill-rule:nonzero;stroke:#000000;stroke-width:3.42640924;stroke-linecap:butt;stroke-linejoin:miter;stroke-miterlimit:4;stroke-opacity:1;stroke-dasharray:none;stroke-dashoffset:0"
       d="m 327.99141,471.04084 0,-10.70753 -66.38667,0 -66.38668,0 0,10.70753 0,10.70753 66.38668,0 66.38667,0 0,-10.70753 z"
       id="path4475"
       inkscape:connector-curvature="0" />
    <path
       style="fill:#000000;fill-opacity:1;fill-rule:nonzero;stroke:#000000;stroke-width:0.60570931;stroke-linecap:butt;stroke-linejoin:miter;stroke-miterlimit:4;stroke-opacity:1;stroke-dasharray:none;stroke-dashoffset:0"
       d="m 244.07128,397.79382 c 0.12959,-5.04916 0.34528,-26.25845 0.4793,-47.13176 l 0.24369,-37.95147 -12.29972,0 -12.29971,0 -0.24133,2.55534 c -0.13274,1.40543 -0.24255,6.68646 -0.24403,11.73561 l -0.003,9.18029 -13.06061,0 -13.06061,0 0,11.54633 0,11.54633 13.06061,0 13.06061,0 0,23.84981 0,23.8498 12.06443,0 12.82158,-0.37857 0.23562,-9.18028 -0.75714,0.37857 z"
       id="path4483"
       inkscape:connector-curvature="0"
       sodipodi:nodetypes="cscccsccccccccccccccc" />
    <path
       style="fill:#000000;fill-opacity:1;fill-rule:nonzero;stroke:#000000;stroke-width:0.60570931;stroke-linecap:butt;stroke-linejoin:miter;stroke-miterlimit:4;stroke-opacity:1;stroke-dasharray:none;stroke-dashoffset:0"
       d="m 192.44987,324.03844 0,-11.00769 -40.22288,0.26791 c -22.12259,0.14735 -40.24011,0.28826 -40.26116,0.31313 -0.0211,0.0249 0.0436,4.85777 0.14371,10.73978 l 0.18198,10.69455 40.07917,0 40.07918,0 0,-11.00768 z"
       id="path4485"
       inkscape:connector-curvature="0" />
    <path
       style="fill:#000000;fill-opacity:1;fill-rule:nonzero;stroke:#000000;stroke-width:0.60570931;stroke-linecap:butt;stroke-linejoin:miter;stroke-miterlimit:4;stroke-opacity:1;stroke-dasharray:none;stroke-dashoffset:0"
       d="m 111.43625,347.91744 0,-11.35705 -12.68204,0 -12.682044,0 0,6.7548 c 0,3.71514 0.11136,8.82581 0.24746,11.35705 l 0.24747,4.60225 12.434574,0 12.43458,0 0,-11.35705 z"
       id="path4487"
       inkscape:connector-curvature="0" />
    <path
       style="fill:#ffccaa;fill-opacity:1;fill-rule:nonzero;stroke:#ffccaa;stroke-width:0.85882908;stroke-linecap:butt;stroke-linejoin:miter;stroke-miterlimit:4;stroke-opacity:1;stroke-dasharray:none;stroke-dashoffset:0"
       d="m 195.5896,249.69353 0,-13.0488 13.32381,0 13.3238,0 0,-24.23353 0.75714,-28.0192 -13.3238,0 -13.32381,0 -0.75714,-34.11803 0,-37.90372 -40.57703,0 -40.57704,0 0,25.47628 0,25.47626 -9.08441,0 -9.0844,0 0,12.42744 0,12.42745 -10.901314,0 -10.90129,0 0,11.1847 0,11.18471 6.6619,0 6.66191,0 0,26.09764 0,26.09763 53.900834,0 53.90084,0 z m -56.92897,-88.23485 0,-26.71903 15.14068,0 15.14069,0 0,26.71903 0,26.719 -15.14069,0 -15.14068,0 z"
       id="path14347"
       inkscape:connector-curvature="0"
       sodipodi:nodetypes="cccccccccccccccccccccccccccccccccccccc" />
    <path
       style="fill:#ff6600;fill-opacity:1;fill-rule:nonzero;stroke:#ff6600;stroke-width:2.64997816;stroke-linecap:butt;stroke-linejoin:miter;stroke-miterlimit:4;stroke-opacity:1;stroke-dasharray:none;stroke-dashoffset:0"
       d="m 218.39328,327.37676 c 0.26886,-4.06015 0.49061,-9.34118 0.49276,-11.73562 l 0.004,-4.35354 12.87132,0 12.87132,0 0,-13.24989 0,-13.24989 70.03514,0 70.03514,0 0,-12.49275 0,-12.49276 -14.76416,0 -14.76417,0 0,-12.11418 0,-12.11419 14.3856,0 14.38559,0 0,-12.11418 0,-12.11419 13.24989,0 13.2499,0 0,-11.71854 0,-11.71853 -13.81775,-0.20637 -13.81774,-0.20636 -0.20851,-11.92491 -0.20851,-11.9249 -12.47353,0 -12.47353,0 0,-12.87132 0,-12.87132 12.87132,0 12.87133,0 0,-11.35705 0,-11.35705 -13.62846,0 -13.62846,0 0,-12.11419 0,-12.114179 -13.62846,0 -13.62846,0 0,-12.49276 0,-12.492754 -13.62846,0 -13.62846,0 0,-12.871322 0,-12.871323 -12.87132,0 -12.87132,0 0,-12.492754 0,-12.492755 -54.89241,0 -54.8924,0 0,13.249891 0,13.249891 -25.74265,0 -25.74265,0 0,12.871323 0,12.871323 -14.00702,0 -14.00703,0 0,11.35705 0,11.35705 14.00703,0 14.00702,0 0,12.492749 0,12.49276 40.88538,0 40.88538,0 0,34.82828 0,34.82829 12.49275,0 12.49276,0 0,26.49978 0,26.49978 -12.11419,0 -12.11418,0 0,12.11419 0,12.11418 -54.13527,0 -54.13527,0 0,11.73562 0,11.73562 12.49275,0 12.49276,0 0,13.24989 0,13.24989 40.12824,0 40.12824,0 0,11.35705 0,11.35705 12,0 11.99998,0 0.48885,-7.38208 z"
       id="path8823"
       inkscape:connector-curvature="0" />
    <path
       style="fill:#552200;fill-opacity:1;fill-rule:nonzero;stroke:#552200;stroke-width:2.64997816;stroke-linecap:butt;stroke-linejoin:miter;stroke-miterlimit:4;stroke-opacity:1;stroke-dasharray:none;stroke-dashoffset:0"
       d="m 302.17499,600.5138 0,-22.7141 -68.52087,0 -68.52086,0 0,11.73561 0,11.73562 -15.14273,0 -15.14274,0 0,10.97848 0,10.97848 83.6636,0 83.6636,0 0,-22.71409 z"
       id="path9845"
       inkscape:connector-curvature="0" />
  </g>
  <g
     inkscape:groupmode="layer"
     id="layer2"
     inkscape:label="Layer"
     transform="translate(-19.793596,21.767479)" />
</svg>
